<?xml version="1.0" standalone="no"?>
<!DOCTYPE svg PUBLIC "-//W3C//DTD SVG 1.1//EN" "http://www.w3.org/Graphics/SVG/1.1/DTD/svg11.dtd" >
<svg>
<metadata>
Created by FontForge 20090914 at Mon Feb 21 18:34:29 2022
 By www-data
Copyright (c) 2013 by Kimberly Geswein. All rights reserved.
</metadata>
<defs>
<font id="KGRedHands" horiz-adv-x="1260" >
  <font-face 
    font-family="KG Red Hands"
    font-weight="400"
    font-stretch="normal"
    units-per-em="2048"
    panose-1="2 0 5 5 0 0 0 2 0 4"
    ascent="1638"
    descent="-410"
    x-height="1299.5"
    cap-height="1762"
    bbox="-476.346 -487.13 2178.7 2212"
    underline-thickness="0"
    underline-position="0"
    unicode-range="U+0020-U+2212"
  />
<missing-glyph horiz-adv-x="729" 
 />
    <glyph glyph-name=".notdef" horiz-adv-x="729" 
 />
    <glyph glyph-name="space" unicode=" " horiz-adv-x="729" 
 />
    <glyph glyph-name="space" unicode="&#xa0;" horiz-adv-x="729" 
 />
    <glyph glyph-name="exclam" unicode="!" horiz-adv-x="552" 
d="M264 359c46 1.33301 84.1699 -7.16406 114.503 -25.4971s53.333 -41.5 69 -69.5s23.667 -58.667 24 -92s-6.83398 -64.333 -21.501 -93s-36.834 -52.667 -66.501 -72s-66.834 -29 -111.501 -29c-40.667 0 -75 9.16699 -103 27.5s-49.5 41.5 -64.5 69.5
s-23 58.167 -24 90.5s5 62.666 18 90.999s33.167 52.166 60.5 71.499s62.333 29.666 105 30.999zM98.0029 1695c0 14 8.83398 26.6689 26.501 38.002s39.667 20.166 66 26.499s54.833 10 85.5 11s59.167 -1.66699 85.5 -8s48.166 -16.5 65.499 -30.5s26 -32.667 26 -56
l-11 -1200c0 -12.667 -8.5 -23.5 -25.5 -32.5s-38 -16.167 -63 -21.5s-52 -8.5 -81 -9.5s-56 0.166992 -81 3.5s-45.833 9.16602 -62.5 17.499s-25 19.5 -25 33.5z" />
    <glyph glyph-name="quotedbl" unicode="&#x22;" horiz-adv-x="1287" 
d="M255 1389c-7.33301 19.333 -6.49414 37.4971 2.50586 54.4971s22.5 32.333 40.5 46s39 24.834 63 33.501s47.667 14 71 16s44.5 0.333008 63.5 -5s32.833 -15.333 41.5 -30c30 -52 51.667 -102.167 65 -150.5s19 -96.333 17 -144s-11.833 -95.5 -29.5 -143.5
s-42.834 -97.667 -75.501 -149c-16 -24.667 -35.833 -42.167 -59.5 -52.5s-48.334 -15 -74.001 -14s-50.334 6.33301 -74.001 16s-43.334 22.334 -59.001 38.001s-25.834 33.334 -30.501 53.001s-0.333984 39.5 12.999 59.5c24 36.667 42 69.5 54 98.5s19.833 55 23.5 78
s3.83398 43.5 0.500977 61.5s-8 34.5 -14 49.5s-12.833 29.333 -20.5 43s-13.834 27.5 -18.501 41.5zM688.006 1393c-7.33301 19.333 -6.49414 37.4971 2.50586 54.4971s22.5 32.333 40.5 46s39 24.834 63 33.501s47.667 14 71 16s44.5 0.333008 63.5 -5
s32.833 -15.333 41.5 -30c30 -52 51.667 -102.167 65 -150.5s19 -96.333 17 -144s-11.833 -95.5 -29.5 -143.5s-42.834 -97.667 -75.501 -149c-16 -24.667 -35.833 -42.167 -59.5 -52.5s-48.334 -15 -74.001 -14s-50.334 6.33301 -74.001 16s-43.334 22.334 -59.001 38.001
s-25.834 33.334 -30.501 53.001s-0.333984 39.5 12.999 59.5c24 36.667 42 69.5 54 98.5s19.833 55 23.5 78s3.83398 43.5 0.500977 61.5s-8 34.5 -14 49.5s-12.833 29.333 -20.5 43s-13.834 27.5 -18.501 41.5z" />
    <glyph glyph-name="numbersign" unicode="#" horiz-adv-x="1463" 
d="M364 867l1.00488 113.002h-179c-12.667 0 -23.5 7.5 -32.5 22.5s-16 33.833 -21 56.5s-7.83301 47.167 -8.5 73.5s1 50.666 5 72.999s10.167 41 18.5 56s19.5 22.5 33.5 22.5l186 1l1 148c0 14 7.83301 26.5 23.5 37.5s35.167 19.667 58.5 26s48.5 9.66602 75.5 9.99902
s52 -2.66699 75 -9s42.167 -16.666 57.5 -30.999s22.666 -33.166 21.999 -56.499l-2 -123l107 1l1 139c0 14 7.83301 26.5 23.5 37.5s35.167 19.667 58.5 26s48.5 9.66602 75.5 9.99902s52 -2.66699 75 -9s42 -16.666 57 -30.999s22.5 -33.166 22.5 -56.499l-2 -114l146 1
c14 0 26.667 -7.66699 38 -23s20.166 -34.666 26.499 -57.999s10 -48.5 11 -75.5s-1.66699 -52 -8 -75s-16.5 -42.167 -30.5 -57.5s-32.667 -23 -56 -23h-132l-1 -107l152 1c14 0 26.667 -7.66699 38 -23s20.166 -34.666 26.499 -57.999s10 -48.5 11 -75.5
s-1.66699 -52 -8 -75s-16.5 -42.167 -30.5 -57.5s-32.667 -23 -56 -23h-138l-3 -194c-0.666992 -12.667 -8.5 -23.334 -23.5 -32.001s-33.833 -15.334 -56.5 -20.001s-47 -7.16699 -73 -7.5s-50.333 1.5 -73 5.5s-41.334 10.333 -56.001 19s-22 20 -22 34l1 195h-112
l-3 -188c-0.666992 -12.667 -8.5 -23.334 -23.5 -32.001s-33.833 -15.334 -56.5 -20.001s-47 -7.16699 -73 -7.5s-50.333 1.5 -73 5.5s-41.334 10.333 -56.001 19s-22 20 -22 34l1 190h-175c-12.667 0 -23.5 7.5 -32.5 22.5s-16 33.833 -21 56.5s-7.83301 47.167 -8.5 73.5
s1 50.666 5 72.999s10.167 41 18.5 56s19.5 22.5 33.5 22.5zM671.005 869.002l111 1l1 109h-110z" />
    <glyph glyph-name="dollar" unicode="$" horiz-adv-x="1222" 
d="M899 1674c18.667 -14 39.3301 -30.334 61.9971 -49.001s44.5 -38 65.5 -58s40.333 -39.5 58 -58.5s31.5 -35.5 41.5 -49.5c12 -18.667 15.167 -37.834 9.5 -57.501s-16.667 -38.667 -33 -57s-36.333 -35 -60 -50s-47.167 -26.667 -70.5 -35s-44.833 -13 -64.5 -14
s-33.5 3.83301 -41.5 14.5c-5.33301 6.66699 -10.833 13.167 -16.5 19.5s-11.5 12.5 -17.5 18.5l-60 -339l86.5 -72.5c28.333 -24.333 55 -48.5 80 -72.5s47.667 -48 68 -72s37.166 -47.333 50.499 -70c21.333 -38 38.333 -77 51 -117s19 -82.333 19 -127
c0 -78.667 -12.667 -147.167 -38 -205.5s-59.166 -106.833 -101.499 -145.5s-91.166 -67.667 -146.499 -87s-112.666 -29 -171.999 -29c-12.667 0 -25 0.5 -37 1.5s-24.333 2.16699 -37 3.5l-13 -74c-2 -14 -12.333 -25.333 -31 -34s-41.5 -14.334 -68.5 -17.001
s-55.833 -2.5 -86.5 0.5s-58.667 9.33301 -84 19s-45.666 22.667 -60.999 39s-21.333 36.166 -18 59.499l26 140c-38 27.333 -73.667 57.833 -107 91.5s-63 70.5 -89 110.5c-9.33301 14 -11.666 30.5 -6.99902 49.5s13.667 38.333 27 58s29.5 38.167 48.5 55.5
s38 31.5 57 42.5s36.833 17.333 53.5 19s29.334 -3.5 38.001 -15.5c14.667 -21.333 30 -40.333 46 -57l74 396l-91.5 73.5c-29.667 25 -57.334 50.333 -83.001 76s-48.834 51.834 -69.501 78.501s-37.334 54 -50.001 82c-30 66 -43.333 132.833 -40 200.5
s21 130.834 53 189.501c24 44.667 52.833 83.167 86.5 115.5s70.334 58.5 110.001 78.5s81.667 34 126 42s89.5 10.333 135.5 7l13 70c2 12.667 11.833 22.334 29.5 29.001s39.334 10.834 65.001 12.501s53 1.16699 82 -1.5s55.667 -7.5 80 -14.5
s44.166 -15.833 59.499 -26.5s22 -22.667 20 -36zM739.996 536.999l-15.998 24.001c-5.33301 8 -11.666 16 -18.999 24l-54 -302c36 0.666992 63.167 10.167 81.5 28.5s30.166 40.666 35.499 66.999s5.16602 53.833 -0.500977 82.5s-14.834 54 -27.501 76zM417.998 1397
c-11.333 -25.333 -11.667 -52 -1 -80s28.667 -57.667 54 -89l42 227c-22.667 -1.33301 -42.167 -7 -58.5 -17s-28.5 -23.667 -36.5 -41z" />
    <glyph glyph-name="percent" unicode="%" horiz-adv-x="1071" 
d="M440 -5c-4 -13.333 -15.9961 -22.8301 -35.9961 -28.4971s-43.5 -7.83398 -70.5 -6.50098s-55.333 6.16602 -85 14.499s-56.334 19.166 -80.001 32.499s-41.834 29.166 -54.501 47.499s-15.334 38.833 -8.00098 61.5l517 1650c4 12 15.333 20 34 24
s40.667 4.83301 66 2.5s52.166 -7.16602 80.499 -14.499s54 -16.333 77 -27s41.167 -22.5 54.5 -35.5s18.333 -25.833 15 -38.5zM826.004 -13.9971c-46 -1.33301 -84.1699 7.16406 -114.503 25.4971s-53.333 41.5 -69 69.5s-23.667 58.667 -24 92s6.83398 64.333 21.501 93
s36.834 52.667 66.501 72s66.834 29 111.501 29c40.667 0 75 -9.16699 103 -27.5s49.5 -41.5 64.5 -69.5s23 -58.167 24 -90.5s-5 -62.666 -18 -90.999s-33.167 -52.166 -60.5 -71.499s-62.333 -29.666 -105 -30.999zM270.001 1363
c-46 -1.33301 -84.1699 7.16406 -114.503 25.4971s-53.333 41.5 -69 69.5s-23.667 58.667 -24 92s6.83398 64.333 21.501 93s36.834 52.667 66.501 72s66.834 29 111.501 29c40.667 0 75 -9.16699 103 -27.5s49.5 -41.5 64.5 -69.5s23 -58.167 24 -90.5
s-5 -62.666 -18 -90.999s-33.167 -52.166 -60.5 -71.499s-62.333 -29.666 -105 -30.999z" />
    <glyph glyph-name="ampersand" unicode="&#x26;" horiz-adv-x="1503" 
d="M928 1021c-45.333 -47.333 -90.3311 -88.332 -134.998 -122.999l247 -367c33.333 26 65.5 52.833 96.5 80.5l90.5 83.5c9.33301 8.66699 22 11 38 7s33 -12.167 51 -24.5s35.5 -27.5 52.5 -45.5s31.167 -36.667 42.5 -56s18.5 -38 21.5 -56s-0.5 -33 -10.5 -45
c-30 -36 -62.167 -70.833 -96.5 -104.5s-70.5 -66.167 -108.5 -97.5l84 -125c11.333 -16.667 13.333 -35.334 6 -56.001s-20.333 -40.834 -39 -60.501s-41.334 -37.5 -68.001 -53.5s-53.5 -27.5 -80.5 -34.5s-52.5 -8.16699 -76.5 -3.5s-43 17.667 -57 39l-60 96
c-76 -38.667 -152.167 -65.667 -228.5 -81s-148.833 -17.166 -217.5 -5.49902s-131.334 37.334 -188.001 77.001s-103.334 95.167 -140.001 166.5c-34 65.333 -52.667 132.166 -56 200.499s5.33398 135 26.001 200s51.834 126.333 93.501 184s90.5 108.5 146.5 152.5v2
c-40.667 52 -72.334 108 -95.001 168s-36.334 119.667 -41.001 179s0.166016 116.666 14.499 171.999s38.5 104 72.5 146s78 75.667 132 101s118.333 38 193 38c66 0 125.833 -11.5 179.5 -34.5s99.5 -53.833 137.5 -92.5s67.333 -83.5 88 -134.5
s30.834 -104.333 30.501 -160s-12.166 -112.167 -35.499 -169.5s-60 -111.666 -110 -162.999zM424.002 397.001c14.667 -32.667 35.168 -57.833 61.501 -75.5s55 -28.5 86 -32.5s62.167 -1.5 93.5 7.5s59.333 23.833 84 44.5l-218 357
c-25.333 -26 -47.166 -51.833 -65.499 -77.5s-32.333 -51 -42 -76s-14.834 -49.833 -15.501 -74.5s4.66602 -49 15.999 -73zM664.003 1483c-28 2.66699 -50.834 -1.16504 -68.501 -11.498s-31 -24.833 -40 -43.5s-13.667 -40.334 -14 -65.001s3 -50 10 -76
s17.667 -51.5 32 -76.5s31.833 -46.833 52.5 -65.5c28 18 51.167 38.667 69.5 62s32 47.166 41 71.499s13.833 48.333 14.5 72s-2.66602 45 -9.99902 64s-18.333 34.667 -33 47s-32.667 19.5 -54 21.5z" />
    <glyph glyph-name="quotesingle" unicode="'" horiz-adv-x="666" 
d="M163 1389c-7.33301 19.333 -6.49414 37.4971 2.50586 54.4971s22.5 32.333 40.5 46s39 24.834 63 33.501s47.667 14 71 16s44.5 0.333008 63.5 -5s32.833 -15.333 41.5 -30c30 -52 51.667 -102.167 65 -150.5s19 -96.333 17 -144s-11.833 -95.5 -29.5 -143.5
s-42.834 -97.667 -75.501 -149c-16 -24.667 -35.833 -42.167 -59.5 -52.5s-48.334 -15 -74.001 -14s-50.334 6.33301 -74.001 16s-43.334 22.334 -59.001 38.001s-25.834 33.334 -30.501 53.001s-0.333984 39.5 12.999 59.5c24 36.667 42 69.5 54 98.5s19.833 55 23.5 78
s3.83398 43.5 0.500977 61.5s-8 34.5 -14 49.5s-12.833 29.333 -20.5 43s-13.834 27.5 -18.501 41.5z" />
    <glyph glyph-name="parenleft" unicode="(" horiz-adv-x="755" 
d="M677 -59c14.667 -13.333 20.8301 -30.8369 18.4971 -52.5039s-10 -43.834 -23 -66.501s-30 -44 -51 -64s-43.333 -35.167 -67 -45.5s-47.167 -14.166 -70.5 -11.499s-43.666 15.667 -60.999 39l-78 108.5c-27.333 39 -54.166 82.5 -80.499 130.5s-51.333 101.667 -75 161
s-44.5 125.833 -62.5 199.5s-32.333 155.334 -43 245.001s-16.334 189.167 -17.001 298.5c0 72 5.83301 152.667 17.5 242s31.334 182.333 59.001 279s64.5 194.5 110.5 293.5s103 193.5 171 283.5c12.667 16.667 30 27.167 52 31.5s45 3.83301 69 -1.5
s47.5 -14.5 70.5 -27.5s41.833 -28.167 56.5 -45.5s23.667 -36.166 27 -56.499s-2.66699 -40.5 -18 -60.5c-70.667 -92.667 -125.834 -183.334 -165.501 -272.001s-69.167 -172.667 -88.5 -252s-31.666 -153.166 -36.999 -221.499s-9 -128.5 -11 -180.5
c-3.33301 -79.333 -0.666016 -155.666 8.00098 -228.999s21 -142.666 37 -207.999s34.833 -126 56.5 -182s44 -106 67 -150s45.667 -81.833 68 -113.5s42.5 -55.5 60.5 -71.5z" />
    <glyph glyph-name="parenright" unicode=")" horiz-adv-x="787" 
d="M97 -59c17.333 16 37.3291 39.8359 59.9961 71.5029s45.5 69.5 68.5 113.5s45.333 94 67 150s40.5 116.667 56.5 182s28.333 134.666 37 207.999s11.334 149.666 8.00098 228.999c-2 52 -5.66699 112.167 -11 180.5s-17.666 142.166 -36.999 221.499
s-48.833 163.333 -88.5 252s-94.834 179.334 -165.501 272.001c-15.333 20 -21.333 40.167 -18 60.5s12.333 39.166 27 56.499s33.5 32.5 56.5 45.5s46.5 22.167 70.5 27.5s47 5.83301 69 1.5s39.333 -14.833 52 -31.5c68 -90 125 -184.5 171 -283.5
s82.833 -196.833 110.5 -293.5s47.334 -189.667 59.001 -279s17.5 -170 17.5 -242c-0.666992 -109.333 -6.33398 -208.833 -17.001 -298.5s-25 -171.334 -43 -245.001s-38.833 -140.167 -62.5 -199.5s-48.667 -113 -75 -161s-53.166 -91.5 -80.499 -130.5l-78 -108.5
c-17.333 -22.667 -37.666 -35.5 -60.999 -38.5s-46.833 0.666992 -70.5 11s-46 25.5 -67 45.5s-38 41.333 -51 64s-20.667 44.834 -23 66.501s3.83398 39.167 18.501 52.5z" />
    <glyph glyph-name="asterisk" unicode="*" horiz-adv-x="1406" 
d="M570 1041l-72.0039 370.998c0 12.667 8.33301 23.667 25 33s37.5 16.5 62.5 21.5s52 8 81 9s56 -0.166992 81 -3.5s46 -9.33301 63 -18s25.5 -19.667 25.5 -33l-48 -398l308 288c12 7.33301 27.333 6.33301 46 -3s37.334 -23.666 56.001 -42.999s36.334 -42 53.001 -68
s29 -52 37 -78s10.333 -50 7 -72s-15 -39 -35 -51l-392 -141l338 -225c11.333 -8.66699 15.833 -23.334 13.5 -44.001s-9.33301 -43.334 -21 -68.001s-26.834 -49.167 -45.501 -73.5s-38.667 -44.833 -60 -61.5s-43 -27.5 -65 -32.5s-42 0.166992 -60 15.5l-175 309l54 -380
c0 -14 -8.66699 -26.667 -26 -38s-39.166 -20.166 -65.499 -26.499s-55 -10 -86 -11s-59.667 1.66699 -86 8s-48.166 16.5 -65.499 30.5s-26 32.667 -26 56l76 402l-256 -273c-11.333 -6.66699 -25.166 -5.16699 -41.499 4.5s-33 23.834 -50 42.501
s-33.5 40.334 -49.5 65.001s-28.833 48.667 -38.5 72s-15.167 44.333 -16.5 63s4 31.667 16 39l350 147l-364 185c-10 8 -13.333 21.333 -10 40s11 39.334 23 62.001s26.667 45.667 44 69s35.333 43.666 54 60.999s36.5 29.833 53.5 37.5s30.833 7.16699 41.5 -1.5z" />
    <glyph glyph-name="plus" unicode="+" horiz-adv-x="987" 
d="M301 677l-135.999 0.00292969c-12.667 0 -23.5 8.5 -32.5 25.5s-16 38.167 -21 63.5s-7.83301 52.666 -8.5 81.999s1 56.666 5 81.999s10.167 46.333 18.5 63s19.5 25 33.5 25l143 1l1 138c0 14 8.83301 26.5 26.5 37.5s39.5 19.5 65.5 25.5s54 9.33301 84 10
s57.833 -2.33301 83.5 -9s47 -17.167 64 -31.5s25.167 -33.166 24.5 -56.499l-2 -110l149 2c14 0 26.667 -8.66699 38 -26s20.166 -39 26.499 -65s10 -54 11 -84s-1.66699 -58 -8 -84s-16.5 -47.5 -30.5 -64.5s-32.667 -25.5 -56 -25.5h-136l-2 -158
c0 -12.667 -8.66699 -23.334 -26 -32.001s-38.5 -15.334 -63.5 -20.001s-52.333 -7.16699 -82 -7.5s-57 1.66699 -82 6s-45.833 10.833 -62.5 19.5s-25 20 -25 34v159z" />
    <glyph glyph-name="comma" unicode="," horiz-adv-x="577" 
d="M125 266c-7.33301 19.333 -6.49414 37.4971 2.50586 54.4971s22.5 32.333 40.5 46s39 24.834 63 33.501s47.667 14 71 16s44.5 0.333008 63.5 -5s32.833 -15.333 41.5 -30c30 -52 51.667 -102.167 65 -150.5s19 -96.333 17 -144s-11.833 -95.5 -29.5 -143.5
s-42.834 -97.667 -75.501 -149c-16 -24.667 -35.833 -42.167 -59.5 -52.5s-48.334 -15 -74.001 -14s-50.334 6.33301 -74.001 16s-43.334 22.334 -59.001 38.001s-25.834 33.334 -30.501 53.001s-0.333984 39.5 12.999 59.5c24 36.667 42 69.5 54 98.5s19.833 55 23.5 78
s3.83398 43.5 0.500977 61.5s-8 34.5 -14 49.5s-12.833 29.333 -20.5 43s-13.834 27.5 -18.501 41.5z" />
    <glyph glyph-name="hyphen" unicode="-" horiz-adv-x="968" 
d="M799 1025c14 0 26.668 -8.66504 38.001 -25.998s20.166 -39 26.499 -65s10 -54 11 -84s-1.66699 -58 -8 -84s-16.5 -47.5 -30.5 -64.5s-32.667 -25.5 -56 -25.5l-615 1c-12.667 0 -23.5 8.5 -32.5 25.5s-16 38.167 -21 63.5s-7.83301 52.666 -8.5 81.999
s1 56.666 5 81.999s10.167 46.333 18.5 63s19.5 25 33.5 25z" />
    <glyph glyph-name="period" unicode="." horiz-adv-x="547" 
d="M290 -9c-46 -1.33301 -84.1699 7.16406 -114.503 25.4971s-53.333 41.5 -69 69.5s-23.667 58.667 -24 92s6.83398 64.333 21.501 93s36.834 52.667 66.501 72s66.834 29 111.501 29c40.667 0 75 -9.16699 103 -27.5s49.5 -41.5 64.5 -69.5s23 -58.167 24 -90.5
s-5 -62.666 -18 -90.999s-33.167 -52.166 -60.5 -71.499s-62.333 -29.666 -105 -30.999z" />
    <glyph glyph-name="slash" unicode="/" horiz-adv-x="969" 
d="M393 -70c-4 -14 -15.9961 -23.665 -35.9961 -28.998s-43.5 -7.33301 -70.5 -6s-55.333 6.16602 -85 14.499s-56.334 19.166 -80.001 32.499s-41.834 29.166 -54.501 47.499s-15.334 38.833 -8.00098 61.5l534 1715c4 12 15.333 20 34 24s40.667 4.83301 66 2.5
s52.166 -7.16602 80.499 -14.499s54 -16.333 77 -27s41.167 -22.5 54.5 -35.5s18.333 -25.833 15 -38.5z" />
    <glyph glyph-name="zero" unicode="0" horiz-adv-x="1432" 
d="M738 -39c-91.333 -1.33301 -173.331 14.832 -245.998 48.499s-136.167 79.667 -190.5 138s-99.5 126.5 -135.5 204.5s-62.833 161 -80.5 249s-26.334 178.667 -26.001 272s9.66602 184 27.999 272s45.5 171.333 81.5 250s80.833 147.334 134.5 206.001s116 105 187 139
s150.833 51 239.5 51c84.667 0 160.834 -17.167 228.501 -51.5s126.667 -80.666 177 -138.999s92.333 -126.333 126 -204s59 -160.334 76 -248.001s25.333 -177.667 25 -270s-8.83301 -182.333 -25.5 -270s-41.667 -170.5 -75 -248.5s-75 -146.333 -125 -205
s-108.333 -105.5 -175 -140.5s-141.334 -52.833 -224.001 -53.5zM694.002 1437c-53.333 -4 -99.8311 -23.1738 -139.498 -57.5068s-72.834 -78.166 -99.501 -131.499s-46.334 -113.333 -59.001 -180s-18.667 -134.667 -18 -204s8.33398 -137.333 23.001 -204
s36 -126 64 -178s63 -94.333 105 -127s91 -50 147 -52c44 -1.33301 83.667 8.33398 119 29.001s66.5 49.334 93.5 86.001s49.5 79.667 67.5 129s31.667 101.833 41 157.5s14 112.834 14 171.501s-4.66699 115.667 -14 171s-23.333 107.333 -42 156
s-42.334 90.834 -71.001 126.501s-62.167 63.334 -100.5 83.001s-81.833 27.834 -130.5 24.501z" />
    <glyph glyph-name="one" unicode="1" horiz-adv-x="483" 
d="M416 35c0 -14 -8.66895 -26.668 -26.002 -38.001s-39.166 -20.166 -65.499 -26.499s-55 -10 -86 -11s-59.667 1.66699 -86 8s-48.166 16.5 -65.499 30.5s-26 32.667 -26 56l6 1666c0 12.667 8.33301 23.5 25 32.5s37.5 16.167 62.5 21.5s52 8.5 81 9.5
s56 -0.166992 81 -3.5s46 -9.33301 63 -18s25.5 -19.667 25.5 -33z" />
    <glyph glyph-name="two" unicode="2" horiz-adv-x="1355" 
d="M135 326c26 16 58.4971 38.834 97.4971 68.501s81.167 64.334 126.5 104.001s92.5 83.334 141.5 131.001s96.333 97.167 142 148.5s88.5 103.666 128.5 156.999s73.667 105.5 101 156.5s47.166 100 59.499 147s13.833 90.167 4.5 129.5
c-7.33301 32 -25.333 57.333 -54 76s-63 29.334 -103 32.001c-30.667 2 -63.834 -0.5 -99.501 -7.5s-69.5 -20.167 -101.5 -39.5s-60.167 -46.333 -84.5 -81s-40.166 -79 -47.499 -133c-3.33301 -22.667 -13.666 -41.167 -30.999 -55.5s-38.166 -24.833 -62.499 -31.5
s-50.166 -9.66699 -77.499 -9s-52.333 4.66699 -75 12s-41.167 18 -55.5 32s-20.833 30.667 -19.5 50c4.66699 64 18.334 122.5 41.001 175.5s51.334 100.667 86.001 143s74 79.166 118 110.499s90.167 57.333 138.5 78s97.333 35.667 147 45s97.5 13.333 143.5 12
c94 -3.33301 173.667 -18 239 -44s117.833 -60.167 157.5 -102.5s66.5 -91.166 80.5 -146.499s16.667 -114 8 -176c-10.667 -71.333 -33.334 -146.5 -68.001 -225.5s-80.167 -160.333 -136.5 -244s-122.833 -168.834 -199.5 -255.501s-162 -173 -256 -259l580 -3
c14 0 26.667 -8.66699 38 -26s20.166 -39 26.499 -65s10 -54 11 -84s-1.66699 -58 -8 -84s-16.5 -47.5 -30.5 -64.5s-32.667 -25.5 -56 -25.5l-1027 4c-15.333 0 -28.166 7.66699 -38.499 23s-18.333 34.666 -24 57.999s-9.16699 49 -10.5 77s-0.333008 55 3 81
s9 49.167 17 69.5s18 34.166 30 41.499z" />
    <glyph glyph-name="three" unicode="3" horiz-adv-x="1332" 
d="M455 1328c-1.33301 -10 -8.99805 -19.001 -22.998 -27.001s-31.333 -14.333 -52 -19s-42.834 -7.5 -66.501 -8.5s-45.5 0.5 -65.5 4.5s-37 10.667 -51 20s-21.333 22 -22 38c-2.66699 54 1.5 102.833 12.5 146.5s27.333 82.334 49 116.001s48.167 62.5 79.5 86.5
s65.833 43.667 103.5 59s77.667 26.333 120 33s85.833 9.33398 130.5 8.00098c65.333 -2 123.166 -12.333 173.499 -31s93.166 -43.667 128.499 -75s63.5 -67.833 84.5 -109.5s34.833 -86.167 41.5 -133.5c5.33301 -38.667 6 -78.667 2 -120s-14 -81.333 -30 -120
s-38.833 -74.667 -68.5 -108s-67.5 -61 -113.5 -83c58.667 -14.667 111 -37.5 157 -68.5s85 -68.833 117 -113.5s56 -95.167 72 -151.5s23.333 -117.166 22 -182.499c-1.33301 -61.333 -10.833 -117.333 -28.5 -168s-41.5 -96 -71.5 -136s-64.833 -74.667 -104.5 -104
s-82.167 -53.5 -127.5 -72.5s-92.5 -33 -141.5 -42s-97.167 -12.833 -144.5 -11.5c-48.667 1.33301 -96.667 7.83301 -144 19.5s-92.5 28.667 -135.5 51s-82.667 49.666 -119 81.999s-67.833 69.833 -94.5 112.5s-47.5 90.167 -62.5 142.5s-22.5 109.833 -22.5 172.5
c0 14 7.5 25.333 22.5 34s34 15 57 19s47.833 5.66699 74.5 5s51.5 -3.66699 74.5 -9s42.333 -13.166 58 -23.499s23.834 -22.833 24.501 -37.5c2 -33.333 9.5 -65.5 22.5 -96.5s31.5 -58.667 55.5 -83s53 -44 87 -59s72.667 -22.833 116 -23.5
c38.667 -0.666992 75 6.16602 109 20.499s63.5 33.5 88.5 57.5s44.167 51.833 57.5 83.5s19 64.167 17 97.5c-3.33301 47.333 -15.333 89.166 -36 125.499s-49 67 -85 92s-79.167 44.5 -129.5 58.5s-106.833 22.333 -169.5 25c-12 0.666992 -22.667 8.66699 -32 24
s-16.833 34.5 -22.5 57.5s-9.16699 47.667 -10.5 74s-0.166016 50.833 3.50098 73.5s10.167 41.334 19.5 56.001s21.666 22 36.999 22c61.333 -1.33301 113.833 7 157.5 25s78.667 40.667 105 68s44 57.333 53 90s9.16699 62.834 0.5 90.501s-26.167 50.667 -52.5 69
s-61.166 27.166 -104.499 26.499c-30.667 0 -57.834 -4.5 -81.501 -13.5s-44 -21.167 -61 -36.5s-30.667 -33.333 -41 -54s-16.833 -42.334 -19.5 -65.001z" />
    <glyph glyph-name="four" unicode="4" horiz-adv-x="1433" 
d="M420 718l405.992 -0.00292969l4 996c0 12.667 8.33301 23.5 25 32.5s37.5 16.167 62.5 21.5s52 8.5 81 9.5s56 -0.166992 81 -3.5s46 -9.33301 63 -18s25.5 -19.667 25.5 -33l6 -1005h117c14.667 0 27.334 -8.66699 38.001 -26s19.167 -39.333 25.5 -66
s9.66602 -55.334 9.99902 -86.001s-2.66699 -59.167 -9 -85.5s-16.666 -48.166 -30.999 -65.499s-33.166 -25.666 -56.499 -24.999l-91 1l2 -336c0 -14 -8.66699 -26.667 -26 -38s-39.166 -20.166 -65.499 -26.499s-55 -10 -86 -11s-59.667 1.66699 -86 8
s-48.166 16.5 -65.499 30.5s-26 32.667 -26 56l1 322l-486 7c-29.333 0.666992 -56.333 1.33398 -81 2.00098s-47.167 3.33398 -67.5 8.00098s-38.166 12.167 -53.499 22.5s-28.166 25 -38.499 44s-18.166 43.167 -23.499 72.5s-7.66602 65.666 -6.99902 108.999l13 990
c0 12.667 8.33301 23.667 25 33s37.5 16.5 62.5 21.5s52 8 81 9s56 -0.166992 81 -3.5s46 -9.33301 63 -18s25.5 -19.667 25.5 -33z" />
    <glyph glyph-name="five" unicode="5" horiz-adv-x="1327" 
d="M425 1431l6.99414 -328.002c94.667 18 180.834 22.833 258.501 14.5s147.167 -26.5 208.5 -54.5s114.333 -63.833 159 -107.5s81.667 -91.167 111 -142.5s51.166 -105 65.499 -161s21.5 -110.333 21.5 -163c0 -61.333 -8.66699 -117.333 -26 -168s-41 -96 -71 -136
s-65 -74.667 -105 -104s-82.833 -53.5 -128.5 -72.5s-93.167 -33 -142.5 -42s-97.666 -12.833 -144.999 -11.5c-48.667 1.33301 -96.667 7.83301 -144 19.5s-92.5 28.667 -135.5 51s-82.667 49.666 -119 81.999s-67.833 69.833 -94.5 112.5s-47.5 90.167 -62.5 142.5
s-22.5 109.833 -22.5 172.5c0 14 7.5 25.333 22.5 34s34 15 57 19s47.833 5.66699 74.5 5s51.5 -3.66699 74.5 -9s42.333 -13.166 58 -23.499s23.834 -22.833 24.501 -37.5c2 -33.333 9.5 -65.5 22.5 -96.5s31.5 -58.667 55.5 -83s53 -44 87 -59s72.667 -22.833 116 -23.5
c38.667 -0.666992 75 6.16602 109 20.499s63.5 33.5 88.5 57.5s44.167 51.833 57.5 83.5s19 64.167 17 97.5c-2.66699 42.667 -11.5 79.334 -26.5 110.001s-34.167 56.5 -57.5 77.5s-50.333 37.333 -81 49s-63.167 19.334 -97.5 23.001s-69.666 4 -105.999 1
s-72.166 -8.83301 -107.499 -17.5c-19.333 -4.66699 -41.5 -8.66699 -66.5 -12s-50.333 -4.66602 -76 -3.99902s-50.834 4.16699 -75.501 10.5s-46.667 16.833 -66 31.5s-35 34.334 -47 59.001s-18 55.667 -18 93l-3 631c0 40 6 72.833 18 98.5s28.833 46 50.5 61
s47.334 25.333 77.001 31s61.834 8.5 96.501 8.5h833c12.667 -0.666992 23.334 -9.5 32.001 -26.5s15.5 -38 20.5 -63s7.66699 -52.167 8 -81.5s-1.5 -56.333 -5.5 -81s-10.5 -45.334 -19.5 -62.001s-20.167 -24.667 -33.5 -24z" />
    <glyph glyph-name="six" unicode="6" horiz-adv-x="1373" 
d="M1003 520c4.66699 49.333 -2.99707 93.168 -22.9971 131.501s-47.333 69 -82 92s-74.334 37.5 -119.001 43.5s-89.167 1.16699 -133.5 -14.5s-86.333 -43 -126 -82s-71.834 -91.833 -96.501 -158.5c1.33301 -33.333 7.83301 -66 19.5 -98s28.5 -60.667 50.5 -86
s49.5 -46 82.5 -62s71.167 -24.333 114.5 -25c38.667 -0.666992 76.167 6.16602 112.5 20.499s68.833 33.5 97.5 57.5s52.167 51.833 70.5 83.5s29.166 64.167 32.499 97.5zM353.003 907.002c46.667 52.667 96.332 94.1641 148.999 124.497s105.834 51.333 159.501 63
s107 14.667 160 9s103.333 -18.5 151 -38.5s92 -46.5 133 -79.5s76.333 -70.833 106 -113.5s52.667 -89.5 69 -140.5s23.833 -104.833 22.5 -161.5c-2 -103.333 -19.667 -193.333 -53 -270s-76.5 -140 -129.5 -190s-113.5 -87.333 -181.5 -112s-138 -36.667 -210 -36
c-96.667 0.666992 -181.5 18.5 -254.5 53.5s-135.5 82 -187.5 141s-94.167 127.333 -126.5 205s-55.833 159.667 -70.5 246s-21.167 174.333 -19.5 264s10.167 175.834 25.5 258.501c18 98 46 187.833 84 269.5s86.5 151.334 145.5 209.001s128.5 100.834 208.5 129.501
s171 39 273 31c64 -5.33301 124 -20.666 180 -45.999s105.333 -58.333 148 -99s77.667 -87.667 105 -141s44.333 -110.333 51 -171c1.33301 -14.667 -4.16699 -28.334 -16.5 -41.001s-28.333 -23.834 -48 -33.501s-41.5 -17.167 -65.5 -22.5s-46.5 -8.16602 -67.5 -8.49902
s-38.833 2.33398 -53.5 8.00098s-23 15.167 -25 28.5c-4 27.333 -12 55 -24 83s-27.667 53.5 -47 76.5s-42.5 41.833 -69.5 56.5s-57.5 22 -91.5 22c-28 0 -58.333 -4.16699 -91 -12.5s-65.167 -21.833 -97.5 -40.5s-63.5 -42.834 -93.5 -72.501
s-56.167 -65.834 -78.5 -108.501s-40 -92.167 -53 -148.5s-18.5 -120.166 -16.5 -191.499z" />
    <glyph glyph-name="seven" unicode="7" horiz-adv-x="1251" 
d="M923 1767c29.333 0 57.999 -0.999023 85.999 -2.99902s53.667 -6.83301 77 -14.5s43.333 -18.5 60 -32.5s28.334 -33 35.001 -57s7.5 -53.333 2.5 -88s-17.833 -76.334 -38.5 -125.001l-632 -1502c-5.33301 -13.333 -18.166 -22 -38.499 -26s-44 -4 -71 0
s-54.833 11.333 -83.5 22s-54.167 23.667 -76.5 39s-39 32.833 -50 52.5s-11.833 40.5 -2.5 62.5l572 1322l-648 7c-12.667 0 -23.5 8.33301 -32.5 25s-16.167 37.5 -21.5 62.5s-8.5 52.167 -9.5 81.5s0.166992 56.5 3.5 81.5s9.16602 45.833 17.499 62.5s19.5 25 33.5 25z
" />
    <glyph glyph-name="eight" unicode="8" horiz-adv-x="1322" 
d="M1261 570c-0.666992 -82.667 -12.501 -157.005 -35.501 -223.005s-54 -123.5 -93 -172.5s-84.333 -89.667 -136 -122s-106.334 -56.666 -164.001 -72.999s-117 -24.666 -178 -24.999s-120.167 7.33398 -177.5 23.001s-111.5 39.167 -162.5 70.5s-95.5 70.333 -133.5 117
s-67.833 100.834 -89.5 162.501s-32.167 130.834 -31.5 207.501c0.666992 43.333 4.83398 86.166 12.501 128.499s20.834 83.833 39.501 124.5s43.167 79.834 73.5 117.501s68.5 73.5 114.5 107.5c-24 18.667 -44.833 39.5 -62.5 62.5s-32.5 47.167 -44.5 72.5
s-21.333 51 -28 77s-11 51.333 -13 76c-4 54 -0.166992 103.667 11.5 149s29.334 86.166 53.001 122.499s52.167 68 85.5 95s69.833 49.5 109.5 67.5s81.5 31.167 125.5 39.5s88.333 11.833 133 10.5c43.333 -1.33301 85.833 -7.16602 127.5 -17.499
s81.167 -24.833 118.5 -43.5s71.666 -41.667 102.999 -69s57.833 -58.5 79.5 -93.5s37.834 -74 48.501 -117s14 -89.5 10 -139.5c-2 -25.333 -6.16699 -51 -12.5 -77s-15 -52 -26 -78s-24.5 -51.333 -40.5 -76s-34.333 -47.667 -55 -69
c43.333 -26 80.166 -58.5 110.499 -97.5s55 -79.167 74 -120.5s32.667 -81.333 41 -120s12.5 -71 12.5 -97zM670.999 820.995c-48 1.33301 -90.998 -6.5 -128.998 -23.5s-69.833 -39.667 -95.5 -68s-45 -60.666 -58 -96.999s-18.833 -72.833 -17.5 -109.5
c1.33301 -33.333 8.5 -65.5 21.5 -96.5s31.5 -58.667 55.5 -83s53.167 -44 87.5 -59s73.166 -22.833 116.499 -23.5c38.667 -0.666992 74 6.16602 106 20.499s59.833 33.5 83.5 57.5s42.5 51.833 56.5 83.5s22.667 64.167 26 97.5
c3.33301 36 0.166016 71.833 -9.50098 107.5s-25.167 67.667 -46.5 96s-48.5 51.333 -81.5 69s-71.5 27.167 -115.5 28.5zM658.001 1497c-41.333 3.33301 -76.8311 -3.33008 -106.498 -19.9971s-52.667 -38.5 -69 -65.5s-25.833 -56.833 -28.5 -89.5
s2.16602 -63.334 14.499 -92.001s32.166 -52.667 59.499 -72s62.666 -29.333 105.999 -30c41.333 -0.666992 75.833 7.5 103.5 24.5s48.834 38.667 63.501 65s22.667 55.166 24 86.499s-4 60.666 -16 87.999s-30.667 50.833 -56 70.5s-57 31.167 -95 34.5z" />
    <glyph glyph-name="nine" unicode="9" horiz-adv-x="1388" 
d="M652 443c-77.333 0.666992 -147.166 13.8359 -209.499 39.5029s-116.833 60.167 -163.5 103.5s-85.667 93.666 -117 150.999s-54.833 118.333 -70.5 183s-23.5 131.167 -23.5 199.5s7.83301 134.666 23.5 198.999s39.167 125.166 70.5 182.499
s70.666 107.5 117.999 150.5s102.5 77.167 165.5 102.5s134.167 38 213.5 38c62.667 0 120.334 -7.33301 173.001 -22s101 -34.667 145 -60v35c0 13.333 8.33301 24 25 32s37.334 13.333 62.001 16s51.5 3 80.5 1s55.833 -6 80.5 -12s45.334 -13.833 62.001 -23.5
s25.334 -20.834 26.001 -33.501c0.666992 -13.333 1.16699 -37.333 1.5 -72s0.666016 -77.5 0.999023 -128.5s0.5 -108.5 0.5 -172.5s0.166992 -131.5 0.5 -202.5l1 -219c0.333008 -75 0.5 -149 0.5 -222s0.166992 -143.5 0.5 -211.5s0.666016 -130.667 0.999023 -188
s0.666016 -107.5 0.999023 -150.5s0.5 -76.167 0.5 -99.5c0.666992 -23.333 -7.83301 -42 -25.5 -56s-39.667 -24.167 -66 -30.5s-54.833 -9 -85.5 -8s-59.334 4.66699 -86.001 11s-48.667 15 -66 26s-26 23.833 -26 38.5l3 478c-44 -24 -92.167 -42.667 -144.5 -56
s-109.833 -19.666 -172.5 -18.999zM698 1453c-49.333 2.66699 -92.6699 -5 -130.003 -23s-68.666 -42.667 -93.999 -74s-44.666 -67.5 -57.999 -108.5s-20.666 -83 -21.999 -126s3.66699 -85.167 15 -126.5s28.833 -78.333 52.5 -111s53.5 -58.834 89.5 -78.501
s78.667 -29.5 128 -29.5c46 0 86.5 8.33301 121.5 25s64.667 38.667 89 66s43.5 58.833 57.5 94.5s22.667 72.834 26 111.501v72c-2.66699 38 -10.5 75 -23.5 111s-31 68.167 -54 96.5s-51 51.5 -84 69.5s-70.833 28.333 -113.5 31z" />
    <glyph glyph-name="colon" unicode=":" horiz-adv-x="633" 
d="M326 893c-46 -1.33301 -84.1699 7.16406 -114.503 25.4971s-53.333 41.5 -69 69.5s-23.667 58.667 -24 92s6.83398 64.333 21.501 93s36.834 52.667 66.501 72s66.834 29 111.501 29c40.667 0 75 -9.16699 103 -27.5s49.5 -41.5 64.5 -69.5s23 -58.167 24 -90.5
s-5 -62.666 -18 -90.999s-33.167 -52.166 -60.5 -71.499s-62.333 -29.666 -105 -30.999zM327.997 333.997c-46 -1.33301 -84.1699 7.16406 -114.503 25.4971s-53.333 41.5 -69 69.5s-23.667 58.667 -24 92s6.83398 64.333 21.501 93s36.834 52.667 66.501 72
s66.834 29 111.501 29c40.667 0 75 -9.16699 103 -27.5s49.5 -41.5 64.5 -69.5s23 -58.167 24 -90.5s-5 -62.666 -18 -90.999s-33.167 -52.166 -60.5 -71.499s-62.333 -29.666 -105 -30.999z" />
    <glyph glyph-name="semicolon" unicode=";" horiz-adv-x="661" 
d="M203 266c-7.33301 19.333 -6.49414 37.4971 2.50586 54.4971s22.5 32.333 40.5 46s39 24.834 63 33.501s47.667 14 71 16s44.5 0.333008 63.5 -5s32.833 -15.333 41.5 -30c30 -52 51.667 -102.167 65 -150.5s19 -96.333 17 -144s-11.833 -95.5 -29.5 -143.5
s-42.834 -97.667 -75.501 -149c-16 -24.667 -35.833 -42.167 -59.5 -52.5s-48.334 -15 -74.001 -14s-50.334 6.33301 -74.001 16s-43.334 22.334 -59.001 38.001s-25.834 33.334 -30.501 53.001s-0.333984 39.5 12.999 59.5c24 36.667 42 69.5 54 98.5s19.833 55 23.5 78
s3.83398 43.5 0.500977 61.5s-8 34.5 -14 49.5s-12.833 29.333 -20.5 43s-13.834 27.5 -18.501 41.5zM349.006 509.997c-46 -1.33301 -84.1699 7.16406 -114.503 25.4971s-53.333 41.5 -69 69.5s-23.667 58.667 -24 92s6.83398 64.333 21.501 93s36.834 52.667 66.501 72
s66.834 29 111.501 29c40.667 0 75 -9.16699 103 -27.5s49.5 -41.5 64.5 -69.5s23 -58.167 24 -90.5s-5 -62.666 -18 -90.999s-33.167 -52.166 -60.5 -71.499s-62.333 -29.666 -105 -30.999z" />
    <glyph glyph-name="less" unicode="&#x3c;" horiz-adv-x="1161" 
d="M585 809l421.998 -233.003c12 -6 18.833 -18.333 20.5 -37s-0.5 -40.167 -6.5 -64.5s-14.833 -49.666 -26.5 -75.999s-24.334 -49.666 -38.001 -69.999s-27.667 -36.166 -42 -47.499s-27.166 -14.333 -38.499 -9l-703 364c-9.33301 4.66699 -17 15.5 -23 32.5
s-10.5 36.833 -13.5 59.5s-4.16699 47 -3.5 73s2.83398 50.5 6.50098 73.5s8.83398 42.833 15.501 59.5s14.667 27.667 24 33l714 370c11.333 5.33301 24.166 2.5 38.499 -8.5s28.333 -26.833 42 -47.5s26.334 -44 38.001 -70s20.5 -51.167 26.5 -75.5s8.16699 -46 6.5 -65
s-8.5 -31.5 -20.5 -37.5z" />
    <glyph glyph-name="equal" unicode="=" horiz-adv-x="1001" 
d="M809 1188c14 0 26.668 -8.66504 38.001 -25.998s20.166 -39 26.499 -65s10 -54 11 -84s-1.66699 -58 -8 -84s-16.5 -47.5 -30.5 -64.5s-32.667 -25.5 -56 -25.5l-615 1c-12.667 0 -23.5 8.5 -32.5 25.5s-16 38.167 -21 63.5s-7.83301 52.666 -8.5 81.999
s1 56.666 5 81.999s10.167 46.333 18.5 63s19.5 25 33.5 25zM809.001 739.002c14 0 26.668 -8.66504 38.001 -25.998s20.166 -39 26.499 -65s10 -54 11 -84s-1.66699 -58 -8 -84s-16.5 -47.5 -30.5 -64.5s-32.667 -25.5 -56 -25.5l-615 1c-12.667 0 -23.5 8.5 -32.5 25.5
s-16 38.167 -21 63.5s-7.83301 52.666 -8.5 81.999s1 56.666 5 81.999s10.167 46.333 18.5 63s19.5 25 33.5 25z" />
    <glyph glyph-name="greater" unicode="&#x3e;" horiz-adv-x="1139" 
d="M146 1033c-12 6 -18.835 18.5029 -20.502 37.5029s0.5 40.667 6.5 65s14.833 49.5 26.5 75.5s24.334 49.333 38.001 70s27.667 36.5 42 47.5s27.166 13.833 38.499 8.5l714 -370c9.33301 -4.66699 17.333 -15.5 24 -32.5s11.834 -37 15.501 -60
s5.83398 -47.5 6.50098 -73.5s-0.5 -50.333 -3.5 -73s-7.5 -42.5 -13.5 -59.5s-13.667 -27.833 -23 -32.5l-703 -364c-11.333 -5.33301 -24.166 -2.33301 -38.499 9s-28.333 27.166 -42 47.499s-26.334 43.666 -38.001 69.999s-20.5 51.666 -26.5 75.999
s-8.16699 45.833 -6.5 64.5s8.5 31 20.5 37l422 233z" />
    <glyph glyph-name="question" unicode="?" horiz-adv-x="1340" 
d="M435 786c-0.666992 26 2.50098 47.3291 9.50098 63.9961s16.667 30.167 29 40.5s27 18 44 23s35.5 8.83301 55.5 11.5c52.667 6 100 16.833 142 32.5s78 35.834 108 60.501s53.667 54 71 88s27.333 72.333 30 115c2 33.333 -3.66699 65.833 -17 97.5
s-32.5 59.5 -57.5 83.5s-54.5 43.167 -88.5 57.5s-70.333 21.166 -109 20.499c-43.333 -0.666992 -82 -8.5 -116 -23.5s-63 -34.667 -87 -59s-42.5 -52.166 -55.5 -83.499s-20.5 -63.333 -22.5 -96c-0.666992 -14.667 -8.83398 -27.167 -24.501 -37.5
s-35 -18.166 -58 -23.499s-47.833 -8.33301 -74.5 -9s-51.5 1 -74.5 5s-42 10.333 -57 19s-22.5 20 -22.5 34c0 62.667 7.5 120.167 22.5 172.5s35.833 99.833 62.5 142.5s58.167 80.167 94.5 112.5s76 59.666 119 81.999s88.167 39.333 135.5 51s95.333 18.167 144 19.5
c47.333 1.33301 95.5 -2.5 144.5 -11.5s96.167 -23 141.5 -42s87.833 -43.167 127.5 -72.5s74.5 -64 104.5 -104s53.833 -85.333 71.5 -136s27.167 -106.667 28.5 -168c1.33301 -65.333 -7.66699 -129 -27 -191s-49.666 -118.833 -90.999 -170.5
s-93.833 -96.5 -157.5 -134.5s-139.5 -65.667 -227.5 -83l4 -191c-0.666992 -16.667 -8.83398 -30.667 -24.501 -42s-35 -19.666 -58 -24.999s-48 -7.66602 -75 -6.99902s-52 4.33398 -75 11.001s-42.167 16.5 -57.5 29.5s-23.333 29.5 -24 49.5zM602.001 362.996
c46 1.33301 84.1699 -7.16406 114.503 -25.4971s53.333 -41.5 69 -69.5s23.667 -58.667 24 -92s-6.83398 -64.333 -21.501 -93s-36.834 -52.667 -66.501 -72s-66.834 -29 -111.501 -29c-40.667 0 -75 9.16699 -103 27.5s-49.5 41.5 -64.5 69.5s-23 58.167 -24 90.5
s5 62.666 18 90.999s33.167 52.166 60.5 71.499s62.333 29.666 105 30.999z" />
    <glyph glyph-name="at" unicode="@" horiz-adv-x="1911" 
d="M1373 629c0 -38.667 4.84082 -63.999 14.5078 -75.999s21 -15.833 34 -11.5s26.667 14.333 41 30s26.166 31.834 35.499 48.501c18 32 33 67.333 45 106s19.667 79 23 121s2.16602 84.667 -3.50098 128s-17.167 85.333 -34.5 126s-41 79 -71 115s-67.333 67.667 -112 95
s-97.334 49.666 -158.001 66.999s-130.334 27.333 -209.001 30c-64 2.66699 -123.5 -4.66602 -178.5 -21.999s-105 -42 -150 -74s-85.333 -70.167 -121 -114.5s-66 -92.5 -91 -144.5s-44.667 -106.667 -59 -164s-23.166 -115 -26.499 -173
c-7.33301 -129.333 4.16699 -240 34.5 -332s74.333 -167.5 132 -226.5s126.834 -102.5 207.501 -130.5s167.667 -43 261 -45c38.667 -0.666992 78.667 3.33301 120 12s82.166 22 122.499 40s79.166 40.5 116.499 67.5s71 58.167 101 93.5c13.333 16 29 25.667 47 29
s36 2.5 54 -2.5s35.333 -13.167 52 -24.5s30.667 -24.166 42 -38.499s19 -29 23 -44s2.66699 -28.5 -4 -40.5c-33.333 -56.667 -75.833 -106.667 -127.5 -150s-108 -79.5 -169 -108.5s-124.167 -50.833 -189.5 -65.5s-128 -21.667 -188 -21
c-91.333 1.33301 -178 13.333 -260 36s-157.5 54.5 -226.5 95.5s-130.667 90.333 -185 148s-100 122.167 -137 193.5s-64.333 148.666 -82 231.999s-24.167 171.333 -19.5 264c4 84 15 165.667 33 245s43.5 154.166 76.5 224.499s74.167 134.833 123.5 193.5
s107.666 109.167 174.999 151.5s143.833 75.166 229.5 98.499s181.834 35.333 288.501 36c95.333 0 183.333 -12 264 -36s153.167 -57 217.5 -99s120 -91.833 167 -149.5s84.333 -119.667 112 -186s45.5 -135.833 53.5 -208.5s5.33301 -145.5 -8 -218.5
s-38.166 -144.333 -74.499 -214s-84.5 -134.834 -144.5 -195.501c-12 -12 -28.833 -23.167 -50.5 -33.5s-45.667 -18.333 -72 -24s-53.833 -7.66699 -82.5 -6s-55.834 8.83398 -81.501 21.501s-48.5 31.834 -68.5 57.501s-34.667 59.834 -44 102.501
c-1.33301 6.66699 -2.5 13.667 -3.5 21s-2.16699 15 -3.5 23c-18.667 -34 -39.5 -62.833 -62.5 -86.5s-46.333 -43 -70 -58s-46.167 -25.833 -67.5 -32.5s-39.333 -10 -54 -10c-64 -0.666992 -119.5 10.833 -166.5 34.5s-86 54.834 -117 93.501s-54.5 82.5 -70.5 131.5
s-25 98.833 -27 149.5c-2 54 4.66699 107.167 20 159.5s39 99.166 71 140.499s72.667 74.666 122 99.999s107 38 173 38c32 -0.666992 61.833 -4.33398 89.5 -11.001s53.5 -16.334 77.5 -29.001v18c0.666992 8 7.16699 14.833 19.5 20.5s27.666 10.334 45.999 14.001
s38.166 6.16699 59.499 7.5s41.166 1 59.499 -1s33.666 -5.5 45.999 -10.5s18.5 -11.5 18.5 -19.5zM925.008 888.001c-18 -0.666992 -34.334 -5.16699 -49.001 -13.5s-27 -19.666 -37 -33.999s-17.667 -31.333 -23 -51s-7.66602 -40.834 -6.99902 -63.501
c0.666992 -16 3.5 -33 8.5 -51s12.167 -34.667 21.5 -50s21.333 -28.166 36 -38.499s32 -15.5 52 -15.5c22 0 41.5 5 58.5 15s31.167 23.167 42.5 39.5s20 34.5 26 54.5s9 40 9 60c0 19.333 -3 38.166 -9 56.499s-15 34.5 -27 48.5s-26.5 25 -43.5 33s-36.5 11.333 -58.5 10
z" />
    <glyph glyph-name="A" unicode="A" horiz-adv-x="1661" 
d="M1130 372l-593.998 4l-139 -377c-4.66699 -12.667 -16.667 -21.5 -36 -26.5s-41.833 -6.5 -67.5 -4.5s-52.5 7.16699 -80.5 15.5s-52.833 19.333 -74.5 33s-38.334 29.5 -50.001 47.5s-13.834 37.667 -6.50098 59c4 12.667 11.833 35.667 23.5 69l44 123l59.5 165
l69.5 194l75.5 210l77 212.5l73 202l64.5 179.5l51.5 143.5l33 94.5c4.66699 13.333 15.5 24.166 32.5 32.499s37.167 14.5 60.5 18.5s48.333 5.83301 75 5.5s51.667 -2.66602 75 -6.99902s43.666 -10.5 60.999 -18.5s28.333 -17.333 33 -28
c12 -26.667 29 -68.167 51 -124.5l76 -197.5l92 -245.5l98.5 -266.5l96.5 -262.5l84.5 -233l63 -177l33.5 -95.5c6.66699 -21.333 4.33398 -41 -6.99902 -59s-27.833 -33.833 -49.5 -47.5s-46.5 -24.667 -74.5 -33s-54.833 -13.5 -80.5 -15.5s-48.167 -0.5 -67.5 4.5
s-31.333 13.833 -36 26.5zM661.002 715l344 -1l-172 469z" />
    <glyph glyph-name="B" unicode="B" horiz-adv-x="1399" 
d="M419 -31c-61.333 1.33301 -113.171 4.49609 -155.504 9.49609s-76.833 13.333 -103.5 25s-45.834 27.334 -57.501 47.001s-17.167 44.834 -16.5 75.501l-1 1263c0.666992 66.667 3 124.334 7 173.001s11.667 89.167 23 121.5s27.5 57 48.5 74s48.5 27.5 82.5 31.5
c26 3.33301 52 5.83301 78 7.5s52.333 3.16699 79 4.5c76 4 150.333 4.16699 223 0.5s141.334 -12.5 206.001 -26.5s123.834 -33.833 177.501 -59.5s99.834 -58.834 138.501 -99.501s68.167 -89.334 88.5 -146.001s29.5 -123 27.5 -199
c-2.66699 -83.333 -21 -154.5 -55 -213.5s-78 -108.167 -132 -147.5c31.333 -20.667 61.166 -43.667 89.499 -69s53 -53.666 74 -84.999s37.5 -65.666 49.5 -102.999s17.667 -78 17 -122c-1.33301 -72 -12.666 -135.167 -33.999 -189.5s-49.333 -101.5 -84 -141.5
s-74.667 -73.5 -120 -100.5s-92.666 -49.167 -141.999 -66.5s-99.333 -30.5 -150 -39.5s-98.667 -15.333 -144 -19s-86.666 -5.66699 -123.999 -6s-67.333 -0.166016 -90 0.500977zM429.995 297.996c15.333 -2.66699 39.1641 -4.5 71.4971 -5.5s68.333 0.166992 108 3.5
s80.334 9.83301 122.001 19.5s79.167 23.834 112.5 42.501s59.833 42.5 79.5 71.5s27.834 65.167 24.501 108.5c-2.66699 34.667 -13 64.5 -31 89.5s-41 45.833 -69 62.5s-59.667 29.667 -95 39s-71.666 15.666 -108.999 18.999s-74.5 4 -111.5 2
s-71.167 -5.33301 -102.5 -10v-442zM429.993 1064c26.667 -3.33301 58.001 -4.83203 94.001 -4.49902s73.333 2.66602 112 6.99902s76.667 11.5 114 21.5s70.5 23.5 99.5 40.5s52 37.667 69 62s24.5 53.5 22.5 87.5c-2 32.667 -11.333 61.167 -28 85.5
s-38.334 45 -65.001 62s-57 30.5 -91 40.5s-69.667 17.333 -107 22s-74.833 6.5 -112.5 5.5s-73.5 -3.83301 -107.5 -8.5v-421z" />
    <glyph glyph-name="C" unicode="C" horiz-adv-x="1383" 
d="M1046 431c12.667 16 29.5049 24.333 50.5049 25s43 -4 66 -14s45.667 -23.833 68 -41.5s41.333 -36.5 57 -56.5s26.5 -39.667 32.5 -59s4.33301 -36 -5 -50c-26 -37.333 -58.667 -72.833 -98 -106.5s-82.833 -63.167 -130.5 -88.5s-98.334 -45.833 -152.001 -61.5
s-107.834 -23.834 -162.501 -24.501c-82.667 -1.33301 -157.834 9.16699 -225.501 31.5s-127.667 54 -180 95s-97.666 90.167 -135.999 147.5s-69.666 120.666 -93.999 189.999s-42.333 143.5 -54 222.5s-16.834 160.167 -15.501 243.5c1.33301 91.333 10.333 177 27 257
s40.167 153.667 70.5 221s67.166 127.333 110.499 180s91.666 97.334 144.999 134.001s111.5 64.667 174.5 84s129.833 29 200.5 29c58 0 113.833 -6.83301 167.5 -20.5s103 -33.667 148 -60s84.167 -58.666 117.5 -96.999s58.666 -82.5 75.999 -132.5
c5.33301 -16 2.66602 -32.667 -8.00098 -50s-25.834 -33.5 -45.501 -48.5s-42.167 -28.333 -67.5 -40s-50 -20.167 -74 -25.5s-45.667 -6.66602 -65 -3.99902s-32.666 10.667 -39.999 24c-22 39.333 -53 69.5 -93 90.5s-91.667 29.167 -155 24.5
c-46 -3.33301 -90.833 -18.333 -134.5 -45s-82.834 -63.667 -117.501 -111s-63 -104.5 -85 -171.5s-35 -142.833 -39 -227.5c-4.66699 -103.333 2.5 -193.333 21.5 -270s45.833 -140.334 80.5 -191.001s74.834 -88.667 120.501 -114s93.167 -38 142.5 -38
c26.667 0 54.834 4.5 84.501 13.5s58.167 20.667 85.5 35s52.5 30.333 75.5 48s41.5 35.167 55.5 52.5z" />
    <glyph glyph-name="D" unicode="D" horiz-adv-x="1404" 
d="M1325 897c2 -81.333 -5.33496 -160.668 -22.002 -238.001s-42.667 -150.166 -78 -218.499s-79.666 -131 -132.999 -188s-115.666 -106 -186.999 -147s-151.333 -72.5 -240 -94.5s-185.667 -32.333 -291 -31c-44.667 0.666992 -85.167 3.66699 -121.5 9
s-67.5 14.5 -93.5 27.5s-46 30.667 -60 53s-21 50.833 -21 85.5v169.5c0 63.667 0.166992 131.334 0.5 203.001l1 222l1 226.5l1 217.5c0.333008 70.333 0.666016 135.166 0.999023 194.499s0.666016 111.5 0.999023 156.5s0.5 79.833 0.5 104.5c0 15.333 5.5 30 16.5 44
s28.5 26.167 52.5 36.5s54.833 18 92.5 23s82.834 6.16699 135.501 3.5c83.333 -4.66699 164 -15.834 242 -33.501s151.5 -42.5 220.5 -74.5s132.333 -71.167 190 -117.5s107.667 -100.666 150 -162.999s75.833 -132.5 100.5 -210.5s38.334 -164.667 41.001 -260z
M1015 824.998c1.33301 81.333 -8.50293 156.167 -29.5029 224.5s-55.333 128 -103 179s-110 92.167 -187 123.5s-170.833 51 -281.5 59l7 -1129c88.667 6 169.334 24.167 242.001 54.5s134.834 69.833 186.501 118.5s91.834 104.5 120.501 167.5s43.667 130.5 45 202.5z" />
    <glyph glyph-name="E" unicode="E" horiz-adv-x="1210" 
d="M412 1033l585.001 1.99902c14 0 26.667 -8.83301 38 -26.5s20.166 -39.667 26.499 -66s10 -54.833 11 -85.5s-1.66699 -59.167 -8 -85.5s-16.5 -48.333 -30.5 -66s-32.667 -26.167 -56 -25.5l-565 6l1 -366h653c14 0 26.667 -8.5 38 -25.5s20.166 -38.333 26.499 -64
s10 -53.334 11 -83.001s-1.66699 -57.167 -8 -82.5s-16.5 -46.5 -30.5 -63.5s-32.667 -25.167 -56 -24.5c-44 0.666992 -94.167 1 -150.5 1h-177.5c-62 0 -125 -0.166992 -189 -0.5s-125.667 -0.5 -185 -0.5c-50.667 0 -93 2.5 -127 7.5s-61.5 12.833 -82.5 23.5
s-36.667 24.834 -47 42.501s-17.5 39.167 -21.5 64.5s-6 54.833 -6 88.5v115.5l-3 1126v115.5c0 33.667 2 63.167 6 88.5s11.167 46.833 21.5 64.5s26 31.834 47 42.501s48.333 18.5 82 23.5s76.167 7.5 127.5 7.5c59.333 0 121 -0.166992 185 -0.5s127 -0.5 189 -0.5h177.5
c56.333 0 106.5 0.333008 150.5 1c23.333 0 42 -8.5 56 -25.5s24.167 -38.333 30.5 -64s9 -53.667 8 -84s-4.66699 -58.5 -11 -84.5s-15.166 -47.667 -26.499 -65s-24 -26 -38 -26h-653z" />
    <glyph glyph-name="F" unicode="F" horiz-adv-x="1220" 
d="M430 1033l532 1.99805c14 0 26.667 -8.83301 38 -26.5s20.166 -39.667 26.499 -66s10 -54.833 11 -85.5s-1.66699 -59.167 -8 -85.5s-16.5 -48.333 -30.5 -66s-32.667 -26.167 -56 -25.5l-512 6l1 -649c0 -12.667 -8.66699 -24.167 -26 -34.5s-39 -18.666 -65 -24.999
s-54.333 -10.5 -85 -12.5s-59 -1 -85 3s-47.667 11.5 -65 22.5s-26 26.167 -26 45.5l-3 1409v115.5c0 33.667 2 63.167 6 88.5s11.167 46.833 21.5 64.5s26 31.834 47 42.501s48.333 18.5 82 23.5s76.167 7.5 127.5 7.5c59.333 0 121 -0.166992 185 -0.5s127 -0.5 189 -0.5
h177.5c56.333 0 106.5 0.333008 150.5 1c23.333 0 42 -8.5 56 -25.5s24.167 -38.333 30.5 -64s9 -53.667 8 -84s-4.66699 -58.5 -11 -84.5s-15.166 -47.667 -26.499 -65s-24 -26 -38 -26h-653z" />
    <glyph glyph-name="G" unicode="G" horiz-adv-x="1434" 
d="M1218 1013c29.333 0 53.8311 -7.16797 73.498 -21.501s35.334 -33 47.001 -56s20.167 -48.667 25.5 -77s8.83301 -56.333 10.5 -84s1.83398 -53.167 0.500977 -76.5s-2.33301 -41.666 -3 -54.999c-9.33301 -114 -29.5 -213.5 -60.5 -298.5s-71.5 -156 -121.5 -213
s-108.833 -100.167 -176.5 -129.5s-142.5 -45 -224.5 -47c-82.667 -2 -157.834 8 -225.501 30s-128.167 53.333 -181.5 94s-99.333 89.5 -138 146.5s-70.667 120 -96 189s-44.166 142.833 -56.499 221.5s-18.5 159.667 -18.5 243c0 136.667 17.5 260.834 52.5 372.501
s84.167 207.334 147.5 287.001s138.833 141.167 226.5 184.5s184.5 65.333 290.5 66c58 0 114 -6.5 168 -19.5s103.5 -32.5 148.5 -58.5s84.5 -58 118.5 -96s60 -82 78 -132c6 -16 3.66699 -32.667 -7 -50s-25.834 -33.666 -45.501 -48.999s-42 -28.833 -67 -40.5
s-49.5 -20.167 -73.5 -25.5s-45.667 -6.83301 -65 -4.5s-32.666 10.166 -39.999 23.499c-22.667 40 -54 70.167 -94 90.5s-92 27.833 -156 22.5c-46 -4 -90.667 -19.333 -134 -46s-82 -63.834 -116 -111.501s-61.667 -105.167 -83 -172.5s-33.333 -143.333 -36 -228
c-3.33301 -103.333 5 -193 25 -269s47.5 -139.167 82.5 -189.5s75.5 -88 121.5 -113s93.667 -37.833 143 -38.5c40 -0.666992 76.167 6.5 108.5 21.5s59.833 38.833 82.5 71.5s40.667 74.667 54 126s21 112.666 23 183.999l-329 1c-12.667 0 -23.667 8 -33 24
s-16.833 36 -22.5 60s-9.16699 49.833 -10.5 77.5s-0.333008 53.5 3 77.5s9 44 17 60s19 24 33 24z" />
    <glyph glyph-name="H" unicode="H" horiz-adv-x="1439" 
d="M1367 45c0 -14 -8.66211 -26.6689 -25.9951 -38.002s-39.333 -20.166 -66 -26.499s-55.334 -10 -86.001 -11s-59.167 1.66699 -85.5 8s-48.333 16.5 -66 30.5s-26.167 32.667 -25.5 56c0 22.667 0.166992 55.5 0.5 98.5s0.666016 93 0.999023 150s0.5 119.333 0.5 187
v210.5c-45.333 0 -92.5 0.166992 -141.5 0.5l-150.5 1l-155.5 1c-52.333 0.333008 -104.166 0.833008 -155.499 1.5l5 -679c0 -14 -8.66699 -26.667 -26 -38s-39.333 -20.166 -66 -26.499s-55.334 -10 -86.001 -11s-59.167 1.66699 -85.5 8s-48.333 16.5 -66 30.5
s-26.167 32.667 -25.5 56c0 23.333 0.166992 56.5 0.5 99.5s0.666016 93.167 0.999023 150.5s0.5 120 0.5 188v211.5c0 73 0.166992 147 0.5 222s0.5 148 0.5 219s0.166992 138.5 0.5 202.5s0.5 121.5 0.5 172.5s0.166992 93.833 0.5 128.5s0.833008 58.667 1.5 72
c0 12.667 8.5 23.5 25.5 32.5s38 16.167 63 21.5s52 8.5 81 9.5s56 -0.166992 81 -3.5s45.833 -9.33301 62.5 -18s25 -19.667 25 -33l4 -670l605 1c0 80.667 0.166992 158.167 0.5 232.5s0.666016 141.5 0.999023 201.5s0.666016 110.667 0.999023 152
s0.833008 69.333 1.5 84c0 12.667 8.5 23.667 25.5 33s38 16.5 63 21.5s52 8 81 9s56 -0.166992 81 -3.5s45.833 -9.33301 62.5 -18s25 -19.667 25 -33z" />
    <glyph glyph-name="I" unicode="I" horiz-adv-x="1165" 
d="M140 -10c-14 0 -26.667 8.66699 -38 26s-20.166 39 -26.499 65s-10 54 -11 84s1.66699 58 8 84s16.5 47.5 30.5 64.5s32.667 25.5 56 25.5l241 -1v166.5v185.5c0 64 0.166992 128.667 0.5 194s0.5 129.333 0.5 192v180.5v159.5l-278 2c-12.667 0 -23.5 8.5 -32.5 25.5
s-16 38.167 -21 63.5s-7.83301 52.666 -8.5 81.999s1 56.666 5 81.999s10.167 46.333 18.5 63s19.5 25 33.5 25l912 3c14 0 26.667 -8.66699 38 -26s20.166 -39 26.499 -65s10 -54 11 -84s-1.66699 -58 -8 -84s-16.5 -47.5 -30.5 -64.5s-32.667 -25.5 -56 -25.5l-263 1
l5 -1078l296 -2c12.667 0 23.5 -8.5 32.5 -25.5s16 -38.167 21 -63.5s7.83301 -52.666 8.5 -81.999s-1 -56.666 -5 -81.999s-10.333 -46.333 -19 -63s-19.667 -25 -33 -25z" />
    <glyph glyph-name="J" unicode="J" horiz-adv-x="1100" 
d="M1014 1673c2.66699 -81.333 5.16895 -161.997 7.50195 -241.997s4.16602 -156.333 5.49902 -229s2 -140.5 2 -203.5s-0.666992 -117.833 -2 -164.5c-3.33301 -130 -12.833 -245.333 -28.5 -346s-41.5 -187.334 -77.5 -260.001
c-39.333 -78.667 -93.5 -139.167 -162.5 -181.5s-157.833 -65.5 -266.5 -69.5c-34 -1.33301 -70.333 1.33398 -109 8.00098s-75.667 16 -111 28s-67.333 26.667 -96 44s-50 36 -64 56c-11.333 16.667 -17.666 36.5 -18.999 59.5s1.16699 46.333 7.5 70
s15.666 46.167 27.999 67.5s26.666 38.666 42.999 51.999s34.166 21.166 53.499 23.499s38.666 -3.5 57.999 -17.5c13.333 -9.33301 26.333 -17.5 39 -24.5s25.334 -12.833 38.001 -17.5c36.667 -14 70.334 -20.333 101.001 -19s58.167 9.16602 82.5 23.499
s45 35.166 62 62.499s30.167 60 39.5 98c11.333 46 19.166 99 23.499 159s7.5 125.333 9.5 196c1.33301 44 1.83301 96.667 1.5 158s-1.33301 128.833 -3 202.5s-4 152.167 -7 235.5s-6.5 169 -10.5 257c-0.666992 14 7.5 26.5 24.5 37.5s38.5 19.5 64.5 25.5
s54.333 9.16699 85 9.5s59.334 -3 86.001 -10s49 -17.667 67 -32s27.333 -33.166 28 -56.499z" />
    <glyph glyph-name="K" unicode="K" horiz-adv-x="1429" 
d="M448 1129l636.005 630.999c10 10 24.333 12.833 43 8.5s38.667 -13.333 60 -27s42 -31 62 -52s36.167 -43 48.5 -66s19.166 -45.667 20.499 -68s-6.33398 -41.833 -23.001 -58.5l-600 -574l671 -681c10 -10 12.667 -25.167 8 -45.5s-14.334 -42 -29.001 -65
s-32.667 -45.5 -54 -67.5s-43.5 -40 -66.5 -54s-45.833 -22.167 -68.5 -24.5s-42 5.16699 -58 22.5l-647 669l3 -646c0 -14 -8.66699 -26.667 -26 -38s-39.333 -20.166 -66 -26.499s-55.334 -10 -86.001 -11s-59.167 1.66699 -85.5 8s-48.333 16.5 -66 30.5
s-26.167 32.667 -25.5 56c0 23.333 0.166992 56.5 0.5 99.5s0.666016 93.167 0.999023 150.5s0.5 120 0.5 188v212c0 73.333 0.166992 147.5 0.5 222.5s0.5 148 0.5 219s0.166992 138.5 0.5 202.5s0.5 121.5 0.5 172.5s0.166992 94 0.5 129s0.833008 59.167 1.5 72.5
c0 12.667 8.5 23.667 25.5 33s38 16.5 63 21.5s52 8 81 9s56 -0.166992 81 -3.5s45.833 -9.33301 62.5 -18s25 -19.667 25 -33z" />
    <glyph glyph-name="L" unicode="L" horiz-adv-x="1120" 
d="M414 320l572.002 12c14 0 26.667 -8.83301 38 -26.5s20.166 -39.667 26.499 -66s10 -54.833 11 -85.5s-1.66699 -59.167 -8 -85.5s-16.5 -48.333 -30.5 -66s-32.667 -26.167 -56 -25.5c-88.667 1.33301 -184.334 1.66602 -287.001 0.999023s-214 -1 -334 -1
c-50.667 0 -93 2.5 -127 7.5s-61.5 12.833 -82.5 23.5s-36.667 24.834 -47 42.501s-17.5 39.167 -21.5 64.5s-6 54.833 -6 88.5v115.5v185.5c0 67 0.166992 136.167 0.5 207.5s0.5 143.333 0.5 216s0.166992 143.5 0.5 212.5s0.5 134.333 0.5 196
s0.166992 117.167 0.5 166.5s0.666016 91 0.999023 125s0.833008 57.333 1.5 70s9.33398 23.667 26.001 33s37.5 16.5 62.5 21.5s52 8 81 9s56 -0.166992 81 -3.5s45.833 -9.33301 62.5 -18s25 -19.667 25 -33z" />
    <glyph glyph-name="M" unicode="M" horiz-adv-x="2135" 
d="M624 1730l1.50195 -2.99902c1 -2 3.33301 -7.66699 7 -17l17 -43l32.5 -81l53 -132l78.5 -195l109 -269.5l144.5 -356.5l146 359.5l109.5 271l79 195l53 131l32 80l17 42l6.5 16l1 2.5c4.66699 11.333 16 20.833 34 28.5s39.167 13.334 63.5 17.001
s50 5.33398 77 5.00098s52 -2.5 75 -6.5s42.333 -10 58 -18s24.5 -17.667 26.5 -29c2 -12.667 5.33301 -36.334 10 -71.001l16.5 -127l22 -169l25.5 -198.5l27.5 -214.5l28.5 -217.5l26.5 -208l23.5 -184.5l19.5 -148c5.66699 -42.667 10.167 -75.334 13.5 -98.001
c3.33301 -23.333 -2.83398 -43 -18.5 -59c-15.667 -16 -36.167 -28.667 -61.5 -38s-53.333 -15.5 -84 -18.5s-59.5 -3 -86.5 0s-50 9 -69 18s-29.167 20.5 -30.5 34.5l-115 979l-74.5 -191.5l-74.5 -191l-71 -181l-63 -160l-51.5 -128l-35.5 -86.5
c-4.66699 -10.667 -15 -19.5 -31 -26.5s-34.667 -12.333 -56 -16s-44.166 -5.5 -68.499 -5.5s-47.333 1.66699 -69 5s-40.334 8.66602 -56.001 15.999s-25.834 16.333 -30.501 27l-35.5 86.5l-51.5 128l-63 160l-71 181l-75 191l-74 191.5l-115 -979
c-2 -14 -12.333 -25.5 -31 -34.5s-41.5 -15 -68.5 -18s-55.833 -3 -86.5 0s-58.667 9.16699 -84 18.5s-45.833 22 -61.5 38s-21.834 35.667 -18.501 59c3.33301 22.667 7.83301 55.334 13.5 98.001l19.5 148l23.5 184.5l26.5 208l28.5 217.5l27.5 214.5l25.5 198.5l22 169
l16.5 127c4.66699 34.667 8 58.334 10 71.001c2 11.333 10.833 21 26.5 29s35 14 58 18s48 6.16699 75 6.5s52.667 -1.33398 77 -5.00098s45.333 -9.33398 63 -17.001s29.167 -17.167 34.5 -28.5z" />
    <glyph glyph-name="N" unicode="N" horiz-adv-x="1615" 
d="M1545 41c0 -13.333 -6.49902 -25.833 -19.499 -37.5s-30 -21.667 -51 -30s-44.333 -14.5 -70 -18.5s-50.667 -5.33301 -75 -4s-46.833 5.66602 -67.5 12.999s-36.334 18.333 -47.001 33l-71.5 99.5l-114 161.5l-143.5 204.5l-159.5 229l-163 234.5l-154.5 221l7 -1112
c0 -14 -8.66699 -26.667 -26 -38s-39.166 -20.166 -65.499 -26.499s-55 -10 -86 -11s-59.667 1.66699 -86 8s-48.166 16.5 -65.499 30.5s-26 32.667 -26 56l6 1666c0 8.66699 7 17.167 21 25.5s31.667 15.833 53 22.5s45 12 71 16s51.167 5.83301 75.5 5.5
s46.166 -3.16602 65.499 -8.49902s33.333 -14 42 -26l797 -1116c0 75.333 0.166992 152.666 0.5 231.999s0.5 157 0.5 233v217.5c0 69 0.166992 131.167 0.5 186.5s0.666016 102 0.999023 140s0.833008 64 1.5 78c0 12.667 8.5 23.667 25.5 33s38 16.5 63 21.5s52 8 81 9
s56 -0.166992 81 -3.5s45.833 -9.33301 62.5 -18s25 -19.667 25 -33z" />
    <glyph glyph-name="O" unicode="O" horiz-adv-x="1717" 
d="M893 -61c-110 -1.33301 -208.836 15.001 -296.503 49.001s-164.167 80.5 -229.5 139.5s-119.666 128 -162.999 207s-75.666 163.167 -96.999 252.5s-31.833 181 -31.5 275s11.5 185.667 33.5 275s54.667 173.666 98 252.999s97.5 148.833 162.5 208.5
s140.333 106.667 226 141s181.834 51.5 288.501 51.5c102 0 193.667 -17.333 275 -52s152.5 -81.5 213.5 -140.5s111.667 -128 152 -207s70.666 -162.667 90.999 -251s30.5 -179.333 30.5 -273s-10.167 -184.834 -30.5 -273.501s-50.666 -172.5 -90.999 -251.5
s-90.5 -148.167 -150.5 -207.5s-130.167 -106.666 -210.5 -141.999s-170.5 -53.333 -270.5 -54zM839.997 1433c-73.333 -4.66699 -137.501 -24.668 -192.501 -60.001s-100.833 -80.166 -137.5 -134.499s-64 -115.666 -82 -183.999s-26.667 -137.666 -26 -207.999
s10.834 -139 30.501 -206s48.834 -126.833 87.501 -179.5s87 -95 145 -127s125.667 -48.333 203 -49c56 -0.666992 106.833 10 152.5 32s85.667 51.667 120 89s63.166 81.166 86.499 131.499s40.833 103.666 52.5 159.999s17.5 114 17.5 173s-5.83301 116.333 -17.5 172
s-29.5 108 -53.5 157s-54.333 91.333 -91 127s-79.5 63.167 -128.5 82.5s-104.5 27.333 -166.5 24z" />
    <glyph glyph-name="P" unicode="P" horiz-adv-x="1396" 
d="M985 1705c64.667 -22.667 119.667 -53.666 165 -92.999s82 -84 110 -134s47.667 -103.5 59 -160.5s14.833 -114.833 10.5 -173.5s-15.666 -116.5 -33.999 -173.5s-43.166 -110.333 -74.499 -160s-68.666 -93.834 -111.999 -132.501s-92 -69.334 -146 -92.001
c-83.333 -34 -170.333 -57.667 -261 -71s-180.667 -15.333 -270 -6l3 -492c0 -14 -8.66699 -26.667 -26 -38s-39.333 -20.166 -66 -26.499s-55.334 -10 -86.001 -11s-59.167 1.66699 -85.5 8s-48.333 16.5 -66 30.5s-26.167 32.667 -25.5 56c0 28 0.166992 70.5 0.5 127.5
s0.666016 123.333 0.999023 199s0.5 157.667 0.5 246s0.166992 178 0.5 269l1 268.5c0.333008 88 0.833008 169 1.5 243c0.666992 66.667 3 124.334 7 173.001s11.667 89.167 23 121.5s27.5 57 48.5 74s48.5 27.5 82.5 31.5c64 7.33301 128.833 11.666 194.5 12.999
s130.167 -1.16699 193.5 -7.5s124.666 -16.833 183.999 -31.5s115 -34 167 -58zM441 863.001c92.667 -9.33301 173.498 -7.33398 242.498 5.99902s125.833 34.333 170.5 63s77.334 63.5 98.001 104.5s29.667 84.833 27 131.5c-2.66699 45.333 -12.5 85.333 -29.5 120
s-39 64.667 -66 90s-58 46.333 -93 63s-72.167 29.167 -111.5 37.5s-79.666 12.833 -120.999 13.5s-82 -1.66602 -122 -6.99902z" />
    <glyph glyph-name="Q" unicode="Q" horiz-adv-x="1720" 
d="M893 -61c-110 -1.33301 -208.835 15.0039 -296.502 49.0039s-164.167 80.5 -229.5 139.5s-119.666 128 -162.999 207s-75.666 163.167 -96.999 252.5s-31.833 181 -31.5 275s11.5 185.667 33.5 275s54.667 173.666 98 252.999s97.5 148.833 162.5 208.5
s140.333 106.667 226 141s181.834 51.5 288.501 51.5c92.667 0 176.667 -14.333 252 -43s142.333 -67.834 201 -117.501s108.834 -108.167 150.501 -175.5s75.167 -139.666 100.5 -216.999s42.166 -157.833 50.499 -241.5s8.5 -167 0.5 -250s-24.333 -163.833 -49 -242.5
s-57.334 -151.334 -98.001 -218.001l163 -259c6.66699 -12.667 4.83398 -28.167 -5.49902 -46.5s-25.833 -36.333 -46.5 -54s-44.334 -34 -71.001 -49s-53.167 -25.833 -79.5 -32.5s-50.333 -7.83398 -72 -3.50098s-37.834 17.166 -48.501 38.499l-93 152
c-49.333 -28.667 -102.666 -51 -159.999 -67s-119.333 -24.667 -186 -26zM1266 646.004c16 57.333 25.666 116.998 28.999 178.998s0.166016 122.833 -9.50098 182.5s-26.167 116 -49.5 169s-53.5 99.167 -90.5 138.5s-80.833 69.666 -131.5 90.999s-108.667 30.333 -174 27
c-73.333 -4.66699 -137.5 -24.667 -192.5 -60s-100.833 -80.166 -137.5 -134.499s-64 -115.666 -82 -183.999s-26.667 -137.666 -26 -207.999s10.834 -139 30.501 -206s48.834 -126.833 87.501 -179.5s87 -95 145 -127s125.667 -48.333 203 -49
c36 -0.666992 69.5 3.5 100.5 12.5s60.167 21.833 87.5 38.5l-203 335c-6 11.333 -3.66699 24.833 7 40.5s26 31.5 46 47.5s42.667 31.333 68 46s50 26.167 74 34.5s45.167 12.5 63.5 12.5s30.833 -6 37.5 -18z" />
    <glyph glyph-name="R" unicode="R" horiz-adv-x="1391" 
d="M246 1789c64 7.33301 133.996 11.8291 209.996 13.4961s152.5 -2.16602 229.5 -11.499s151.667 -25.333 224 -48s137 -54.5 194 -95.5s103.5 -92.167 139.5 -153.5s56 -135.666 60 -222.999c2.66699 -62.667 -3 -119.167 -17 -169.5s-34.333 -95 -61 -134
s-58.167 -72.833 -94.5 -101.5s-75.666 -53.167 -117.999 -73.5s-86.166 -37 -131.499 -50s-89.666 -22.833 -132.999 -29.5l559 -493c10.667 -9.33301 14.667 -24.333 12 -45s-10 -43.334 -22 -68.001s-27.5 -49.167 -46.5 -73.5s-39.167 -44.666 -60.5 -60.999
s-43 -26.666 -65 -30.999s-42 1.16699 -60 16.5l-638 583l8 -524c0 -14 -8.66699 -26.667 -26 -38s-39.333 -20.166 -66 -26.499s-55.334 -10 -86.001 -11s-59.167 1.66699 -85.5 8s-48.333 16.5 -66 30.5s-26.167 32.667 -25.5 56c0 28 0.5 70.5 1.5 127.5
s1.83301 123.333 2.5 199s1.33398 157.667 2.00098 246s1.16699 178 1.5 269s0.333008 180.5 0 268.5s-1.16602 169 -2.49902 243c-0.666992 48 0.833008 95.167 4.5 141.5s11.5 88 23.5 125s28.667 67.5 50 91.5s49 38 83 42zM440.996 1038
c11.333 -2 27.667 -3.50195 49 -4.50195s45.5 -1.16699 72.5 -0.5s55.833 2.83398 86.5 6.50098s61 9.16699 91 16.5s58.5 17 85.5 29s50.5 26.833 70.5 44.5s35.333 38.834 46 63.501s14.667 53 12 85c-2.66699 32.667 -12.667 61.167 -30 85.5s-39.5 45 -66.5 62
s-57.833 30.5 -92.5 40.5s-70.667 17.333 -108 22s-75 6.5 -113 5.5s-74 -3.83301 -108 -8.5z" />
    <glyph glyph-name="S" unicode="S" horiz-adv-x="1194" 
d="M1127 428c0 -78.667 -12.6768 -147.17 -38.0098 -205.503s-59.166 -106.833 -101.499 -145.5s-91.166 -67.667 -146.499 -87s-112.666 -29 -171.999 -29c-56 0 -112.667 8 -170 24s-112.5 38.667 -165.5 68s-102.667 65 -149 107s-86.833 89 -121.5 141
c-9.33301 14 -11.666 30.5 -6.99902 49.5s13.667 38.333 27 58s29.5 38.167 48.5 55.5s38 31.5 57 42.5s36.833 17.333 53.5 19s29.334 -3.5 38.001 -15.5c22.667 -32 48.167 -61.333 76.5 -88s57.833 -50 88.5 -70s62 -35.833 94 -47.5s63 -18.5 93 -20.5
c26.667 -2 49.334 0.833008 68.001 8.5s33.334 18.334 44.001 32.001s18.167 29.5 22.5 47.5s6.16602 36.667 5.49902 56s-4 38.5 -10 57.5s-13.333 36.167 -22 51.5c-19.333 32.667 -46 65.334 -80 98.001s-71.5 65.5 -112.5 98.5l-128 100
c-44.333 33.667 -86.666 68.167 -126.999 103.5s-77 71.333 -110 108s-58.5 74.667 -76.5 114c-30 66 -43.333 132.833 -40 200.5s21 130.834 53 189.501c24.667 46.667 54.834 86.5 90.501 119.5s74.334 59.333 116.001 79s85.834 33 132.501 40s93.834 8 141.501 3
s94.834 -15.833 141.501 -32.5s91 -38.667 133 -66c18.667 -12 40.167 -27.833 64.5 -47.5s48.666 -40.667 72.999 -63s46.833 -44.333 67.5 -66s36.334 -40.5 47.001 -56.5c12 -18.667 15.167 -37.834 9.5 -57.501s-16.667 -38.667 -33 -57s-36.333 -35 -60 -50
s-47.167 -26.667 -70.5 -35s-44.833 -13 -64.5 -14s-33.5 3.83301 -41.5 14.5c-41.333 50.667 -85.5 91.5 -132.5 122.5s-91.833 52.333 -134.5 64s-80.334 13.334 -113.001 5.00098s-55.334 -26.5 -68.001 -54.5c-10.667 -23.333 -11.667 -48.166 -3 -74.499
s24.167 -53.833 46.5 -82.5s50 -58.334 83 -89.001s68.667 -61.834 107 -93.501l118 -96.5l115.5 -97.5c36.667 -32.333 70 -64.666 100 -96.999s54 -63.833 72 -94.5c21.333 -38 38.333 -77 51 -117s19 -82.333 19 -127z" />
    <glyph glyph-name="T" unicode="T" horiz-adv-x="1154" 
d="M1030 1762c14 0 26.6689 -8.66895 38.002 -26.002s20.166 -39 26.499 -65s10 -54 11 -84s-1.66699 -58 -8 -84s-16.5 -47.5 -30.5 -64.5s-32.667 -25.5 -56 -25.5l-263 1l6 -1379c0 -14 -8.66699 -26.667 -26 -38s-39.333 -20.166 -66 -26.499s-55.334 -10 -86.001 -11
s-59.167 1.66699 -85.5 8s-48.333 16.5 -66 30.5s-26.167 32.667 -25.5 56c0 15.333 0.166992 41.333 0.5 78s0.5 80.834 0.5 132.501v173c0 63.667 0.166992 130.334 0.5 200.001s0.5 140.334 0.5 212.001v209.5v193.5v163.5l-278 2c-12.667 0 -23.5 8.5 -32.5 25.5
s-16 38.167 -21 63.5s-7.83301 52.666 -8.5 81.999s1 56.666 5 81.999s10.167 46.333 18.5 63s19.5 25 33.5 25z" />
    <glyph glyph-name="U" unicode="U" horiz-adv-x="1369" 
d="M681 -20c-69.333 0 -132.001 8.99805 -188.001 26.998s-105.667 42.833 -149 74.5s-80.833 69.334 -112.5 113.001s-58 91.334 -79 143.001s-36.833 106.334 -47.5 164.001s-17 116.834 -19 177.501l-4.5 147.5c-1.66699 55.667 -3.16699 114.5 -4.5 176.5
s-2.5 125 -3.5 189s-1.83301 126 -2.5 186s-0.833984 115.833 -0.500977 167.5s1.5 95.834 3.5 132.501c0.666992 19.333 9.5 35.333 26.5 48s37.833 22 62.5 28s51.334 9 80.001 9s55.167 -3.33301 79.5 -10s44.333 -16.167 60 -28.5s23.167 -27.833 22.5 -46.5
c-1.33301 -30.667 -2.5 -67 -3.5 -109s-1.66699 -87.333 -2 -136l-1 -152.5c-0.333008 -53 -0.333008 -105.833 0 -158.5l1 -153.5c0.333008 -49.667 0.833008 -95.834 1.5 -138.501s1.33398 -80.334 2.00098 -113.001s1.66699 -58.334 3 -77.001
c3.33301 -54.667 13.666 -103 30.999 -145s38.833 -77.167 64.5 -105.5s54.167 -49.833 85.5 -64.5s62.666 -22 93.999 -22c32 0 63.667 7.33301 95 22s60 36.167 86 64.5s47.667 63.5 65 105.5s27.666 90.333 30.999 145c1.33301 18.667 2.33301 44.334 3 77.001
s1.33398 70.334 2.00098 113.001s1.16699 88.834 1.5 138.501s0.5 100.834 0.5 153.501s-0.166992 105.5 -0.5 158.5l-1 152.5c-0.333008 48.667 -1 94 -2 136s-2.16699 78.333 -3.5 109c-0.666992 18.667 6.83301 34.167 22.5 46.5s35.667 21.833 60 28.5
s50.833 10 79.5 10s55.334 -3 80.001 -9s45.5 -15.333 62.5 -28s25.833 -28.667 26.5 -48c1.33301 -36.667 2.33301 -80.834 3 -132.501s0.833984 -107.5 0.500977 -167.5s-1 -122 -2 -186s-2.16699 -127 -3.5 -189s-2.83301 -120.833 -4.5 -176.5l-4.5 -147.5
c-2 -60 -8.33301 -119.167 -19 -177.5s-26.5 -113.333 -47.5 -165s-47.167 -99.334 -78.5 -143.001s-68.833 -81.334 -112.5 -113.001s-93.667 -56.334 -150 -74.001s-119.5 -26.5 -189.5 -26.5z" />
    <glyph glyph-name="V" unicode="V" horiz-adv-x="1654" 
d="M842 568l435.998 1165c4.66699 12.667 16.667 21.5 36 26.5s41.833 6.5 67.5 4.5s52.5 -7.16699 80.5 -15.5s52.833 -19.333 74.5 -33s38.167 -29.5 49.5 -47.5s13.666 -37.667 6.99902 -59l-33 -94l-62.5 -173.5l-83 -227.5l-93.5 -256.5l-95.5 -261l-88 -240.5
l-71 -195.5l-44.5 -125.5c-4.66699 -13.333 -15.5 -24.166 -32.5 -32.499s-37.167 -14.5 -60.5 -18.5s-48.333 -5.83301 -75 -5.5s-51.667 2.66602 -75 6.99902s-43.666 10.5 -60.999 18.5s-28.333 17.333 -33 28c-12 26.667 -29 68 -51 124l-76 195.5l-92 242l-98.5 263
l-96.5 259l-84.5 229.5l-63.5 175c-17.333 48 -28.333 79.667 -33 95c-7.33301 21.333 -5.16602 41 6.50098 59s28.334 33.833 50.001 47.5s46.5 24.667 74.5 33s54.833 13.5 80.5 15.5s48.167 0.5 67.5 -4.5s31.333 -13.833 36 -26.5z" />
    <glyph glyph-name="W" unicode="W" horiz-adv-x="2074" 
d="M1686 1759c3.33301 13.333 14.335 23.6621 33.002 30.9951s40.834 11.666 66.501 12.999s52.667 -0.166992 81 -4.5s54.166 -11.833 77.499 -22.5s41.833 -24.167 55.5 -40.5s18.5 -35.5 14.5 -57.5c-2.66699 -16 -8.83398 -47 -18.501 -93l-36 -168.5l-48.5 -222
l-55.5 -253.5l-58 -263.5l-56 -252l-49 -219l-37.5 -163.5c-3.33301 -15.333 -15.5 -28.333 -36.5 -39s-46.5 -18.667 -76.5 -24s-62.167 -8 -96.5 -8s-66.833 3 -97.5 9s-57.167 14.833 -79.5 26.5s-36.5 26.834 -42.5 45.501
c-8.66699 26.667 -19.834 65.334 -33.501 116.001l-45.5 174.5l-53 213.5l-56 233l-57 -234.5l-53 -214.5l-45.5 -175.5c-13.667 -51 -24.834 -89.833 -33.501 -116.5c-6 -18 -20.167 -33 -42.5 -45s-48.833 -21 -79.5 -27s-63.167 -9 -97.5 -9s-66.5 2.66699 -96.5 8
s-55.5 13.333 -76.5 24s-33.167 23.667 -36.5 39l-37.5 163.5l-49 219l-56 252l-58 263.5l-55.5 253.5l-48.5 222l-36 168.5c-9.66699 46 -15.834 77 -18.501 93c-4 22 0.833008 41.167 14.5 57.5s32.167 29.833 55.5 40.5s49.166 18.167 77.499 22.5s55.333 5.83301 81 4.5
s47.834 -5.66602 66.501 -12.999s29.667 -17.666 33 -30.999l260 -1167l230 1020c2 10.667 11 19.5 27 26.5s35.333 12.167 58 15.5s47.167 4.83301 73.5 4.5s50.833 -2.16602 73.5 -5.49902s41.834 -8.66602 57.501 -15.999s24.834 -16 27.501 -26l230 -1015z" />
    <glyph glyph-name="X" unicode="X" horiz-adv-x="1544" 
d="M561 856l-491.008 697c-7.33301 10.667 -6.66602 24.334 2.00098 41.001s21.834 34.167 39.501 52.5s38.334 36.166 62.001 53.499s46.834 31.5 69.501 42.5s43.334 17.833 62.001 20.5s32 -1.66602 40 -12.999l429 -598l430 598c8 11.333 21.333 15.666 40 12.999
s39.334 -9.5 62.001 -20.5s45.834 -25.167 69.501 -42.5s44.334 -35.166 62.001 -53.499s30.834 -35.833 39.501 -52.5s9.33398 -30.334 2.00098 -41.001l-492 -697l486 -675c8 -12 7.83301 -27.5 -0.5 -46.5s-21.5 -38.5 -39.5 -58.5s-39.5 -39 -64.5 -57
s-50.167 -31.833 -75.5 -41.5s-49.333 -13.667 -72 -12s-40.334 12.5 -53.001 32.5l-394 557l-393 -557c-12.667 -20 -30.334 -30.833 -53.001 -32.5s-46.667 2.33301 -72 12s-50.5 23.5 -75.5 41.5s-46.5 37 -64.5 57s-31.167 39.5 -39.5 58.5s-8.5 34.5 -0.5 46.5z" />
    <glyph glyph-name="Y" unicode="Y" horiz-adv-x="1444" 
d="M723 1152l356.001 598.001c6.66699 12 19.667 18.5 39 19.5s41.333 -1.5 66 -7.5s50 -14.667 76 -26s49.167 -23.833 69.5 -37.5s35.833 -27.5 46.5 -41.5s13 -26.667 7 -38l-480 -867l2 -740c0 -14 -8.83301 -26.667 -26.5 -38s-39.667 -20.166 -66 -26.499
s-54.833 -10 -85.5 -11s-59.167 1.66699 -85.5 8s-48.333 16.5 -66 30.5s-26.167 32.667 -25.5 56l10 724l-495 870c-4.66699 8 -4.5 17.167 0.5 27.5s13.333 20.666 25 30.999s26 20.5 43 30.5s35 19.167 54 27.5s38.167 15.333 57.5 21s37.333 9.5 54 11.5
s31.167 1.66699 43.5 -1s21.166 -8.33398 26.499 -17.001z" />
    <glyph glyph-name="Z" unicode="Z" horiz-adv-x="1261" 
d="M774 1419l-628.007 2.99512c-12.667 -1.33301 -23.5 6.16699 -32.5 22.5s-16 37.166 -21 62.499s-7.83301 52.833 -8.5 82.5s1 57.334 5 83.001s10.167 47.5 18.5 65.5s19.5 27.667 33.5 29l952 -5c24 0 43.5 -6.5 58.5 -19.5s26.333 -29.833 34 -50.5
s12 -44.167 13 -70.5s-1 -53.166 -6 -80.499s-12.167 -54 -21.5 -80s-20.666 -49 -33.999 -69l-641 -1063l616 -6c14.667 0 27.834 -8.5 39.501 -25.5s21.167 -38.167 28.5 -63.5s12 -52.666 14 -81.999s0.333008 -56.666 -5 -81.999s-14.666 -46.333 -27.999 -63
s-31.666 -25 -54.999 -25l-816 4c-38 0 -70.333 5.83301 -97 17.5s-48.167 27.334 -64.5 47.001s-28.166 42 -35.499 67s-10.666 51.333 -9.99902 79s4.83398 55.334 12.501 83.001s18.5 53.5 32.5 77.5z" />
    <glyph glyph-name="bracketleft" unicode="[" horiz-adv-x="731" 
d="M414 165l171 -0.00195312c14 0 26.667 -8.5 38 -25.5s20.166 -38.167 26.499 -63.5s10 -52.833 11 -82.5s-1.66699 -57.167 -8 -82.5s-16.5 -46.5 -30.5 -63.5s-32.667 -25.5 -56 -25.5h-220c-50.667 0 -93 2.5 -127 7.5s-61.5 12.833 -82.5 23.5
s-36.667 24.834 -47 42.501s-17.5 39.167 -21.5 64.5s-6 54.833 -6 88.5v115.5l-3 1393v115.5c0 33.667 2 63.167 6 88.5s11.167 46.833 21.5 64.5s26 31.834 47 42.501s48.333 18.5 82 23.5s76.167 7.5 127.5 7.5h224c23.333 0 42 -8.5 56 -25.5s24.167 -38.5 30.5 -64.5
s9 -54 8 -84s-4.66699 -58 -11 -84s-15.166 -47.667 -26.499 -65s-24 -26 -38 -26h-175z" />
    <glyph glyph-name="backslash" unicode="\" horiz-adv-x="919" 
d="M39 1677c-4 12.667 0.833984 25.499 14.501 38.499s32 24.833 55 35.5s48.667 19.667 77 27s55.166 12.166 80.499 14.499s47.333 1.5 66 -2.5s30 -12 34 -24l534 -1715c6.66699 -22 3.83398 -42.333 -8.49902 -61s-30.333 -34.667 -54 -48
s-50.334 -24.166 -80.001 -32.499s-58 -13.166 -85 -14.499s-50.5 0.666992 -70.5 6s-32 15 -36 29z" />
    <glyph glyph-name="bracketright" unicode="]" horiz-adv-x="783" 
d="M334 1550l-175 0.00195312c-14 0 -26.667 8.66699 -38 26s-20.166 39 -26.499 65s-10 54 -11 84s1.66699 58 8 84s16.5 47.5 30.5 64.5s32.667 25.5 56 25.5h224c50.667 0 93 -2.5 127 -7.5s61.5 -12.833 82.5 -23.5s36.667 -24.834 47 -42.501s17.5 -39.167 21.5 -64.5
s6 -54.833 6 -88.5v-115.5l-3 -1393v-115.5c0 -33.667 -2 -63.167 -6 -88.5s-11.167 -46.833 -21.5 -64.5s-26 -31.834 -47 -42.501s-48.5 -18.5 -82.5 -23.5s-76.333 -7.5 -127 -7.5h-220c-23.333 0 -42 8.5 -56 25.5s-24.167 38.167 -30.5 63.5s-9 52.833 -8 82.5
s4.66699 57.167 11 82.5s15.166 46.5 26.499 63.5s24 25.5 38 25.5h171z" />
    <glyph glyph-name="asciicircum" unicode="^" horiz-adv-x="733" 
d="M384 829l-44.998 -104c-4 -8 -12.333 -12.667 -25 -14s-27.334 -0.333008 -44.001 3s-34.167 8.66602 -52.5 15.999s-34.5 15.5 -48.5 24.5s-25 18.167 -33 27.5s-10.333 18 -7 26l129 298c3.33301 6.66699 10.666 12.167 21.999 16.5s24.666 7.66602 39.999 9.99902
s31.833 3.5 49.5 3.5s34.334 -1 50.001 -3s29.334 -5.16699 41.001 -9.5s19.167 -9.5 22.5 -15.5l157 -292c4 -7.33301 2.33301 -16 -5 -26s-17.833 -19.833 -31.5 -29.5s-29.334 -18.667 -47.001 -27s-34.667 -14.666 -51 -18.999s-31 -6.16602 -44 -5.49902
s-21.5 5 -25.5 13z" />
    <glyph glyph-name="underscore" unicode="_" horiz-adv-x="922" 
d="M768 290c14 0 26.668 -8.66504 38.001 -25.998s20.166 -39 26.499 -65s10 -54 11 -84s-1.66699 -58 -8 -84s-16.5 -47.5 -30.5 -64.5s-32.667 -25.5 -56 -25.5l-615 1c-12.667 0 -23.5 8.5 -32.5 25.5s-16 38.167 -21 63.5s-7.83301 52.666 -8.5 81.999
s1 56.666 5 81.999s10.167 46.333 18.5 63s19.5 25 33.5 25z" />
    <glyph glyph-name="grave" unicode="`" horiz-adv-x="426" 
d="M375 1539c4.66699 -6 5.16797 -14.002 1.50098 -24.002s-9.83398 -20.167 -18.501 -30.5s-19 -20.166 -31 -29.499s-24.333 -16.5 -37 -21.5s-24.667 -7 -36 -6s-20.333 6.5 -27 16.5l-146 193c-4 5.33301 -3.83301 12.333 0.5 21s11 17.834 20 27.501s19.333 19 31 28
s23.167 16.333 34.5 22s21.833 9.16699 31.5 10.5s16.5 -1 20.5 -7z" />
    <glyph glyph-name="a" unicode="a" horiz-adv-x="1400" 
d="M1321 40c0 -14 -8.66113 -26.9951 -25.9941 -38.9951s-39.333 -21.667 -66 -29s-55.334 -12.166 -86.001 -14.499s-59.167 -0.833008 -85.5 4.5s-48.333 14.666 -66 27.999s-26.167 31.666 -25.5 54.999v19c-82.667 -54.667 -172.334 -82.667 -269.001 -84
c-68.667 -0.666992 -131.334 7.66602 -188.001 24.999s-107.667 41.5 -153 72.5s-84.833 67.667 -118.5 110s-61.834 88.166 -84.501 137.499s-40.167 101 -52.5 155s-19.5 108.333 -21.5 163c-2 58 2.16699 116 12.5 174s26.666 113.333 48.999 166s51 101.667 86 147
s76.167 84.666 123.5 117.999s100.666 59.333 159.999 78s124.666 28 195.999 28c52 -0.666992 100.333 -6.5 145 -17.5s86.334 -26.833 125.001 -47.5c0 5.33301 0.166992 10.666 0.5 15.999s0.5 9.66602 0.5 12.999c0 12.667 8.5 23.334 25.5 32.001s38 15.167 63 19.5
s52 6.5 81 6.5s56 -2.16699 81 -6.5s45.833 -11 62.5 -20s25 -20.167 25 -33.5zM667.006 1015c-40 -1.33301 -76.1631 -11.168 -108.496 -29.501s-59.833 -43.5 -82.5 -75.5s-39.834 -69.667 -51.501 -113s-16.5 -90.333 -14.5 -141c0.666992 -23.333 3.5 -48 8.5 -74
s12.333 -51.667 22 -77s21.5 -49.5 35.5 -72.5s30.5 -43.333 49.5 -61s40.5 -31.834 64.5 -42.501s50.667 -16 80 -16c48.667 0 91.667 11 129 33s68.666 50.833 93.999 86.5s44.666 75.834 57.999 120.501s20 89.334 20 134.001c0 42.667 -6.66699 84.167 -20 124.5
s-33 76 -59 107s-57.833 55.5 -95.5 73.5s-80.834 25.667 -129.501 23z" />
    <glyph glyph-name="b" unicode="b" horiz-adv-x="1388" 
d="M742 1341c77.333 -0.666992 147.165 -13.8369 209.498 -39.5039s116.833 -60.167 163.5 -103.5s85.667 -93.666 117 -150.999s54.833 -118.333 70.5 -183s23.5 -131.167 23.5 -199.5s-7.83301 -134.666 -23.5 -198.999s-39.167 -125.166 -70.5 -182.499
s-70.666 -107.5 -117.999 -150.5s-102.5 -77.167 -165.5 -102.5s-134.167 -38 -213.5 -38c-62.667 0 -120.334 7.33301 -173.001 22s-101 34.667 -145 60v-35c0 -13.333 -8.33301 -24 -25 -32s-37.334 -13.333 -62.001 -16s-51.5 -3 -80.5 -1s-55.833 6 -80.5 12
s-45.5 13.833 -62.5 23.5s-25.5 20.834 -25.5 33.501c-0.666992 16 -1.16699 48.833 -1.5 98.5s-0.666016 110.167 -0.999023 181.5s-0.666016 150.666 -0.999023 237.999l-1 269l-1 274c-0.333008 90.667 -0.5 174.834 -0.5 252.501s-0.166992 146 -0.5 205
s-0.833008 103.167 -1.5 132.5c-0.666992 23.333 7.83301 42 25.5 56s39.667 24.167 66 30.5s54.833 9 85.5 8s59.334 -4.66699 86.001 -11s48.667 -15.166 66 -26.499s26 -24 26 -38l-3 -463c44 24 92.167 42.667 144.5 56s109.833 19.666 172.5 18.999zM695.999 330.997
c49.333 -2.66699 92.6699 5 130.003 23s68.666 42.667 93.999 74s44.666 67.5 57.999 108.5s20.666 83 21.999 126s-3.66699 85.167 -15 126.5s-28.833 78.333 -52.5 111s-53.667 58.834 -90 78.501s-78.833 29.5 -127.5 29.5c-46 0 -86.5 -8.33301 -121.5 -25
s-64.667 -38.667 -89 -66s-43.5 -58.833 -57.5 -94.5s-22.667 -72.834 -26 -111.501v-72c2.66699 -38 10.5 -75 23.5 -111s31 -68.167 54 -96.5s50.833 -51.5 83.5 -69.5s70.667 -28.333 114 -31z" />
    <glyph glyph-name="c" unicode="c" horiz-adv-x="1314" 
d="M954 492c12.667 16 29.498 24.3271 50.498 24.9941s43 -4 66 -14s45.667 -23.833 68 -41.5s41.333 -36.5 57 -56.5s26.5 -39.667 32.5 -59s4.33301 -36 -5 -50c-26 -37.333 -57.167 -73.166 -93.5 -107.499s-76.666 -64.666 -120.999 -90.999s-91.833 -47.333 -142.5 -63
s-103.334 -23.834 -158.001 -24.501c-85.333 -0.666992 -162 11.333 -230 36s-127.5 58.5 -178.5 101.5s-93.333 93.333 -127 151s-58.667 118.834 -75 183.501s-24.5 131.334 -24.5 200.001s8.66699 135.5 26 200.5s42.833 126.5 76.5 184.5s75.667 108.667 126 152
s108.833 77.5 175.5 102.5s141.334 37.5 224.001 37.5c58 0 113.333 -7.16699 166 -21.5s101.167 -34.833 145.5 -61.5s83.333 -59.167 117 -97.5s60.5 -81.5 80.5 -129.5c6.66699 -16 4.83398 -32.5 -5.49902 -49.5s-25.333 -33 -45 -48s-42.334 -28.333 -68.001 -40
s-50.667 -20.167 -75 -25.5s-46.333 -6.83301 -66 -4.5s-33.167 10.166 -40.5 23.499c-22 39.333 -53 69.5 -93 90.5s-91.667 29.167 -155 24.5c-46 -3.33301 -86.5 -15.666 -121.5 -36.999s-64 -48.166 -87 -80.499s-40.167 -68.666 -51.5 -108.999
s-16.833 -81.166 -16.5 -122.499s6.83301 -81.5 19.5 -120.5s31.167 -73.833 55.5 -104.5s54.833 -55.5 91.5 -74.5s79.667 -28.5 129 -28.5c26.667 0 53.334 4.5 80.001 13.5s52 20.667 76 35s46 30.333 66 48s37 35.167 51 52.5z" />
    <glyph glyph-name="d" unicode="d" horiz-adv-x="1386" 
d="M651 1338c62.667 0.666992 120.166 -5.66309 172.499 -18.9961s100.5 -32 144.5 -56l-3 459c0 14 8.66699 26.667 26 38s39.333 20.166 66 26.499s55.334 10 86.001 11s59.167 -1.66699 85.5 -8s48.166 -16.5 65.499 -30.5s26 -32.667 26 -56s-0.166992 -56.333 -0.5 -99
s-0.666016 -92.334 -0.999023 -149.001s-0.666016 -118.5 -0.999023 -185.5s-0.5 -136.667 -0.5 -209s-0.166992 -145.5 -0.5 -219.5l-1 -216c-0.333008 -70 -0.5 -136.667 -0.5 -200s-0.166992 -120.166 -0.5 -170.499s-0.666016 -92.833 -0.999023 -127.5
s-0.833008 -58.334 -1.5 -71.001c0 -12.667 -8.5 -23.834 -25.5 -33.501s-37.833 -17.5 -62.5 -23.5s-51.5 -10 -80.5 -12s-55.833 -1.66699 -80.5 1s-45.334 7.83398 -62.001 15.501s-25 18.5 -25 32.5v35c-44 -25.333 -92.333 -45.333 -145 -60s-110.334 -22 -173.001 -22
c-79.333 0 -150.5 12.667 -213.5 38s-118.167 59.5 -165.5 102.5s-86.666 93.167 -117.999 150.5s-54.833 118.166 -70.5 182.499s-23.5 130.666 -23.5 198.999s7.83301 134.833 23.5 199.5s39.167 125.667 70.5 183s70.333 107.666 117 150.999s101.167 77.833 163.5 103.5
s132.166 38.834 209.499 39.501zM696.999 328.003c42.667 2.66699 80.5039 13 113.504 31s61 41.167 84 69.5s41 60.5 54 96.5s20.833 73 23.5 111v72c-3.33301 38.667 -12 75.834 -26 111.501s-33.167 67.167 -57.5 94.5s-54 49.333 -89 66s-75.5 25 -121.5 25
c-49.333 0 -92 -9.83301 -128 -29.5s-65.833 -45.834 -89.5 -78.501s-41.167 -69.667 -52.5 -111s-16.333 -83.5 -15 -126.5s8.66602 -85 21.999 -126s32.666 -77.167 57.999 -108.5s56.666 -56 93.999 -74s80.666 -25.667 129.999 -23z" />
    <glyph glyph-name="e" unicode="e" horiz-adv-x="1422" 
d="M1072 438c9.33301 10.667 23.668 14.999 43.001 12.999s40.166 -8.16699 62.499 -18.5s44.666 -23.666 66.999 -39.999s41.166 -33.5 56.499 -51.5s25.666 -35.667 30.999 -53s2.33301 -32.333 -9 -45c-44 -48 -91.5 -89.5 -142.5 -124.5s-103.667 -63.5 -158 -85.5
s-109.666 -37.667 -165.999 -47s-111.833 -12.333 -166.5 -9c-82.667 4 -161.667 22 -237 54s-141.333 76.833 -198 134.5s-101.5 128 -134.5 211s-48.5 177.833 -46.5 284.5c0.666992 56.667 7.66699 113.167 21 169.5s32.833 110 58.5 161s57.334 98.667 95.001 143
s81.5 82.833 131.5 115.5s106.167 58.5 168.5 77.5s130.833 29.167 205.5 30.5c95.333 1.33301 178.166 -14.667 248.499 -48s129.666 -78 177.999 -134s86 -120 113 -192s44.5 -146.333 52.5 -223c2.66699 -25.333 2.5 -51.333 -0.5 -78s-9 -51.167 -18 -73.5
s-21 -40.666 -36 -54.999s-33.167 -21.833 -54.5 -22.5c-28.667 -0.666992 -63.167 -1.16699 -103.5 -1.5s-84.166 -0.333008 -131.499 0s-97.166 0.666016 -149.499 0.999023s-104.666 0.833008 -156.999 1.5s-103.833 1.16699 -154.5 1.5s-97.667 0.833008 -141 1.5
c10.667 -44 26.667 -82.5 48 -115.5s46 -60.833 74 -83.5s59 -39.667 93 -51s69.667 -17.333 107 -18c59.333 -0.666992 119.5 13 180.5 41s117.5 71 169.5 129zM710.002 1028c-56.667 -2.66699 -107.332 -18.1689 -151.999 -46.502s-81.334 -64.5 -110.001 -108.5l536 2
c-10 22.667 -22.5 43.834 -37.5 63.501s-33.5 36.334 -55.5 50.001s-47.833 24 -77.5 31s-64.167 9.83301 -103.5 8.5z" />
    <glyph glyph-name="f" unicode="f" horiz-adv-x="1227" 
d="M222 1026c2 80.667 6.49707 148.999 13.4971 204.999s15.833 103.667 26.5 143s22.667 72.5 36 99.5s27.666 51.5 42.999 73.5c33.333 48 70 86.167 110 114.5s79.333 49.833 118 64.5s74.167 24.334 106.5 29.001s57.5 7.66699 75.5 9c34 2 70.333 0 109 -6
s75.667 -14.833 111 -26.5s67.333 -25.834 96 -42.501s50 -35 64 -55c11.333 -16 17.666 -35.5 18.999 -58.5s-1.16699 -46.333 -7.5 -70s-15.666 -46.334 -27.999 -68.001s-26.666 -39.5 -42.999 -53.5s-34.166 -22.333 -53.499 -25s-38.666 3 -57.999 17
c-36 25.333 -71 41.833 -105 49.5s-64.333 9.83398 -91 6.50098c-59.333 -8 -105.333 -45 -138 -111c-17.333 -35.333 -30.5 -77.5 -39.5 -126.5s-15.167 -105.167 -18.5 -168.5h433c14 0 26.667 -8.33301 38 -25s20.333 -37.5 27 -62.5s10.667 -52 12 -81s-1 -56 -7 -81
s-16 -45.833 -30 -62.5s-32.667 -25 -56 -25l-415 -1l8 -664c0 -14 -8.66699 -26.667 -26 -38s-39.333 -20.166 -66 -26.499s-55.334 -10 -86.001 -11s-59.167 1.66699 -85.5 8s-48.333 16.5 -66 30.5s-26.167 32.667 -25.5 56l-2 645h-83c-12.667 0 -23.667 8.33301 -33 25
s-16.666 37.5 -21.999 62.5s-8.66602 52.167 -9.99902 81.5s-0.333008 56.5 3 81.5s9 45.833 17 62.5s19 25 33 25h96z" />
    <glyph glyph-name="g" unicode="g" horiz-adv-x="1399" 
d="M1311 1286c2 -54 3.66309 -109.331 4.99609 -165.998s2.33301 -112.834 3 -168.501s1.16699 -110.334 1.5 -164.001s0.5 -104.667 0.5 -153s-0.333008 -93.166 -1 -134.499s-1.33398 -77.666 -2.00098 -108.999c-1.33301 -71.333 -4.83301 -141.666 -10.5 -210.999
s-13.5 -131.333 -23.5 -186c-14.667 -76 -39.5 -142.833 -74.5 -200.5s-78.5 -105.834 -130.5 -144.501s-111 -67.5 -177 -86.5s-137.333 -27.5 -214 -25.5c-77.333 2 -145.333 8.5 -204 19.5s-109.5 24.5 -152.5 40.5s-78.833 33.333 -107.5 52s-51.667 37 -69 55
c-17.333 17.333 -27.666 38.666 -30.999 63.999s-1.66602 50.833 5.00098 76.5s17.334 50.334 32.001 74.001s31.5 43 50.5 58s39 24 60 27s41.5 -3.16699 61.5 -18.5c28.667 -27.333 63.5 -50.333 104.5 -69s83.833 -32 128.5 -40s89 -10 133 -6s83.667 15.167 119 33.5
s64.5 44.333 87.5 78s35.5 76.5 37.5 128.5c-34 -15.333 -70 -27 -108 -35s-78.667 -12.333 -122 -13c-85.333 -0.666992 -162 10.833 -230 34.5s-127.5 56 -178.5 97s-93.333 89.167 -127 144.5s-58.667 114 -75 176s-24.5 125.833 -24.5 191.5s8.66699 129.667 26 192
s42.833 121.166 76.5 176.499s75.667 103.833 126 145.5s108.833 74.5 175.5 98.5s141.334 36 224.001 36c48 0 92.667 -4.83301 134 -14.5s80 -23.167 116 -40.5v6c-0.666992 14 7.5 26.667 24.5 38s38.5 20.166 64.5 26.499s54.333 10 85 11s59.334 -1.66699 86.001 -8
s49 -16.5 67 -30.5s27.333 -32.667 28 -56zM666.996 1015c-46.667 -2.66699 -87.3369 -13.501 -122.004 -32.501s-63.5 -43.333 -86.5 -73s-40.167 -62.834 -51.5 -99.501s-16.833 -74 -16.5 -112s6.83301 -75.167 19.5 -111.5s31.167 -68.666 55.5 -96.999
s54.833 -51.166 91.5 -68.499s79.667 -26 129 -26c48.667 0 91.167 9 127.5 27s66.333 42 90 72s41.167 64 52.5 102s16.333 76.667 15 116s-8.66602 77.833 -21.999 115.5s-32.666 70.834 -57.999 99.501s-56.666 51.167 -93.999 67.5s-80.666 23.166 -129.999 20.499z" />
    <glyph glyph-name="h" unicode="h" horiz-adv-x="1263" 
d="M408 1193c10.667 5.33301 21.3369 10.3311 32.0039 14.998l33 14c110.667 44.667 208 68 292 70s155.5 -18.333 214.5 -61s105.333 -108.667 139 -198s55.167 -203.333 64.5 -342c6.66699 -95.333 10.334 -195.5 11.001 -300.5s-1.66602 -220.5 -6.99902 -346.5
c-0.666992 -19.333 -9.5 -35.333 -26.5 -48s-37.833 -22 -62.5 -28s-51.334 -9 -80.001 -9s-55.167 3.33301 -79.5 10s-44.333 16.167 -60 28.5s-23.167 27.833 -22.5 46.5c5.33301 124 9.66602 235.333 12.999 334s2.66602 185.334 -2.00098 260.001
c-4 64.667 -11.833 119.667 -23.5 165s-29.834 80.166 -54.501 104.499s-56.834 37.333 -96.501 39s-89.5 -9.16602 -149.5 -32.499c-50.667 -19.333 -94.667 -43.333 -132 -72l5 -807c0 -14 -8.66699 -26.667 -26 -38s-39.333 -20.166 -66 -26.499s-55.334 -10 -86.001 -11
s-59.167 1.66699 -85.5 8s-48.333 16.5 -66 30.5s-26.167 32.667 -25.5 56c0 23.333 0.166992 56.5 0.5 99.5s0.666016 93.167 0.999023 150.5s0.5 120 0.5 188v212c0 73.333 0.166992 147.5 0.5 222.5s0.5 148 0.5 219s0.166992 138.5 0.5 202.5s0.5 121.5 0.5 172.5
s0.166992 94 0.5 129s0.833008 59.167 1.5 72.5c0.666992 12.667 9.33398 23.667 26.001 33s37.5 16.5 62.5 21.5s52 8 81 9s56 -0.166992 81 -3.5s45.833 -9.33301 62.5 -18s25 -19.667 25 -33z" />
    <glyph glyph-name="i" unicode="i" horiz-adv-x="520" 
d="M270 1350c-46 -1.33301 -84.1699 7.16406 -114.503 25.4971s-53.333 41.5 -69 69.5s-23.667 58.667 -24 92s6.83398 64.333 21.501 93s36.834 52.667 66.501 72s66.834 29 111.501 29c40.667 0 75 -9.16699 103 -27.5s49.5 -41.5 64.5 -69.5s23 -58.167 24 -90.5
s-5 -62.666 -18 -90.999s-33.167 -52.166 -60.5 -71.499s-62.333 -29.666 -105 -30.999zM432.997 34.9971c0 -14 -8.83301 -26.668 -26.5 -38.001s-39.667 -20.166 -66 -26.499s-54.833 -10 -85.5 -11s-59.167 1.66699 -85.5 8s-48.333 16.5 -66 30.5
s-26.167 32.667 -25.5 56l14 1179c0 12.667 8.5 23.667 25.5 33s38 16.5 63 21.5s52 8 81 9s56 -0.166992 81 -3.5s45.833 -9.33301 62.5 -18s25 -19.667 25 -33z" />
    <glyph glyph-name="j" unicode="j" horiz-adv-x="549" 
d="M456 1192c6 -163.333 9.33301 -307.163 10 -431.496s-0.333008 -233.833 -3 -328.5c-3.33301 -130 -12.833 -245.667 -28.5 -347s-41.5 -188.333 -77.5 -261c-22.667 -45.333 -50 -84 -82 -116s-67.167 -58.333 -105.5 -79s-78.833 -35.834 -121.5 -45.501
s-85.667 -14.834 -129 -15.501s-86.333 2.66602 -129 9.99902s-83 18.333 -121 33c-17.333 6.66699 -29.666 20 -36.999 40s-10.5 42.667 -9.5 68s5.83301 51.5 14.5 78.5s20.5 50.5 35.5 70.5s33 34.5 54 43.5s44.167 8.83301 69.5 -0.5c36 -14 69.5 -20 100.5 -18
s58.5 10.5 82.5 25.5s44.667 36.5 62 64.5s30.666 61 39.999 99c11.333 46 19.166 99 23.499 159s7.5 125.333 9.5 196c2.66699 88 3.16699 195.167 1.5 321.5s-6.5 277.166 -14.5 452.499c-0.666992 14.667 7.5 27.5 24.5 38.5s38.5 19.667 64.5 26s54.333 10 85 11
s59.334 -1.66699 86.001 -8s49 -16.5 67 -30.5s27.333 -32.667 28 -56zM281 1352c-46 -1.33301 -84.1699 7.16406 -114.503 25.4971s-53.333 41.5 -69 69.5s-23.667 58.667 -24 92s6.83398 64.333 21.501 93s36.834 52.667 66.501 72s66.834 29 111.501 29
c40.667 0 75 -9.16699 103 -27.5s49.5 -41.5 64.5 -69.5s23 -58.167 24 -90.5s-5 -62.666 -18 -90.999s-33.167 -52.166 -60.5 -71.499s-62.333 -29.666 -105 -30.999z" />
    <glyph glyph-name="k" unicode="k" horiz-adv-x="1373" 
d="M410 958l518.005 394.999c11.333 8.66699 26.666 9.33398 45.999 2.00098s39.5 -19.5 60.5 -36.5s41 -37.667 60 -62s34 -48.833 45 -73.5s16.167 -48.334 15.5 -71.001s-10.334 -41 -29.001 -55l-68.5 -50.5l-100.5 -75l-125.5 -93.5l-143.5 -106l618 -470
c11.333 -8.66699 16.166 -23.334 14.499 -44.001s-8 -43.334 -19 -68.001s-25.667 -49.5 -44 -74.5s-38 -46.167 -59 -63.5s-42.333 -28.666 -64 -33.999s-41.834 -0.666016 -60.501 14.001l-101 79l-157 122l-193 149.5l-210 163.5l3 -471c0 -14 -8.66699 -26.667 -26 -38
s-39.333 -20.166 -66 -26.499s-55.334 -10 -86.001 -11s-59.167 1.66699 -85.5 8s-48.333 16.5 -66 30.5s-26.167 32.667 -25.5 56c0 23.333 0.166992 56.5 0.5 99.5s0.666016 93.167 0.999023 150.5s0.5 120 0.5 188v212c0 73.333 0.166992 147.5 0.5 222.5
s0.5 148 0.5 219s0.166992 138.5 0.5 202.5s0.5 121.5 0.5 172.5s0.166992 94 0.5 129s0.833008 59.167 1.5 72.5c0.666992 12.667 9.33398 23.667 26.001 33s37.5 16.5 62.5 21.5s52 8 81 9s56 -0.166992 81 -3.5s45.833 -9.33301 62.5 -18s25 -19.667 25 -33z" />
    <glyph glyph-name="l" unicode="l" horiz-adv-x="537" 
d="M437 35c0 -14 -8.66895 -26.668 -26.002 -38.001s-39.166 -20.166 -65.499 -26.499s-55 -10 -86 -11s-59.667 1.66699 -86 8s-48.166 16.5 -65.499 30.5s-26 32.667 -26 56l6 1666c0 12.667 8.33301 23.5 25 32.5s37.5 16.167 62.5 21.5s52 8.5 81 9.5
s56 -0.166992 81 -3.5s46 -9.33301 63 -18s25.5 -19.667 25.5 -33z" />
    <glyph glyph-name="m" unicode="m" horiz-adv-x="2116" 
d="M424 1213c10.667 5.33301 21.3428 10.3281 32.0098 14.9951l33 14c138 55.333 259 69.333 363 42s190.667 -99.666 260 -216.999c36.667 42.667 75.667 79.5 117 110.5s83.5 56.167 126.5 75.5s86.5 32.333 130.5 39s86.667 7 128 1
c61.333 -9.33301 115 -30.833 161 -64.5s85 -76.5 117 -128.5s57 -112.167 75 -180.5s29.667 -141.5 35 -219.5c6.66699 -95.333 10.334 -195.5 11.001 -300.5s-1.66602 -220.5 -6.99902 -346.5c-0.666992 -19.333 -9.5 -35.333 -26.5 -48s-37.833 -22 -62.5 -28
s-51.334 -9 -80.001 -9s-55.167 3.33301 -79.5 10s-44.333 16.167 -60 28.5s-23.167 27.833 -22.5 46.5l14 334c4 98.667 3 185.334 -3 260.001c-3.33301 36 -8.5 72.667 -15.5 110s-16.833 71.333 -29.5 102s-28 56 -46 76s-39.333 30.667 -64 32
c-47.333 2.66699 -88 -4.5 -122 -21.5s-63 -41.167 -87 -72.5s-43.5 -68.5 -58.5 -111.5s-26.833 -89.167 -35.5 -138.5s-14.667 -100.333 -18 -153s-5.33301 -104.5 -6 -155.5s-0.833984 -99.667 -0.500977 -146s0.166016 -87.833 -0.500977 -124.5
c-0.666992 -19.333 -9.33398 -35.333 -26.001 -48s-37.334 -22 -62.001 -28s-51.334 -9 -80.001 -9s-55.167 3.33301 -79.5 10s-44.5 16.167 -60.5 28.5s-23.667 27.833 -23 46.5c5.33301 124 9.66602 235.333 12.999 334s2.66602 185.334 -2.00098 260.001
c-4 64.667 -11.833 120.834 -23.5 168.501s-29.834 84.834 -54.501 111.501s-56.834 41.834 -96.501 45.501s-89.5 -6.16602 -149.5 -29.499c-50.667 -19.333 -94.667 -43.333 -132 -72l5 -827c0 -14 -8.66699 -26.667 -26 -38s-39.333 -20.166 -66 -26.499
s-55.334 -10 -86.001 -11s-59.167 1.66699 -85.5 8s-48.333 16.5 -66 30.5s-26.167 32.667 -25.5 56c0.666992 28.667 1 66.667 1 114s0.166992 99.833 0.5 157.5s0.5 119.167 0.5 184.5s0.166992 130.666 0.5 195.999s0.5 129.166 0.5 191.499
s0.166992 119.166 0.5 170.499s0.666016 95.833 0.999023 133.5s0.833008 64.5 1.5 80.5c0 12.667 8.5 23.5 25.5 32.5s38 16.167 63 21.5s52 8.5 81 9.5s56 -0.166992 81 -3.5s45.833 -9.33301 62.5 -18s25 -19.667 25 -33z" />
    <glyph glyph-name="n" unicode="n" horiz-adv-x="1284" 
d="M424 1193c10.667 5.33301 21.3379 10.334 32.0049 15.001l33 14c110.667 44.667 208 68 292 70s155.5 -18.333 214.5 -61s105.333 -108.667 139 -198s55.167 -203.333 64.5 -342c6.66699 -95.333 10.334 -195.5 11.001 -300.5s-1.66602 -220.5 -6.99902 -346.5
c-0.666992 -19.333 -9.5 -35.333 -26.5 -48s-37.833 -22 -62.5 -28s-51.334 -9 -80.001 -9s-55.167 3.33301 -79.5 10s-44.333 16.167 -60 28.5s-23.167 27.833 -22.5 46.5c5.33301 124 9.66602 235.333 12.999 334s2.66602 185.334 -2.00098 260.001
c-4 64.667 -11.833 119.667 -23.5 165s-29.834 80.166 -54.501 104.499s-56.834 37.333 -96.501 39s-89.5 -9.16602 -149.5 -32.499c-50.667 -19.333 -94.667 -43.333 -132 -72l5 -807c0 -14 -8.66699 -26.667 -26 -38s-39.333 -20.166 -66 -26.499s-55.334 -10 -86.001 -11
s-59.167 1.66699 -85.5 8s-48.333 16.5 -66 30.5s-26.167 32.667 -25.5 56c0.666992 28.667 1 66.667 1 114s0.166992 99.833 0.5 157.5s0.5 119.167 0.5 184.5s0.166992 130.666 0.5 195.999s0.5 129.166 0.5 191.499s0.166992 119.166 0.5 170.499
s0.666016 95.833 0.999023 133.5s0.833008 64.5 1.5 80.5c0 12.667 8.5 23.5 25.5 32.5s38 16.167 63 21.5s52 8.5 81 9.5s56 -0.166992 81 -3.5s45.833 -9.33301 62.5 -18s25 -19.667 25 -33z" />
    <glyph glyph-name="o" unicode="o" horiz-adv-x="1376" 
d="M713 5c-85.333 -0.666992 -162.001 11.3291 -230.001 35.9961s-127.5 58.5 -178.5 101.5s-93.333 93.333 -127 151s-58.667 118.834 -75 183.501s-24.5 131.334 -24.5 200.001s8.66699 135.5 26 200.5s42.833 126.5 76.5 184.5s75.667 108.667 126 152
s108.833 77.5 175.5 102.5s141.334 37.5 224.001 37.5c79.333 0 150.5 -12.667 213.5 -38s118.167 -59.5 165.5 -102.5s86.666 -93.167 117.999 -150.5s54.833 -118.166 70.5 -182.499s23.5 -130.666 23.5 -198.999s-7.83301 -134.833 -23.5 -199.5
s-39.167 -125.667 -70.5 -183s-70.333 -107.666 -117 -150.999s-101.167 -77.833 -163.5 -103.5s-132.166 -38.834 -209.499 -39.501zM666.999 1015c-46.667 -2.66699 -87.3369 -14.333 -122.004 -35s-63.5 -47.167 -86.5 -79.5s-40.167 -68.5 -51.5 -108.5
s-16.833 -80.833 -16.5 -122.5s6.83301 -82.334 19.5 -122.001s31.167 -75 55.5 -106s54.833 -56 91.5 -75s79.667 -28.5 129 -28.5c48.667 0 91.167 9.83301 127.5 29.5s66.333 45.834 90 78.501s41.167 69.667 52.5 111s16.333 83.5 15 126.5s-8.66602 85 -21.999 126
s-32.666 77.167 -57.999 108.5s-56.666 56 -93.999 74s-80.666 25.667 -129.999 23z" />
    <glyph glyph-name="p" unicode="p" horiz-adv-x="1391" 
d="M746 5c-62.667 -0.666992 -120.165 5.66406 -172.498 18.9971s-100.5 32 -144.5 56l3 -476c0 -14.667 -8.66699 -27.5 -26 -38.5s-39.333 -19.667 -66 -26s-55.334 -10 -86.001 -11s-59.167 1.66699 -85.5 8s-48.333 16.5 -66 30.5s-26.167 32.667 -25.5 56
c0 23.333 0.166992 56.5 0.5 99.5s0.666016 93 0.999023 150s0.666016 119.5 0.999023 187.5s0.5 138.5 0.5 211.5s0.166992 147 0.5 222l1 218.5c0.333008 70.667 0.5 138 0.5 202s0.166992 121.5 0.5 172.5s0.666016 93.833 0.999023 128.5s0.833008 58.667 1.5 72
c0 12.667 8.5 23.834 25.5 33.501s37.833 17.5 62.5 23.5s51.5 10 80.5 12s55.833 1.66699 80.5 -1s45.334 -8 62.001 -16s25 -18.667 25 -32v-35c44 25.333 92.333 45.333 145 60s110.334 22 173.001 22c79.333 0 150.5 -12.667 213.5 -38s118.167 -59.5 165.5 -102.5
s86.666 -93.167 117.999 -150.5s54.833 -118.166 70.5 -182.499s23.5 -130.666 23.5 -198.999s-7.83301 -134.833 -23.5 -199.5s-39.167 -125.667 -70.5 -183s-70.333 -107.666 -117 -150.999s-101.167 -77.833 -163.5 -103.5s-132.166 -38.834 -209.499 -39.501z
M700.002 1015c-43.333 -2.66699 -81.3369 -13 -114.004 -31s-60.5 -41.167 -83.5 -69.5s-41 -60.5 -54 -96.5s-20.833 -73 -23.5 -111v-72c3.33301 -38.667 12 -75.834 26 -111.501s33.167 -67.167 57.5 -94.5s54 -49.333 89 -66s75.5 -25 121.5 -25
c48.667 0 91.167 9.83301 127.5 29.5s66.333 45.834 90 78.501s41.167 69.667 52.5 111s16.333 83.5 15 126.5s-8.66602 85 -21.999 126s-32.666 77.167 -57.999 108.5s-56.666 56 -93.999 74s-80.666 25.667 -129.999 23z" />
    <glyph glyph-name="q" unicode="q" horiz-adv-x="1388" 
d="M647 3c-77.333 0.666992 -147.166 13.8359 -209.499 39.5029s-116.833 60.167 -163.5 103.5s-85.667 93.666 -117 150.999s-54.833 118.333 -70.5 183s-23.5 131.167 -23.5 199.5s7.83301 134.666 23.5 198.999s39.167 125.166 70.5 182.499s70.666 107.5 117.999 150.5
s102.5 77.167 165.5 102.5s134.167 38 213.5 38c62.667 0 120.334 -7.33301 173.001 -22s101 -34.667 145 -60v35c0 13.333 8.33301 24 25 32s37.334 13.333 62.001 16s51.5 3 80.5 1s55.833 -6 80.5 -12s45.334 -13.833 62.001 -23.5s25.334 -20.834 26.001 -33.501
c0.666992 -13.333 1.16699 -37.333 1.5 -72s0.666016 -77.5 0.999023 -128.5s0.5 -108.5 0.5 -172.5s0.166992 -131.5 0.5 -202.5l1 -219c0.333008 -75 0.5 -149 0.5 -222s0.166992 -143.5 0.5 -211.5s0.666016 -130.667 0.999023 -188s0.666016 -107.5 0.999023 -150.5
s0.5 -76.167 0.5 -99.5c0.666992 -23.333 -7.83301 -42 -25.5 -56s-39.667 -24.167 -66 -30.5s-54.833 -9 -85.5 -8s-59.334 4.66699 -86.001 11s-48.667 15 -66 26s-26 23.833 -26 38.5l3 478c-44 -24 -92.167 -42.667 -144.5 -56s-109.833 -19.666 -172.5 -18.999z
M693 1013c-49.333 2.66699 -92.6699 -5 -130.003 -23s-68.666 -42.667 -93.999 -74s-44.666 -67.5 -57.999 -108.5s-20.666 -83 -21.999 -126s3.66699 -85.167 15 -126.5s28.833 -78.333 52.5 -111s53.5 -58.834 89.5 -78.501s78.667 -29.5 128 -29.5
c46 0 86.5 8.33301 121.5 25s64.667 38.667 89 66s43.5 58.833 57.5 94.5s22.667 72.834 26 111.501v72c-2.66699 38 -10.5 75 -23.5 111s-31 68.167 -54 96.5s-51 51.5 -84 69.5s-70.833 28.333 -113.5 31z" />
    <glyph glyph-name="r" unicode="r" horiz-adv-x="1215" 
d="M418 1226c28 17.333 60.834 32.3311 98.501 44.998s77.667 21.667 120 27s86.333 6.5 132 3.5s90.667 -11 135 -24s87 -31.333 128 -55s78.5 -53.834 112.5 -90.501c10.667 -12 15.834 -27.667 15.501 -47s-4.5 -39.666 -12.5 -60.999s-18.333 -42.666 -31 -63.999
s-26.334 -39.5 -41.001 -54.5s-28.834 -25.833 -42.501 -32.5s-25.167 -6 -34.5 2c-34.667 28.667 -71.5 50.667 -110.5 66s-78.167 25.666 -117.5 30.999s-77.5 6 -114.5 2s-70.833 -11.5 -101.5 -22.5s-57.167 -25 -79.5 -42s-38.166 -35.833 -47.499 -56.5l11 -829
c0 -14 -8.66699 -26.667 -26 -38s-39.333 -20.166 -66 -26.499s-55.334 -10 -86.001 -11s-59.167 1.66699 -85.5 8s-48.333 16.5 -66 30.5s-26.167 32.667 -25.5 56c0.666992 26.667 1 62.834 1 108.501v156v187v201v199c0 65 -0.166992 125 -0.5 180
s-0.5 103.167 -0.5 144.5v92c0 12.667 8.33301 23.667 25 33s37.5 16.5 62.5 21.5s52.167 8 81.5 9s56.5 -0.166992 81.5 -3.5s45.833 -9.33301 62.5 -18s25 -19.667 25 -33z" />
    <glyph glyph-name="s" unicode="s" horiz-adv-x="1133" 
d="M1070 319c0 -62 -11.165 -115.504 -33.498 -160.504s-52.333 -82.167 -90 -111.5s-81.334 -51.333 -131.001 -66s-102 -22.834 -157 -24.501s-111.167 2.83301 -168.5 13.5s-112.166 26.834 -164.499 48.501s-100.666 48.334 -144.999 80.001
s-81.166 67.5 -110.499 107.5c-8.66699 11.333 -11.167 26.333 -7.5 45s11 38.5 22 59.5s24.5 41.5 40.5 61.5s32.5 37 49.5 51s33 23.667 48 29s27.167 3.33301 36.5 -6c22.667 -23.333 48.5 -44.833 77.5 -64.5s58.5 -36.667 88.5 -51s59.833 -25.166 89.5 -32.499
s56.834 -10.333 81.501 -9s45.667 7.66602 63 18.999s29.333 28.666 36 51.999c5.33301 20.667 -2.33398 41.834 -23.001 63.501s-49.334 44.667 -86.001 69s-78.334 50.333 -125.001 78s-92.834 57.167 -138.501 88.5s-88.5 65 -128.5 101s-71.333 75 -94 117
c-22 40.667 -33.833 82.334 -35.5 125.001s5 83.834 20 123.501s37 76.667 66 111s63.333 63.833 103 88.5s83.167 42.834 130.5 54.501s96.666 15.167 147.999 10.5c48 -4.66699 96.667 -13.667 146 -27s96.166 -30.666 140.499 -51.999s85 -46.666 122 -75.999
s67.5 -62 91.5 -98c9.33301 -14.667 12.333 -31.5 9 -50.5s-10.5 -38.333 -21.5 -58s-25 -38.667 -42 -57s-34.167 -33.833 -51.5 -46.5s-34 -21.334 -50 -26.001s-28.667 -3.33398 -38 3.99902c-33.333 26 -69.333 51 -108 75s-75.667 42.667 -111 56
s-67.166 19.833 -95.499 19.5s-48.5 -11.833 -60.5 -34.5c-6.66699 -12.667 -7.83398 -25.167 -3.50098 -37.5s12 -24.333 23 -36s24.333 -23 40 -34s32 -21.167 49 -30.5s33.333 -17.833 49 -25.5s28.834 -13.834 39.501 -18.501c56 -22 108.833 -49.833 158.5 -83.5
s93.167 -72.5 130.5 -116.5s66.833 -92.667 88.5 -146s32.5 -110.666 32.5 -171.999z" />
    <glyph glyph-name="t" unicode="t" horiz-adv-x="1003" 
d="M324 1314c0 48 0.170898 94.3311 0.503906 138.998s0.666016 85.167 0.999023 121.5s0.666016 67.166 0.999023 92.499s0.5 43 0.5 53c0 12.667 8.5 23.5 25.5 32.5s38 16.167 63 21.5s52 8.5 81 9.5s56 -0.166992 81 -3.5s45.833 -9.33301 62.5 -18s25 -19.667 25 -33
l2 -414l205 1c14 0 26.667 -8.5 38 -25.5s20.166 -38.5 26.499 -64.5s10 -54.167 11 -84.5s-1.66699 -58.5 -8 -84.5s-16.5 -47.5 -30.5 -64.5s-32.667 -25.5 -56 -25.5l-183 1l6 -933c0 -14 -8.66699 -26.667 -26 -38s-39.333 -20.166 -66 -26.499s-55.334 -10 -86.001 -11
s-59.167 1.66699 -85.5 8s-48.333 16.5 -66 30.5s-26.167 32.667 -25.5 56c0 20 0.166992 47.833 0.5 83.5s0.5 76.834 0.5 123.501s0.166992 97.834 0.5 153.501s0.5 114 0.5 175v188v192.5l-202 2c-12.667 0 -23.5 8.5 -32.5 25.5s-16 38 -21 63s-7.83301 52.333 -8.5 82
s1 57 5 82s10.167 46 18.5 63s19.5 25.5 33.5 25.5z" />
    <glyph glyph-name="u" unicode="u" 
d="M851 85c-10.667 -5.33301 -21.335 -10.3301 -32.002 -14.9971l-33 -14c-110.667 -44.667 -208 -68 -292 -70s-155.5 18.333 -214.5 61s-105.333 108.667 -139 198s-55.167 203.333 -64.5 342c-6.66699 96 -10.334 201.333 -11.001 316s1.66602 235.334 6.99902 362.001
c0.666992 19.333 9.5 35.333 26.5 48s37.833 22 62.5 28s51.334 9 80.001 9s55.167 -3.33301 79.5 -10s44.333 -16.167 60 -28.5s23.167 -27.833 22.5 -46.5c-2.66699 -61.333 -5.16699 -121.5 -7.5 -180.5s-4.16602 -115.333 -5.49902 -169
s-1.83301 -103.834 -1.5 -150.501s1.5 -88.334 3.5 -125.001c4 -64.667 11.833 -119.667 23.5 -165s29.834 -80.166 54.501 -104.499s56.834 -37.333 96.501 -39s89.5 9.16602 149.5 32.499c50.667 19.333 94.667 43.333 132 72l-5 838c0 14 8.66699 26.667 26 38
s39.333 20.166 66 26.499s55.334 10 86.001 11s59.167 -1.66699 85.5 -8s48.166 -16.5 65.499 -30.5s26 -32.667 26 -56c-0.666992 -29.333 -1 -67.333 -1 -114s-0.166992 -98.834 -0.5 -156.501s-0.5 -118.834 -0.5 -183.501s-0.166992 -129.5 -0.5 -194.5
s-0.5 -128.167 -0.5 -189.5s-0.166992 -117.666 -0.5 -168.999s-0.666016 -95.666 -0.999023 -132.999s-0.833008 -64 -1.5 -80c-0.666992 -12.667 -9.33398 -23.667 -26.001 -33s-37.5 -16.5 -62.5 -21.5s-52 -8 -81 -9s-56 0.166992 -81 3.5s-45.833 9.16602 -62.5 17.499
s-25 19.5 -25 33.5z" />
    <glyph glyph-name="v" unicode="v" horiz-adv-x="1529" 
d="M767 454l395.004 818.998c6 12 18.333 18.833 37 20.5s40.167 -0.5 64.5 -6.5s49.666 -14.833 75.999 -26.5s49.666 -24.334 69.999 -38.001s36.166 -27.667 47.499 -42s14.333 -27.166 9 -38.499l-35 -72.5l-56.5 -120l-72 -153l-81.5 -171.5l-83.5 -175.5l-79 -165
l-68 -140.5l-50.5 -102c-4.66699 -9.33301 -15.667 -17.166 -33 -23.499s-37.5 -10.833 -60.5 -13.5s-47.667 -3.83398 -74 -3.50098s-50.833 2.33301 -73.5 6s-42.334 8.83398 -59.001 15.501s-27 15 -31 25c-10.667 26.667 -26 61.334 -46 104.001l-68 142l-81.5 165.5
l-88 175l-87 170.5l-78 152l-61 119l-36.5 72c-5.33301 11.333 -2.5 24.166 8.5 38.499s26.833 28.333 47.5 42s44 26.334 70 38.001s51.167 20.5 75.5 26.5s46 8.16699 65 6.5s31.5 -8.5 37.5 -20.5z" />
    <glyph glyph-name="w" unicode="w" horiz-adv-x="1998" 
d="M1625 1308c6 12 18.1641 20.167 36.4971 24.5s39.5 5.83301 63.5 4.5s48.833 -5.33301 74.5 -12s48.834 -14.667 69.501 -24s37.334 -19.833 50.001 -31.5s17.334 -23.5 14.001 -35.5c-4 -16 -11 -42.333 -21 -79l-35.5 -131.5l-46 -168l-53 -188l-55.5 -192.5
l-54 -180.5l-48.5 -152.5c-15 -45.333 -27.833 -81.333 -38.5 -108c-4 -10 -14.333 -18.333 -31 -25s-36.334 -11.834 -59.001 -15.501s-47.167 -5.66699 -73.5 -6s-51 0.833984 -74 3.50098s-43.167 7.16699 -60.5 13.5s-28.333 14.166 -33 23.499
c-14.667 28 -31.834 66 -51.501 114l-63 160.5l-69 186.5l-69.5 194l-70.5 -194l-69 -186.5l-62.5 -160.5c-19.333 -48 -36.333 -86 -51 -114c-4.66699 -9.33301 -15.667 -17.166 -33 -23.499s-37.5 -10.833 -60.5 -13.5s-47.667 -3.83398 -74 -3.50098
s-50.833 2.33301 -73.5 6s-42.334 8.83398 -59.001 15.501s-27 15 -31 25c-10.667 26.667 -23.5 62.667 -38.5 108l-48.5 152.5l-54 180.5l-55.5 192.5l-53 188l-46 168l-35.5 131.5c-10 36.667 -17 63 -21 79c-3.33301 12 1.33398 23.833 14.001 35.5
s29.334 22.167 50.001 31.5s43.834 17.333 69.501 24s50.5 10.667 74.5 12s45.167 -0.166992 63.5 -4.5s30.5 -12.5 36.5 -24.5l205 -868l285 821c3.33301 9.33301 12 17 26 23s30.667 10.5 50 13.5s40 4.5 62 4.5s42.667 -1.5 62 -4.5s36 -7.5 50 -13.5
s22.667 -13.667 26 -23l286 -821z" />
    <glyph glyph-name="x" unicode="x" horiz-adv-x="1340" 
d="M455 660l-128.998 163.999l-112.5 143.5l-86 109.5l-49.5 63c-8 10 -8.33301 23.333 -1 40s19.333 34.334 36 53.001s36.167 36.834 58.5 54.501s44.666 32.5 66.999 44.5s42.833 19.5 61.5 22.5s32.334 -0.5 41.001 -10.5l336 -412l336 412
c8.66699 10.667 22.334 14.334 41.001 11.001s39.167 -11 61.5 -23s44.666 -26.833 66.999 -44.5s41.833 -35.834 58.5 -54.501s28.667 -36.334 36 -53.001s7 -30 -1 -40l-49.5 -63l-86 -109.5l-112.5 -143.5l-129 -164l368 -451c9.33301 -10.667 11 -26 5 -46
s-17 -41 -33 -63s-35.5 -43.333 -58.5 -64s-46.5 -37.167 -70.5 -49.5s-47.333 -18.666 -70 -18.999s-41.334 8.5 -56.001 26.5l-51.5 62.5l-71.5 89l-86.5 109.5l-97.5 123l-98 -123l-87 -109.5l-71.5 -89l-50.5 -62.5c-14.667 -18 -33.334 -26.833 -56.001 -26.5
s-46 6.66602 -70 18.999s-47.5 28.833 -70.5 49.5s-42.5 42 -58.5 64s-27 43 -33 63s-4.33301 35.333 5 46z" />
    <glyph glyph-name="y" unicode="y" horiz-adv-x="1449" 
d="M863 638l65.5 239.496l57 209l43.5 157.5l24 86c3.33301 12 14.333 20.333 33 25s40.834 6.33398 66.501 5.00098s52.667 -5.16602 81 -11.499s54.166 -14.333 77.499 -24s42 -20.667 56 -33s19.333 -25.166 16 -38.499l-453 -1687c-3.33301 -14 -15 -24.167 -35 -30.5
s-43.5 -9.33301 -70.5 -9s-55.5 3.83301 -85.5 10.5s-57 16.334 -81 29.001s-42.667 28 -56 46s-17 38.333 -11 61l24.5 83.5l37.5 127.5l45 156l48 170l-141 193.5l-143.5 196l-135 185l-116 159.5l-87 119.5c-23.667 32.333 -39.5 54.5 -47.5 66.5
c-7.33301 10.667 -7 24.667 1 42s20.5 35.5 37.5 54.5s36.833 37.667 59.5 56s45 33.5 67 45.5s42.167 19.5 60.5 22.5s31.833 -0.833008 40.5 -11.5z" />
    <glyph glyph-name="z" unicode="z" horiz-adv-x="1133" 
d="M615 1015l-477.006 2.99902c-12.667 -0.666992 -23.5 7 -32.5 23s-16 36.667 -21 62s-7.83301 52.833 -8.5 82.5s1 57.5 5 83.5s10.167 47.833 18.5 65.5s19.5 27.167 33.5 28.5l801 -5c34 0 60.667 -6.5 80 -19.5s32.833 -29.833 40.5 -50.5
s10.334 -44.167 8.00098 -70.5s-7.5 -53.166 -15.5 -80.499s-18.167 -54 -30.5 -80s-25.166 -49 -38.499 -69c-5.33301 -8.66699 -11.833 -18.334 -19.5 -29.001l-31.5 -44l-52.5 -72l-83 -113l-123 -167.5l-172.5 -233.5l495 -6c14.667 0 27.834 -8.5 39.501 -25.5
s21.167 -38.167 28.5 -63.5s12 -52.666 14 -81.999s0.333008 -56.666 -5 -81.999s-14.666 -46.333 -27.999 -63s-31.666 -25 -54.999 -25l-695 4c-23.333 0 -47.166 4.16699 -71.499 12.5s-47 20.333 -68 36s-39 34.5 -54 56.5s-24.667 46.667 -29 74s-2 57.166 7 89.499
s26.833 66.5 53.5 102.5z" />
    <glyph glyph-name="braceleft" unicode="{" horiz-adv-x="1016" 
d="M437 -364c-28.667 25.333 -50.6709 58.6631 -66.0039 99.9961s-27 87.166 -35 137.499s-13.667 103.333 -17 159s-7 110.834 -11 165.501s-9.5 107.334 -16.5 158.001s-18.333 95.834 -34 135.501s-36.834 72 -63.501 97s-61.667 39.833 -105 44.5
c-20 2 -36.333 12.167 -49 30.5s-22.167 40.833 -28.5 67.5s-9.66602 55.334 -9.99902 86.001s1.83398 59.334 6.50098 86.001s11.834 49.334 21.501 68.001s21.167 29.334 34.5 32.001c28 5.33301 53.667 9.83301 77 13.5s43.833 9.66699 61.5 18
s31.834 20.833 42.501 37.5s17.334 40.667 20.001 72c22.667 157.333 49.5 297.833 80.5 421.5s70 227.5 117 311.5s103.833 146.333 170.5 187s147.667 57 243 49c17.333 -1.33301 31.333 -11.166 42 -29.5c10.667 -18.333 18.167 -40.833 22.5 -67.5s6 -55.167 5 -85.5
s-5 -58.333 -12 -84s-16.5 -46.834 -28.5 -63.501s-26.333 -24.334 -43 -23.001c-34 2.66699 -63.667 -3.83301 -89 -19.5s-47.333 -37.667 -66 -66s-34.167 -61.333 -46.5 -99s-22.833 -77.5 -31.5 -119.5s-15.834 -84.667 -21.501 -128s-10.5 -84.5 -14.5 -123.5
s-8 -74.667 -12 -107s-8.66699 -58.166 -14 -77.499c-6 -22 -12.5 -40.833 -19.5 -56.5s-15.5 -30.167 -25.5 -43.5s-21.667 -26 -35 -38s-29 -25 -47 -39c20 -15.333 38 -37.5 54 -66.5s30.167 -62 42.5 -99s23 -76.5 32 -118.5s16.667 -83.167 23 -123.5
s11.333 -78.333 15 -114s6.5 -65.834 8.5 -90.501s3.66699 -50.834 5 -78.501s3.83301 -55 7.5 -82s9.5 -52.833 17.5 -77.5s19.333 -46.5 34 -65.5s33.834 -34.167 57.501 -45.5s53.167 -17.333 88.5 -18c29.333 -0.666992 53.5 -9.16699 72.5 -25.5
s33.167 -36.666 42.5 -60.999s14 -50.833 14 -79.5s-4 -55.834 -12 -81.501s-19.833 -47.667 -35.5 -66s-34.5 -29.5 -56.5 -33.5c-31.333 -5.33301 -66.5 -5.5 -105.5 -0.5s-78 13.333 -117 25s-75.5 25.834 -109.5 42.501s-61 34 -81 52z" />
    <glyph glyph-name="bar" unicode="|" horiz-adv-x="496" 
d="M421 -151c0 -14.667 -8.66895 -27.5 -26.002 -38.5s-39.166 -19.667 -65.499 -26s-55 -10 -86 -11s-59.667 1.66699 -86 8s-48.166 16.5 -65.499 30.5s-26 32.667 -26 56l14 1997c0 12.667 8.33301 23.667 25 33s37.5 16.5 62.5 21.5s52 8 81 9s56 -0.166992 81 -3.5
s46 -9.33301 63 -18s25.5 -19.667 25.5 -33z" />
    <glyph glyph-name="braceright" unicode="}" horiz-adv-x="1001" 
d="M534 -364c-20 -18 -47.0039 -35.3281 -81.0039 -51.9951s-70.5 -30.834 -109.5 -42.501s-78.167 -20 -117.5 -25s-74.333 -4.83301 -105 0.5c-22 4 -40.833 15.167 -56.5 33.5s-27.5 40.333 -35.5 66s-12 52.834 -12 81.501s4.66699 55.167 14 79.5
s23.5 44.666 42.5 60.999s43.167 24.833 72.5 25.5c35.333 0.666992 64.833 6.66699 88.5 18s42.834 26.5 57.501 45.5s26 40.833 34 65.5s13.833 50.5 17.5 77.5s6.16699 54.167 7.5 81.5s3 53.666 5 78.999c2 24.667 4.83301 54.834 8.5 90.501s8.66699 73.667 15 114
s14 81.5 23 123.5s19.667 81.5 32 118.5s26.5 70 42.5 99s34 51.167 54 66.5c-18 14 -33.667 27 -47 39s-25 24.667 -35 38s-18.5 27.833 -25.5 43.5s-13.5 34.5 -19.5 56.5c-5.33301 19.333 -10 45.166 -14 77.499s-8 68 -12 107s-8.83301 80.167 -14.5 123.5
s-12.834 86 -21.501 128s-19.167 81.833 -31.5 119.5s-27.833 70.667 -46.5 99s-40.667 50.333 -66 66s-55 22.167 -89 19.5c-16.667 -1.33301 -31 6.33398 -43 23.001s-21.5 37.834 -28.5 63.501s-11 53.667 -12 84s0.666992 58.833 5 85.5s11.833 49.167 22.5 67.501
c10.667 18.333 24.667 28.166 42 29.499c94.667 8 175.5 -8.33301 242.5 -49s124 -103 171 -187s86 -187.833 117 -311.5s57.833 -264.167 80.5 -421.5c2.66699 -31.333 9.33398 -55.333 20.001 -72s24.834 -29.167 42.501 -37.5s38.167 -14.333 61.5 -18
s49 -8.16699 77 -13.5c13.333 -2.66699 24.833 -13.334 34.5 -32.001s16.834 -41.334 21.501 -68.001s6.83398 -55.334 6.50098 -86.001s-3.66602 -59.334 -9.99902 -86.001s-15.833 -49.167 -28.5 -67.5s-29 -28.5 -49 -30.5c-43.333 -4.66699 -78.333 -19.5 -105 -44.5
s-47.834 -57.333 -63.501 -97s-27 -84.834 -34 -135.501s-12.5 -103.334 -16.5 -158.001s-7.66699 -109.834 -11 -165.501s-9 -108.667 -17 -159s-19.667 -96.166 -35 -137.499s-37.333 -74.666 -66 -99.999z" />
    <glyph glyph-name="asciitilde" unicode="~" horiz-adv-x="1133" 
d="M268 586c-5.33301 -12 -14.8369 -18.4932 -28.5039 -19.4932s-28.667 1.66699 -45 8s-32.833 15.666 -49.5 27.999s-30.834 26.166 -42.501 41.499s-19.667 31.333 -24 48s-2.16602 32.667 6.50098 48c24.667 45.333 50.167 81.833 76.5 109.5s53 48.667 80 63
s54.5 22.5 82.5 24.5s56.333 -0.333008 85 -7s57.667 -16.834 87 -30.501s59 -29.167 89 -46.5c34.667 -20 62.834 -31.333 84.501 -34s40.167 0.5 55.5 9.5s29 22.667 41 41l41 60.5c11.333 16 25.833 26.667 43.5 32s36.334 6.66602 56.001 3.99902
s38.834 -8.83398 57.501 -18.501s34.5 -21.167 47.5 -34.5s22.333 -28 28 -44s4.83398 -31.667 -2.49902 -47c-26.667 -56.667 -58.834 -105.334 -96.501 -146.001s-78.667 -70.834 -123 -90.501s-90.833 -27.167 -139.5 -22.5s-97 23.667 -145 57
c-28.667 19.333 -55 35.833 -79 49.5s-46.5 21 -67.5 22s-41.167 -6.5 -60.5 -22.5s-38.666 -43.667 -57.999 -83z" />
    <glyph glyph-name="exclamdown" unicode="&#xa1;" horiz-adv-x="553" 
d="M209.016 1301.02c-45.9971 -1.33301 -84.1611 7.16504 -114.492 25.498c-30.332 18.332 -53.3311 41.4971 -68.9961 69.4951c-15.666 27.999 -23.666 58.6641 -23.999 91.9951s6.83301 64.3291 21.498 92.9941c14.666 28.665 36.8311 52.6631 66.4961 71.9951
c29.665 19.333 66.8291 28.999 111.493 28.999c40.6641 0 74.9951 -9.16602 102.994 -27.499c27.998 -18.332 49.4971 -41.4971 64.4961 -69.4951c14.999 -27.999 22.998 -58.1641 23.998 -90.4951s-5 -62.6621 -17.999 -90.9932s-33.1641 -52.1631 -60.4951 -71.4961
c-27.332 -19.332 -62.3301 -29.665 -104.994 -30.998zM375.006 -34.8984c0 -13.999 -8.83398 -26.665 -26.499 -37.998c-17.666 -11.333 -39.665 -20.166 -65.9961 -26.499c-26.332 -6.33301 -54.8301 -9.99902 -85.4951 -10.998
c-30.665 -1 -59.1631 1.66602 -85.4941 7.99902c-26.332 6.33301 -48.1641 16.499 -65.4961 30.498c-17.333 13.999 -25.999 32.665 -25.999 55.9971l11 1199.93c0 12.665 8.49902 23.498 25.498 32.498c16.999 8.99902 37.998 16.165 62.9971 21.498
s51.9971 8.5 80.9951 9.5s55.9961 -0.166992 80.9951 -3.5s45.8311 -9.16602 62.4961 -17.499s24.998 -19.499 24.998 -33.498z" />
    <glyph glyph-name="cent" unicode="&#xa2;" horiz-adv-x="1522" 
d="M973 1501c82.667 -20 155.331 -54.9951 217.998 -104.995s109.334 -112.333 140.001 -187c6.66699 -16 4.83398 -32.5 -5.49902 -49.5s-25.333 -33 -45 -48s-42.334 -28.333 -68.001 -40s-50.667 -20.167 -75 -25.5s-46.333 -6.83301 -66 -4.5
s-33.167 10.166 -40.5 23.499c-14 25.333 -31.667 47 -53 65l7 -561c18 12.667 34.667 26.167 50 40.5s28.666 28.5 39.999 42.5c12.667 16 29.5 24.333 50.5 25s43 -4 66 -14s45.667 -23.833 68 -41.5s41.333 -36.5 57 -56.5s26.5 -39.667 32.5 -59s4.33301 -36 -5 -50
c-19.333 -28 -41.666 -55 -66.999 -81s-53 -50.5 -83 -73.5s-62.167 -43.5 -96.5 -61.5s-70.166 -33 -107.499 -45l2 -128c0 -10 -8.5 -19 -25.5 -27s-38.333 -14.333 -64 -19s-53.667 -7.33398 -84 -8.00098s-58.333 1.33301 -84 6s-47 12 -64 22s-25.5 23.333 -25.5 40
v111c-76 20 -142.167 51.667 -198.5 95s-103.333 94.166 -141 152.499s-65.667 122.166 -84 191.499s-27.333 139.666 -27 210.999s9.83301 141.666 28.5 210.999s46.834 133.333 84.501 192s84.334 109.834 140.001 153.501s120.5 75.834 194.5 96.501v126
c0 9.33301 8.16699 17.166 24.5 23.499s36.666 11.333 60.999 15s50.666 6 78.999 7s54.833 0.166992 79.5 -2.5s45.167 -7 61.5 -13s24.5 -13.667 24.5 -23zM642.997 1130c-30 -21.333 -55.167 -47.668 -75.5 -79.001s-35.5 -65.166 -45.5 -101.499s-15 -73.833 -15 -112.5
s5 -76 15 -112s25.167 -69.5 45.5 -100.5s45.833 -56.5 76.5 -76.5z" />
    <glyph glyph-name="sterling" unicode="&#xa3;" 
d="M222 1026c2 80.667 6.49902 148.998 13.499 204.998s15.833 103.667 26.5 143s22.667 72.5 36 99.5s27.666 51.5 42.999 73.5c33.333 48 70 86.167 110 114.5s79.333 49.833 118 64.5s74.167 24.334 106.5 29.001s57.5 7.66699 75.5 9c34 2 70.333 0 109 -6
s75.667 -14.833 111 -26.5s67.333 -25.834 96 -42.501s50 -35 64 -55c11.333 -16 17.666 -35.5 18.999 -58.5s-1.16699 -46.333 -7.5 -70s-15.666 -46.334 -27.999 -68.001s-26.666 -39.5 -42.999 -53.5s-34.166 -22.333 -53.499 -25s-38.666 3 -57.999 17
c-36 25.333 -71 41.833 -105 49.5s-64.333 9.83398 -91 6.50098c-59.333 -8 -105.333 -45 -138 -111c-17.333 -35.333 -30.5 -77.5 -39.5 -126.5s-15.167 -105.167 -18.5 -168.5h433c14 0 26.667 -8.33301 38 -25s20.333 -37.5 27 -62.5s10.667 -52 12 -81s-1 -56 -7 -81
s-16 -45.833 -30 -62.5s-32.667 -25 -56 -25l-415 -1l4 -389l541 6c14 0 26.667 -8.66699 38 -26s20.166 -39 26.499 -65s10 -54 11 -84s-1.66699 -58 -8 -84s-16.5 -47.5 -30.5 -64.5s-32.667 -25.5 -56 -25.5c-102.667 0 -189.334 0.166992 -260.001 0.5
s-128.834 0.5 -174.501 0.5s-81 0.166992 -106 0.5s-43.333 0.5 -55 0.5h-20.5h-3c-52 0.666992 -94.333 8 -127 22s-58.5 34.833 -77.5 62.5s-32.167 62.334 -39.5 104.001s-11 90.834 -11 147.501l-1 394h-83c-12.667 0 -23.667 8.33301 -33 25s-16.666 37.5 -21.999 62.5
s-8.66602 52.167 -9.99902 81.5s-0.333008 56.5 3 81.5s9 45.833 17 62.5s19 25 33 25h96z" />
    <glyph glyph-name="dieresis" unicode="&#xa8;" horiz-adv-x="922" 
d="M315 1500c-28 -0.666992 -51.498 4.66992 -70.498 16.0029s-33.167 26 -42.5 44s-14 37.5 -14 58.5s4.5 40.667 13.5 59s22.667 33.666 41 45.999s41.166 18.5 68.499 18.5c24.667 0 45.667 -5.83301 63 -17.5s30.666 -26.334 39.999 -44.001s14.333 -36.834 15 -57.501
s-3 -40 -11 -58s-20.5 -33.167 -37.5 -45.5s-38.833 -18.833 -65.5 -19.5zM607.002 1495c-28 -0.666992 -51.4971 4.83398 -70.4971 16.501s-33.333 26.334 -43 44.001s-14.667 37.167 -15 58.5s4 41 13 59s22.667 33.167 41 45.5s41.166 18.5 68.499 18.5
c25.333 0 46.666 -5.83301 63.999 -17.5s30.666 -26.334 39.999 -44.001s14.333 -36.834 15 -57.501s-3 -40 -11 -58s-20.5 -33.167 -37.5 -45.5s-38.5 -18.833 -64.5 -19.5z" />
    <glyph glyph-name="copyright" unicode="&#xa9;" horiz-adv-x="2100" 
d="M1274 765c9.33301 12 21.5059 18.1621 36.5059 18.4951s31 -3.16699 48 -10.5s33.667 -17.333 50 -30s30.166 -26.167 41.499 -40.5s19.166 -28.666 23.499 -42.999s3.16602 -26.5 -3.50098 -36.5c-19.333 -27.333 -42.166 -53.5 -68.499 -78.5s-55.5 -47 -87.5 -66
s-66.5 -34.333 -103.5 -46s-75.5 -17.5 -115.5 -17.5c-78 -0.666992 -145.833 12.833 -203.5 40.5s-105.834 64.5 -144.501 110.5s-67.334 98.5 -86.001 157.5s-27.834 119.167 -27.501 180.5s10.166 121.5 29.499 180.5s48 111.667 86 158s85.5 83.5 142.5 111.5
s123.167 42 198.5 42c42 0 82.167 -5.16699 120.5 -15.5s73.666 -25.166 105.999 -44.499s60.833 -43 85.5 -71s44 -59.333 58 -94c4.66699 -12 3.33398 -24.167 -3.99902 -36.5s-18.166 -24 -32.499 -35s-30.833 -20.667 -49.5 -29s-36.834 -14.5 -54.501 -18.5
s-33.667 -5.16699 -48 -3.5s-24.166 7.5 -29.499 17.5c-16 28.667 -38.5 50.667 -67.5 66s-66.5 21 -112.5 17c-33.333 -2.66699 -62.666 -11.667 -87.999 -27s-46.5 -34.833 -63.5 -58.5s-29.667 -50 -38 -79s-12.333 -58.667 -12 -89s5.16602 -59.666 14.499 -87.999
s22.833 -53.666 40.5 -75.999s39.834 -40.333 66.501 -54s58 -20.5 94 -20.5c19.333 0 38.666 3.33301 57.999 10s37.666 15.167 54.999 25.5s33.333 21.833 48 34.5s27 25.334 37 38.001zM1103.01 -38.0049c-131.333 -1.33301 -249.166 15.333 -353.499 50
s-195.5 82 -273.5 142s-142.833 130.333 -194.5 211s-90.334 166.334 -116.001 257.001s-38.167 183.834 -37.5 279.501s14.167 189 40.5 280s65.333 176.833 117 257.5s116 151.167 193 211.5s166.667 108.166 269 143.499s217.166 52.666 344.499 51.999
c121.333 0 230.5 -17.667 327.5 -53s181.833 -83 254.5 -143s133 -130 181 -210s84.167 -165 108.5 -255s36.5 -182.667 36.5 -278s-12 -188 -36 -278s-60 -175.333 -108 -256s-108 -151.167 -180 -211.5s-155.667 -108.5 -251 -144.5s-202.666 -54.333 -321.999 -55z
M1055.01 1552.99c-77.333 -4 -147.002 -19.3359 -209.002 -46.0029s-116.167 -61.167 -162.5 -103.5s-85 -91.166 -116 -146.499s-54 -113.666 -69 -174.999s-22 -124.166 -21 -188.499s9.83301 -126.833 26.5 -187.5s41.334 -118 74.001 -172s73.667 -101.167 123 -141.5
s106.5 -72.333 171.5 -96s138.5 -35.834 220.5 -36.501c74 -0.666992 141 11.333 201 36s112.667 58.167 158 100.5s83.333 91.833 114 148.5s53.834 116.667 69.501 180s23.5 128.333 23.5 195s-7.83301 131.334 -23.5 194.001s-39.5 121.5 -71.5 176.5
s-72 102.667 -120 143s-104.333 71.333 -169 93s-138 30.5 -220 26.5z" />
    <glyph glyph-name="guillemotleft" unicode="&#xab;" horiz-adv-x="2065" 
d="M585 809l421.998 -233.003c12 -6 18.833 -18.333 20.5 -37s-0.5 -40.167 -6.5 -64.5s-14.833 -49.666 -26.5 -75.999s-24.334 -49.666 -38.001 -69.999s-27.667 -36.166 -42 -47.499s-27.166 -14.333 -38.499 -9l-703 364c-9.33301 4.66699 -17 15.5 -23 32.5
s-10.5 36.833 -13.5 59.5s-4.16699 47 -3.5 73s2.83398 50.5 6.50098 73.5s8.83398 42.833 15.501 59.5s14.667 27.667 24 33l714 370c11.333 5.33301 24.166 2.5 38.499 -8.5s28.333 -26.833 42 -47.5s26.334 -44 38.001 -70s20.5 -51.167 26.5 -75.5s8.16699 -46 6.5 -65
s-8.5 -31.5 -20.5 -37.5zM1450 812.997l421.998 -233.003c12 -6 18.833 -18.333 20.5 -37s-0.5 -40.167 -6.5 -64.5s-14.833 -49.666 -26.5 -75.999s-24.334 -49.666 -38.001 -69.999s-27.667 -36.166 -42 -47.499s-27.166 -14.333 -38.499 -9l-703 364
c-9.33301 4.66699 -17 15.5 -23 32.5s-10.5 36.833 -13.5 59.5s-4.16699 47 -3.5 73s2.83398 50.5 6.50098 73.5s8.83398 42.833 15.501 59.5s14.667 27.667 24 33l714 370c11.333 5.33301 24.166 2.5 38.499 -8.5s28.333 -26.833 42 -47.5s26.334 -44 38.001 -70
s20.5 -51.167 26.5 -75.5s8.16699 -46 6.5 -65s-8.5 -31.5 -20.5 -37.5z" />
    <glyph glyph-name="registered" unicode="&#xae;" horiz-adv-x="2100" 
d="M1103 -38c-131.333 -1.33301 -249.166 15.333 -353.499 50s-195.5 82 -273.5 142s-142.833 130.333 -194.5 211s-90.334 166.334 -116.001 257.001s-38.167 183.834 -37.5 279.501s14.167 189 40.5 280s65.333 176.833 117 257.5s116 151.167 193 211.5
s166.667 108.166 269 143.499s217.166 52.666 344.499 51.999c121.333 0 230.5 -17.667 327.5 -53s181.833 -83 254.5 -143s133 -130 181 -210s84.167 -165 108.5 -255s36.5 -182.667 36.5 -278s-12 -188 -36 -278s-60 -175.333 -108 -256s-108 -151.167 -180 -211.5
s-155.667 -108.5 -251 -144.5s-202.666 -54.333 -321.999 -55zM1055 1553c-77.333 -4 -147.002 -19.3359 -209.002 -46.0029s-116.167 -61.167 -162.5 -103.5s-85 -91.166 -116 -146.499s-54 -113.666 -69 -174.999s-22 -124.166 -21 -188.499s9.83301 -126.833 26.5 -187.5
s41.334 -118 74.001 -172s73.667 -101.167 123 -141.5s106.5 -72.333 171.5 -96s138.5 -35.834 220.5 -36.501c74 -0.666992 141 11.333 201 36s112.667 58.167 158 100.5s83.333 91.833 114 148.5s53.834 116.667 69.501 180s23.5 128.333 23.5 195
s-7.83301 131.334 -23.5 194.001s-39.5 121.5 -71.5 176.5s-72 102.667 -120 143s-104.333 71.333 -169 93s-138 30.5 -220 26.5zM1038 1472c46.667 -3.33301 94.498 -11 143.498 -23s93.5 -30.333 133.5 -55s73.333 -56.167 100 -94.5s41.334 -85.166 44.001 -140.499
s-5.5 -102.333 -24.5 -141s-44.5 -70.834 -76.5 -96.501s-67.833 -45.5 -107.5 -59.5s-78.5 -24 -116.5 -30l327 -289c6.66699 -5.33301 9.16699 -14.166 7.5 -26.499s-6 -25.666 -13 -39.999s-16 -28.666 -27 -42.999s-22.833 -26.166 -35.5 -35.499
s-25.5 -15.333 -38.5 -18s-24.5 0.333008 -34.5 9l-374 342l4 -307c0 -8 -5.16699 -15.333 -15.5 -22s-23.166 -11.834 -38.499 -15.501s-32 -5.83398 -50 -6.50098s-34.667 0.833008 -50 4.5s-28.166 9.5 -38.499 17.5s-15.5 19 -15.5 33c0 16.667 0.166992 41.667 0.5 75
s0.666016 72.166 0.999023 116.499s0.5 92.5 0.5 144.5v157.5c0 53 0.166992 105.333 0.5 157s0.5 99.167 0.5 142.5c0 39.333 1.16699 73.166 3.5 101.499s7 52 14 71s16.667 33.5 29 43.5s28.5 16 48.5 18c32.667 4 65.667 7.33301 99 10s66.333 2.66699 99 0z
M953.996 1022c8.66699 -1.33301 22.501 -2.33203 41.501 -2.99902s40 0.166016 63 2.49902s46.5 6.16602 70.5 11.499s45.667 13.5 65 24.5s34.666 25 45.999 42s16 38.167 14 63.5c-2 28.667 -13.333 51.834 -34 69.501s-46 31 -76 40s-62.167 14.167 -96.5 15.5
s-66.5 0 -96.5 -4z" />
    <glyph glyph-name="macron" unicode="&#xaf;" horiz-adv-x="887" 
d="M693 1700c11.333 0 21.667 -4.66699 31 -14s16.666 -21 21.999 -35s8.33301 -29.167 9 -45.5s-1.5 -31.5 -6.5 -45.5s-13.333 -25.5 -25 -34.5s-27.167 -13.5 -46.5 -13.5h-505c-10.667 0 -19.5 4.66699 -26.5 14s-12.667 20.833 -17 34.5s-6.66602 28.5 -6.99902 44.5
s1 30.833 4 44.5s8 25 15 34s16.167 13.5 27.5 13.5z" />
    <glyph glyph-name="acute" unicode="&#xb4;" horiz-adv-x="459" 
d="M232 1748c4 6 10.834 8.33496 20.501 7.00195s20.167 -4.83301 31.5 -10.5s22.833 -13 34.5 -22s22 -18.333 31 -28s15.5 -18.834 19.5 -27.501s4.33301 -15.667 1 -21l-146 -193c-7.33301 -10 -16.5 -15.5 -27.5 -16.5s-22.833 1 -35.5 6s-25 12.167 -37 21.5
s-22.333 19.166 -31 29.499s-14.834 20.5 -18.501 30.5s-3.16699 18 1.5 24z" />
    <glyph glyph-name="cedilla" unicode="&#xb8;" horiz-adv-x="574" 
d="M137 -335c-18.667 12 -29.3301 26.6719 -31.9971 44.0049s-1 33.166 5 47.499s14.667 25.333 26 33s21.666 8.5 30.999 2.5c13.333 -9.33301 29.666 -18 48.999 -26s38.666 -13 57.999 -15s37.166 0.166992 53.499 6.5s28.5 19.5 36.5 39.5c4 10 1.66699 18.667 -7 26
s-21.5 13.666 -38.5 18.999s-36.833 9.33301 -59.5 12s-46 4.66699 -70 6c-5.33301 0 -10.5 0.666992 -15.5 2s-9.33301 4.16602 -13 8.49902s-6.5 10.833 -8.5 19.5s-2.66699 20.334 -2 35.001l3 110l142 -3c0 -4 -0.666992 -9.5 -2 -16.5s-2.5 -14.5 -3.5 -22.5
s-1.33301 -15.833 -1 -23.5s2.5 -13.834 6.5 -18.501c71.333 -4 127.333 -20.333 168 -49s60.667 -66.334 60 -113.001c-0.666992 -26 -7.66699 -48.833 -21 -68.5s-30.833 -36.334 -52.5 -50.001s-46.167 -24 -73.5 -31s-55.166 -11 -83.499 -12s-56 1.5 -83 7.5
s-51.167 15.333 -72.5 28v2v0z" />
    <glyph glyph-name="guillemotright" unicode="&#xbb;" horiz-adv-x="2035" 
d="M173 867c-12 6 -18.835 18.5029 -20.502 37.5029s0.5 40.667 6.5 65s14.833 49.5 26.5 75.5s24.334 49.333 38.001 70s27.667 36.5 42 47.5s27.166 13.833 38.499 8.5l714 -370c9.33301 -4.66699 17.333 -15.5 24 -32.5s11.834 -37 15.501 -60
s5.83398 -47.5 6.50098 -73.5s-0.5 -50.333 -3.5 -73s-7.5 -42.5 -13.5 -59.5s-13.667 -27.833 -23 -32.5l-703 -364c-11.333 -5.33301 -24.166 -2.33301 -38.499 9s-28.333 27.166 -42 47.499s-26.334 43.666 -38.001 69.999s-20.5 51.666 -26.5 75.999
s-8.16699 45.833 -6.5 64.5s8.5 31 20.5 37l422 233zM1028 880.003c-12 6 -18.835 18.5029 -20.502 37.5029s0.5 40.667 6.5 65s14.833 49.5 26.5 75.5s24.334 49.333 38.001 70s27.667 36.5 42 47.5s27.166 13.833 38.499 8.5l714 -370
c9.33301 -5.33301 17.333 -16.333 24 -33s11.834 -36.5 15.501 -59.5s5.83398 -47.5 6.50098 -73.5s-0.5 -50.333 -3.5 -73s-7.5 -42.5 -13.5 -59.5s-13.667 -27.833 -23 -32.5l-703 -364c-11.333 -5.33301 -24.166 -2.33301 -38.499 9s-28.333 27.166 -42 47.499
s-26.334 43.666 -38.001 69.999s-20.5 51.666 -26.5 75.999s-8.16699 45.833 -6.5 64.5s8.5 31 20.5 37l422 233z" />
    <glyph glyph-name="questiondown" unicode="&#xbf;" horiz-adv-x="1320" 
d="M814.026 818.048c0.666992 -25.998 -2.50391 -47.3242 -9.50293 -63.9902c-7 -16.665 -16.666 -30.1641 -28.998 -40.4971c-12.333 -10.333 -26.999 -17.999 -43.998 -22.999c-16.999 -4.99902 -35.498 -8.83203 -55.4971 -11.499
c-52.6631 -6 -99.9932 -16.833 -141.99 -32.498c-41.9971 -15.666 -77.9951 -35.8311 -107.994 -60.4961c-29.998 -24.665 -53.6631 -53.9971 -70.9951 -87.9951s-27.3311 -72.3291 -29.998 -114.993c-2 -33.3311 3.66602 -65.8291 16.999 -97.4941
c13.332 -31.665 32.4971 -59.4961 57.4961 -83.4941c24.999 -23.999 54.4971 -43.165 88.4951 -57.498c33.9971 -14.333 70.3281 -21.166 108.993 -20.499c43.3311 0.666992 81.9951 8.5 115.993 23.499c33.9971 14.999 62.9951 34.6641 86.9941 58.9951
c23.999 24.332 42.498 52.1641 55.4971 83.4951s20.498 63.3291 22.498 95.9941c0.666992 14.666 8.83301 27.165 24.499 37.498c15.665 10.333 34.9971 18.166 57.9961 23.499s47.8311 8.33301 74.4961 9s51.4971 -1 74.4961 -5c22.998 -4 41.9971 -10.333 56.9961 -18.999
s22.499 -19.999 22.499 -33.998c0 -62.6631 -7.5 -120.159 -22.499 -172.489s-35.8311 -99.8271 -62.4961 -142.491s-58.1631 -80.1621 -94.4941 -112.493s-75.9951 -59.6631 -118.992 -81.9951s-88.1611 -39.3311 -135.491 -50.9971
c-47.3311 -11.665 -95.3281 -18.1641 -143.991 -19.4971c-47.3311 -1.33301 -95.4951 2.5 -144.492 11.499s-96.1611 22.998 -141.492 41.9971s-87.8281 43.1641 -127.492 72.4961c-39.6641 29.3311 -74.4951 63.9951 -104.494 103.992
c-29.998 39.998 -53.8301 85.3291 -71.4951 135.992c-17.666 50.6631 -27.166 106.659 -28.499 167.988c-1.33301 65.3291 7.66699 128.992 26.999 190.988s49.6631 118.826 90.9941 170.49c41.3311 51.6631 93.8281 96.4932 157.491 134.49
c63.6631 37.998 139.492 65.6631 227.487 82.9951l-4 190.988c0.666992 16.665 8.83301 30.6641 24.499 41.9971c15.665 11.332 34.9971 19.665 57.9961 24.998s47.998 7.66602 74.9971 6.99902c26.998 -0.666992 51.9961 -4.33398 74.9951 -11.001
c22.999 -6.66602 42.1641 -16.499 57.4961 -29.498c15.333 -12.999 23.333 -29.498 24 -49.4971zM647.032 1241.03c-45.9971 -1.33301 -84.1641 7.16602 -114.495 25.498s-53.3301 41.4971 -68.9961 69.4961c-15.665 27.998 -23.6641 58.6631 -23.9971 91.9941
s6.83301 64.3291 21.498 92.9941c14.666 28.665 36.8311 52.6641 66.4961 71.9971c29.665 19.332 66.8291 28.998 111.493 28.998c40.6641 0 74.9951 -9.16602 102.994 -27.498c27.998 -18.333 49.4971 -41.498 64.4961 -69.4961s22.998 -58.1631 23.998 -90.4941
s-5 -62.6631 -17.999 -90.9951c-12.999 -28.3311 -33.1641 -52.1631 -60.4951 -71.4951c-27.3311 -19.333 -62.3291 -29.666 -104.993 -30.999z" />
    <glyph glyph-name="Agrave" unicode="&#xc0;" horiz-adv-x="1661" 
d="M1130 372l-593.998 4l-139 -377c-4.66699 -12.667 -16.667 -21.5 -36 -26.5s-41.833 -6.5 -67.5 -4.5s-52.5 7.16699 -80.5 15.5s-52.833 19.333 -74.5 33s-38.334 29.5 -50.001 47.5s-13.834 37.667 -6.50098 59c4 12.667 11.833 35.667 23.5 69l44 123l59.5 165
l69.5 194l75.5 210l77 212.5l73 202l64.5 179.5l51.5 143.5l33 94.5c4.66699 13.333 15.5 24.166 32.5 32.499s37.167 14.5 60.5 18.5s48.333 5.83301 75 5.5s51.667 -2.66602 75 -6.99902s43.666 -10.5 60.999 -18.5s28.333 -17.333 33 -28
c12 -26.667 29 -68.167 51 -124.5l76 -197.5l92 -245.5l98.5 -266.5l96.5 -262.5l84.5 -233l63 -177l33.5 -95.5c6.66699 -21.333 4.33398 -41 -6.99902 -59s-27.833 -33.833 -49.5 -47.5s-46.5 -24.667 -74.5 -33s-54.833 -13.5 -80.5 -15.5s-48.167 -0.5 -67.5 4.5
s-31.333 13.833 -36 26.5zM661.002 715l344 -1l-172 469zM970.002 1922c4.66699 -6 5.16797 -14.001 1.50098 -24.001s-9.83398 -20.167 -18.501 -30.5s-19 -20.166 -31 -29.499s-24.333 -16.5 -37 -21.5s-24.667 -7 -36 -6s-20.333 6.5 -27 16.5l-146 193
c-4 5.33301 -3.83301 12.333 0.5 21s11 17.834 20 27.5c9 9.66699 19.333 19 31 28s23.167 16.333 34.5 22s21.833 9.16699 31.5 10.5s16.5 -1 20.5 -7z" />
    <glyph glyph-name="Aacute" unicode="&#xc1;" horiz-adv-x="1661" 
d="M1130 372l-593.998 4l-139 -377c-4.66699 -12.667 -16.667 -21.5 -36 -26.5s-41.833 -6.5 -67.5 -4.5s-52.5 7.16699 -80.5 15.5s-52.833 19.333 -74.5 33s-38.334 29.5 -50.001 47.5s-13.834 37.667 -6.50098 59c4 12.667 11.833 35.667 23.5 69l44 123l59.5 165
l69.5 194l75.5 210l77 212.5l73 202l64.5 179.5l51.5 143.5l33 94.5c4.66699 13.333 15.5 24.166 32.5 32.499s37.167 14.5 60.5 18.5s48.333 5.83301 75 5.5s51.667 -2.66602 75 -6.99902s43.666 -10.5 60.999 -18.5s28.333 -17.333 33 -28
c12 -26.667 29 -68.167 51 -124.5l76 -197.5l92 -245.5l98.5 -266.5l96.5 -262.5l84.5 -233l63 -177l33.5 -95.5c6.66699 -21.333 4.33398 -41 -6.99902 -59s-27.833 -33.833 -49.5 -47.5s-46.5 -24.667 -74.5 -33s-54.833 -13.5 -80.5 -15.5s-48.167 -0.5 -67.5 4.5
s-31.333 13.833 -36 26.5zM661.002 715l344 -1l-172 469zM854.002 2103c4 6 10.834 8.33496 20.501 7.00195s20.167 -4.83301 31.5 -10.5s22.833 -13 34.5 -22s22 -18.333 31 -28s15.5 -18.834 19.5 -27.501s4.33301 -15.667 1 -21l-146 -193
c-7.33301 -10 -16.5 -15.5 -27.5 -16.5s-22.833 1 -35.5 6s-25 12.167 -37 21.5s-22.333 19.166 -31 29.499s-14.834 20.5 -18.501 30.5s-3.16699 18 1.5 24z" />
    <glyph glyph-name="Acircumflex" unicode="&#xc2;" horiz-adv-x="1661" 
d="M1130 372l-593.998 4l-139 -377c-4.66699 -12.667 -16.667 -21.5 -36 -26.5s-41.833 -6.5 -67.5 -4.5s-52.5 7.16699 -80.5 15.5s-52.833 19.333 -74.5 33s-38.334 29.5 -50.001 47.5s-13.834 37.667 -6.50098 59c4 12.667 11.833 35.667 23.5 69l44 123l59.5 165
l69.5 194l75.5 210l77 212.5l73 202l64.5 179.5l51.5 143.5l33 94.5c4.66699 13.333 15.5 24.166 32.5 32.499s37.167 14.5 60.5 18.5s48.333 5.83301 75 5.5s51.667 -2.66602 75 -6.99902s43.666 -10.5 60.999 -18.5s28.333 -17.333 33 -28
c12 -26.667 29 -68.167 51 -124.5l76 -197.5l92 -245.5l98.5 -266.5l96.5 -262.5l84.5 -233l63 -177l33.5 -95.5c6.66699 -21.333 4.33398 -41 -6.99902 -59s-27.833 -33.833 -49.5 -47.5s-46.5 -24.667 -74.5 -33s-54.833 -13.5 -80.5 -15.5s-48.167 -0.5 -67.5 4.5
s-31.333 13.833 -36 26.5zM661.002 715l344 -1l-172 469zM834.002 1954l-38.001 -83.998c-3.33301 -6.66699 -10.333 -10.5 -21 -11.5s-23.167 -0.166992 -37.5 2.5s-29 7 -44 13s-28.5 12.667 -40.5 20s-21.5 14.666 -28.5 21.999s-8.83301 14.333 -5.5 21l109 240
c4 8 15.333 14 34 18s38.667 6 60 6s41.5 -1.83301 60.5 -5.5s30.5 -9.5 34.5 -17.5l133 -235c3.33301 -6 1.83301 -13 -4.5 -21s-15.166 -15.833 -26.499 -23.5s-24.333 -14.834 -39 -21.501s-29 -11.834 -43 -15.501s-26.5 -5.16699 -37.5 -4.5
s-18.167 4.33398 -21.5 11.001z" />
    <glyph glyph-name="Atilde" unicode="&#xc3;" horiz-adv-x="1661" 
d="M1130 372l-593.998 4l-139 -377c-4.66699 -12.667 -16.667 -21.5 -36 -26.5s-41.833 -6.5 -67.5 -4.5s-52.5 7.16699 -80.5 15.5s-52.833 19.333 -74.5 33s-38.334 29.5 -50.001 47.5s-13.834 37.667 -6.50098 59c4 12.667 11.833 35.667 23.5 69l44 123l59.5 165
l69.5 194l75.5 210l77 212.5l73 202l64.5 179.5l51.5 143.5l33 94.5c4.66699 13.333 15.5 24.166 32.5 32.499s37.167 14.5 60.5 18.5s48.333 5.83301 75 5.5s51.667 -2.66602 75 -6.99902s43.666 -10.5 60.999 -18.5s28.333 -17.333 33 -28
c12 -26.667 29 -68.167 51 -124.5l76 -197.5l92 -245.5l98.5 -266.5l96.5 -262.5l84.5 -233l63 -177l33.5 -95.5c6.66699 -21.333 4.33398 -41 -6.99902 -59s-27.833 -33.833 -49.5 -47.5s-46.5 -24.667 -74.5 -33s-54.833 -13.5 -80.5 -15.5s-48.167 -0.5 -67.5 4.5
s-31.333 13.833 -36 26.5zM661.002 715l344 -1l-172 469zM684.002 1909c-4 -8 -10.6719 -12.3291 -20.0049 -12.9961s-19.5 1.16602 -30.5 5.49902s-22.167 10.666 -33.5 18.999s-21.166 17.666 -29.499 27.999s-14 21.166 -17 32.499s-1.5 22.333 4.5 33
c26 46 52.667 79.333 80 100s55.333 32.167 84 34.5s58 -2.16699 88 -13.5s60.333 -26 91 -44c24 -14 43.333 -22.5 58 -25.5s27.334 -2.16699 38.001 2.5s20 12.5 28 23.5l28 38.5c8 11.333 18 18.666 30 22c12 3.33301 24.667 4 38 2s26.5 -6.16699 39.5 -12.5
s24 -14 33 -23s15.333 -19 19 -30s3.16699 -21.833 -1.5 -32.5c-18 -38.667 -40 -71.167 -66 -97.5s-54.167 -45.166 -84.5 -56.499s-62.166 -14.833 -95.499 -10.5s-66.666 17.833 -99.999 40.5c-19.333 13.333 -37.333 24.666 -54 33.999s-32.167 14.333 -46.5 15
s-28.166 -4.5 -41.499 -15.5s-26.333 -29.833 -39 -56.5z" />
    <glyph glyph-name="Adieresis" unicode="&#xc4;" horiz-adv-x="1661" 
d="M1130 372l-593.998 4l-139 -377c-4.66699 -12.667 -16.667 -21.5 -36 -26.5s-41.833 -6.5 -67.5 -4.5s-52.5 7.16699 -80.5 15.5s-52.833 19.333 -74.5 33s-38.334 29.5 -50.001 47.5s-13.834 37.667 -6.50098 59c4 12.667 11.833 35.667 23.5 69l44 123l59.5 165
l69.5 194l75.5 210l77 212.5l73 202l64.5 179.5l51.5 143.5l33 94.5c4.66699 13.333 15.5 24.166 32.5 32.499s37.167 14.5 60.5 18.5s48.333 5.83301 75 5.5s51.667 -2.66602 75 -6.99902s43.666 -10.5 60.999 -18.5s28.333 -17.333 33 -28
c12 -26.667 29 -68.167 51 -124.5l76 -197.5l92 -245.5l98.5 -266.5l96.5 -262.5l84.5 -233l63 -177l33.5 -95.5c6.66699 -21.333 4.33398 -41 -6.99902 -59s-27.833 -33.833 -49.5 -47.5s-46.5 -24.667 -74.5 -33s-54.833 -13.5 -80.5 -15.5s-48.167 -0.5 -67.5 4.5
s-31.333 13.833 -36 26.5zM661.002 715l344 -1l-172 469zM671.002 1883c-28 -0.666992 -51.498 4.66895 -70.498 16.002s-33.167 26 -42.5 44s-14 37.5 -14 58.5s4.5 40.667 13.5 59s22.667 33.666 41 46c18.333 12.333 41.166 18.5 68.499 18.5
c24.667 0 45.667 -5.83301 63 -17.5s30.666 -26.334 39.999 -44.001s14.333 -36.834 15 -57.501s-3 -40 -11 -58s-20.5 -33.167 -37.5 -45.5s-38.833 -18.833 -65.5 -19.5zM963.004 1878c-28 -0.666992 -51.4971 4.83301 -70.4971 16.5s-33.333 26.334 -43 44.001
s-14.667 37.167 -15 58.5s4 41 13 59s22.667 33.167 41 45.5s41.166 18.5 68.499 18.5c25.333 0 46.666 -5.83301 63.999 -17.5s30.666 -26.334 39.999 -44c9.33301 -17.667 14.333 -36.834 15 -57.501s-3 -40 -11 -58s-20.5 -33.167 -37.5 -45.5s-38.5 -18.833 -64.5 -19.5
z" />
    <glyph glyph-name="Aring" unicode="&#xc5;" horiz-adv-x="1661" 
d="M1130 372l-593.998 4l-139 -377c-4.66699 -12.667 -16.667 -21.5 -36 -26.5s-41.833 -6.5 -67.5 -4.5s-52.5 7.16699 -80.5 15.5s-52.833 19.333 -74.5 33s-38.334 29.5 -50.001 47.5s-13.834 37.667 -6.50098 59c4 12.667 11.833 35.667 23.5 69l44 123l59.5 165
l69.5 194l75.5 210l77 212.5l73 202l64.5 179.5l51.5 143.5l33 94.5c4.66699 13.333 15.5 24.166 32.5 32.499s37.167 14.5 60.5 18.5s48.333 5.83301 75 5.5s51.667 -2.66602 75 -6.99902s43.666 -10.5 60.999 -18.5s28.333 -17.333 33 -28
c12 -26.667 29 -68.167 51 -124.5l76 -197.5l92 -245.5l98.5 -266.5l96.5 -262.5l84.5 -233l63 -177l33.5 -95.5c6.66699 -21.333 4.33398 -41 -6.99902 -59s-27.833 -33.833 -49.5 -47.5s-46.5 -24.667 -74.5 -33s-54.833 -13.5 -80.5 -15.5s-48.167 -0.5 -67.5 4.5
s-31.333 13.833 -36 26.5zM661.002 715l344 -1l-172 469zM840.002 1830c-46 -1.33301 -84.1699 7.16406 -114.503 25.4971s-53.333 41.5 -69 69.5s-23.667 58.667 -24 92s6.83398 64.333 21.501 93s36.834 52.667 66.501 72s66.834 29 111.501 29
c40.667 0 75 -9.16699 103 -27.5s49.5 -41.5 64.5 -69.5s23 -58.167 24 -90.5s-5 -62.666 -18 -90.999s-33.167 -52.166 -60.5 -71.499s-62.333 -29.666 -105 -30.999zM832.999 1982c14.667 0 25.501 4.33105 32.501 12.998s10.333 18 10 28s-4.33301 19.167 -12 27.5
s-18.834 12.5 -33.501 12.5c-15.333 0 -26.833 -4.33301 -34.5 -13s-11.5 -18.167 -11.5 -28.5s4.16699 -19.666 12.5 -27.999s20.5 -12.166 36.5 -11.499z" />
    <glyph glyph-name="AE" unicode="&#xc6;" horiz-adv-x="2246" 
d="M1448 1033l584.998 2c14.667 0 27.5 -8.83301 38.5 -26.5s19.667 -39.667 26 -66s10 -54.833 11 -85.5s-1.66699 -59.167 -8 -85.5s-16.5 -48.333 -30.5 -66s-32.667 -26.167 -56 -25.5l-565 6l1 -366h653c14 0 26.667 -8.5 38 -25.5s20.166 -38.333 26.499 -64
s10 -53.334 11 -83.001s-1.66699 -57.167 -8 -82.5s-16.5 -46.5 -30.5 -63.5s-32.667 -25.167 -56 -24.5c-44 0.666992 -94.167 1 -150.5 1h-177.5c-62 0 -125 -0.166992 -189 -0.5s-125.667 -0.5 -185 -0.5c-51.333 0 -93.833 2.5 -127.5 7.5s-61 12.833 -82 23.5
s-36.667 24.834 -47 42.501s-17.5 39.167 -21.5 64.5s-6 54.833 -6 88.5v115.5v74l-511 20l-244 -440c-7.33301 -12.667 -21.166 -21 -41.499 -25s-43 -4.33301 -68 -1s-50.5 10 -76.5 20s-48.333 22.5 -67 37.5s-31.667 31.833 -39 50.5s-4.66602 38.667 8.00098 60l39 67
l69 120.5l93 160.5l109.5 188l119 203.5l121.5 206l117 195.5l105.5 172.5l87 136.5c25.667 38.667 46.167 68 61.5 88c22.667 29.333 51.834 52.833 87.501 70.5s72.5 31.167 110.5 40.5s75 15.5 111 18.5s65.667 4.5 89 4.5c59.333 0 121 -0.166992 185 -0.5
s127 -0.5 189 -0.5h177.5c56.333 0 106.5 0.333008 150.5 1c23.333 0 42 -8.5 56 -25.5s24.167 -38.333 30.5 -64s9 -53.667 8 -84s-4.66699 -58.5 -11 -84.5s-15.166 -47.667 -26.5 -65c-11.333 -17.333 -24 -26 -38 -26h-653zM797.998 745l299 -6l-1 416l-8 49z" />
    <glyph glyph-name="Ccedilla" unicode="&#xc7;" horiz-adv-x="1383" 
d="M637 -367c-18.667 12 -29.3281 26.6689 -31.9951 44.002s-1 33.166 5 47.499s14.667 25.333 26 33s21.666 8.5 30.999 2.5c13.333 -9.33301 29.666 -18 48.999 -26s38.666 -13 57.999 -15s37.166 0.166992 53.499 6.5s28.5 19.5 36.5 39.5c4 10 1.66699 18.667 -7 26
s-21.5 13.666 -38.5 18.999s-36.833 9.33301 -59.5 12s-46 4.66699 -70 6c-5.33301 0 -10.5 0.666992 -15.5 2s-9.33301 4.16602 -13 8.49902s-6.5 10.833 -8.5 19.5s-2.66699 20.334 -2 35.001l2 69c-103.333 14.667 -192.166 49.334 -266.499 104.001
s-135.333 123.5 -183 206.5s-82.5 177 -104.5 282s-32.333 214.833 -31 329.5c1.33301 91.333 10.333 177 27 257s40.167 153.667 70.5 221s67.166 127.333 110.499 180s91.666 97.334 144.999 134.001s111.5 64.667 174.5 84s129.833 29 200.5 29
c58 0 113.833 -6.83301 167.5 -20.5s103 -33.667 148 -60s84.167 -58.666 117.5 -96.999s58.666 -82.5 75.999 -132.5c5.33301 -16 2.66602 -32.667 -8.00098 -50s-25.834 -33.5 -45.501 -48.5s-42.167 -28.333 -67.5 -40s-50 -20.167 -74 -25.5
s-45.667 -6.66602 -65 -3.99902s-32.666 10.667 -39.999 24c-22 39.333 -53 69.5 -93 90.5s-91.667 29.167 -155 24.5c-46 -3.33301 -90.833 -18.333 -134.5 -45s-82.834 -63.667 -117.501 -111s-63 -104.5 -85 -171.5s-35 -142.833 -39 -227.5
c-4.66699 -103.333 2.5 -193.333 21.5 -270s45.833 -140.334 80.5 -191.001s74.834 -88.667 120.501 -114s93.167 -38 142.5 -38c26.667 0 54.834 4.5 84.501 13.5s58.167 20.667 85.5 35s52.5 30.333 75.5 48s41.5 35.167 55.5 52.5c12.667 16 29.5 24.333 50.5 25
s43 -4 66 -14s45.667 -23.833 68 -41.5s41.333 -36.5 57 -56.5s26.5 -39.667 32.5 -59s4.33301 -36 -5 -50c-25.333 -36.667 -57 -71.334 -95 -104.001s-80.167 -61.667 -126.5 -87s-95.5 -45.833 -147.5 -61.5s-104.667 -24.834 -158 -27.501
c-0.666992 -7.33301 -0.5 -14.166 0.5 -20.499s3.16699 -11.5 6.5 -15.5c71.333 -4 127.333 -20.333 168 -49s60.667 -66.334 60 -113.001c-0.666992 -26 -7.66699 -48.833 -21 -68.5s-30.833 -36.334 -52.5 -50.001s-46.167 -24 -73.5 -31s-55.166 -11 -83.499 -12
s-56 1.5 -83 7.5s-51.167 15.333 -72.5 28v2v0z" />
    <glyph glyph-name="Egrave" unicode="&#xc8;" horiz-adv-x="1210" 
d="M412 1033l585.001 1.99902c14 0 26.667 -8.83301 38 -26.5s20.166 -39.667 26.499 -66s10 -54.833 11 -85.5s-1.66699 -59.167 -8 -85.5s-16.5 -48.333 -30.5 -66s-32.667 -26.167 -56 -25.5l-565 6l1 -366h653c14 0 26.667 -8.5 38 -25.5s20.166 -38.333 26.499 -64
s10 -53.334 11 -83.001s-1.66699 -57.167 -8 -82.5s-16.5 -46.5 -30.5 -63.5s-32.667 -25.167 -56 -24.5c-44 0.666992 -94.167 1 -150.5 1h-177.5c-62 0 -125 -0.166992 -189 -0.5s-125.667 -0.5 -185 -0.5c-50.667 0 -93 2.5 -127 7.5s-61.5 12.833 -82.5 23.5
s-36.667 24.834 -47 42.501s-17.5 39.167 -21.5 64.5s-6 54.833 -6 88.5v115.5l-3 1126v115.5c0 33.667 2 63.167 6 88.5s11.167 46.833 21.5 64.5s26 31.834 47 42.501s48.333 18.5 82 23.5s76.167 7.5 127.5 7.5c59.333 0 121 -0.166992 185 -0.5s127 -0.5 189 -0.5h177.5
c56.333 0 106.5 0.333008 150.5 1c23.333 0 42 -8.5 56 -25.5s24.167 -38.333 30.5 -64s9 -53.667 8 -84s-4.66699 -58.5 -11 -84.5s-15.166 -47.667 -26.499 -65s-24 -26 -38 -26h-653zM749.001 1922c4.66699 -6 5.16797 -14.002 1.50098 -24.002
s-9.83398 -20.167 -18.501 -30.5s-19 -20.166 -31 -29.499s-24.333 -16.5 -37 -21.5s-24.667 -7 -36 -6s-20.333 6.5 -27 16.5l-146 193c-4 5.33301 -3.83301 12.333 0.5 21s11 17.834 20 27.501s19.333 19 31 28s23.167 16.333 34.5 22s21.833 9.16699 31.5 10.5
s16.5 -1 20.5 -7z" />
    <glyph glyph-name="Eacute" unicode="&#xc9;" horiz-adv-x="1210" 
d="M412 1033l585.001 1.99902c14 0 26.667 -8.83301 38 -26.5s20.166 -39.667 26.499 -66s10 -54.833 11 -85.5s-1.66699 -59.167 -8 -85.5s-16.5 -48.333 -30.5 -66s-32.667 -26.167 -56 -25.5l-565 6l1 -366h653c14 0 26.667 -8.5 38 -25.5s20.166 -38.333 26.499 -64
s10 -53.334 11 -83.001s-1.66699 -57.167 -8 -82.5s-16.5 -46.5 -30.5 -63.5s-32.667 -25.167 -56 -24.5c-44 0.666992 -94.167 1 -150.5 1h-177.5c-62 0 -125 -0.166992 -189 -0.5s-125.667 -0.5 -185 -0.5c-50.667 0 -93 2.5 -127 7.5s-61.5 12.833 -82.5 23.5
s-36.667 24.834 -47 42.501s-17.5 39.167 -21.5 64.5s-6 54.833 -6 88.5v115.5l-3 1126v115.5c0 33.667 2 63.167 6 88.5s11.167 46.833 21.5 64.5s26 31.834 47 42.501s48.333 18.5 82 23.5s76.167 7.5 127.5 7.5c59.333 0 121 -0.166992 185 -0.5s127 -0.5 189 -0.5h177.5
c56.333 0 106.5 0.333008 150.5 1c23.333 0 42 -8.5 56 -25.5s24.167 -38.333 30.5 -64s9 -53.667 8 -84s-4.66699 -58.5 -11 -84.5s-15.166 -47.667 -26.499 -65s-24 -26 -38 -26h-653zM616.001 2131c4 6 10.834 8.33398 20.501 7.00098s20.167 -4.83301 31.5 -10.5
s22.833 -13 34.5 -22s22 -18.333 31 -28s15.5 -18.834 19.5 -27.5c4 -8.66699 4.33301 -15.667 1 -21l-146 -193c-7.33301 -10 -16.5 -15.5 -27.5 -16.5s-22.833 1 -35.5 6s-25 12.167 -37 21.5s-22.333 19.166 -31 29.499s-14.834 20.5 -18.501 30.5s-3.16699 18 1.5 24z
" />
    <glyph glyph-name="Ecircumflex" unicode="&#xca;" horiz-adv-x="1210" 
d="M412 1033l585.001 1.99902c14 0 26.667 -8.83301 38 -26.5s20.166 -39.667 26.499 -66s10 -54.833 11 -85.5s-1.66699 -59.167 -8 -85.5s-16.5 -48.333 -30.5 -66s-32.667 -26.167 -56 -25.5l-565 6l1 -366h653c14 0 26.667 -8.5 38 -25.5s20.166 -38.333 26.499 -64
s10 -53.334 11 -83.001s-1.66699 -57.167 -8 -82.5s-16.5 -46.5 -30.5 -63.5s-32.667 -25.167 -56 -24.5c-44 0.666992 -94.167 1 -150.5 1h-177.5c-62 0 -125 -0.166992 -189 -0.5s-125.667 -0.5 -185 -0.5c-50.667 0 -93 2.5 -127 7.5s-61.5 12.833 -82.5 23.5
s-36.667 24.834 -47 42.501s-17.5 39.167 -21.5 64.5s-6 54.833 -6 88.5v115.5l-3 1126v115.5c0 33.667 2 63.167 6 88.5s11.167 46.833 21.5 64.5s26 31.834 47 42.501s48.333 18.5 82 23.5s76.167 7.5 127.5 7.5c59.333 0 121 -0.166992 185 -0.5s127 -0.5 189 -0.5h177.5
c56.333 0 106.5 0.333008 150.5 1c23.333 0 42 -8.5 56 -25.5s24.167 -38.333 30.5 -64s9 -53.667 8 -84s-4.66699 -58.5 -11 -84.5s-15.166 -47.667 -26.499 -65s-24 -26 -38 -26h-653zM603.001 1954l-38.001 -83.998c-3.33301 -6.66699 -10.333 -10.5 -21 -11.5
s-23.167 -0.166992 -37.5 2.5s-29 7 -44 13s-28.5 12.667 -40.5 20s-21.5 14.666 -28.5 21.999s-8.83301 14.333 -5.5 21l109 240c4 8 15.333 14 34 18s38.667 6 60 6s41.5 -1.83301 60.5 -5.5s30.5 -9.5 34.5 -17.5l133 -235c3.33301 -6 1.83301 -13 -4.5 -21
s-15.166 -15.833 -26.499 -23.5s-24.333 -14.834 -39 -21.501s-29 -11.834 -43 -15.501s-26.5 -5.16699 -37.5 -4.5s-18.167 4.33398 -21.5 11.001z" />
    <glyph glyph-name="Edieresis" unicode="&#xcb;" horiz-adv-x="1210" 
d="M412 1033l585.001 1.99902c14 0 26.667 -8.83301 38 -26.5s20.166 -39.667 26.499 -66s10 -54.833 11 -85.5s-1.66699 -59.167 -8 -85.5s-16.5 -48.333 -30.5 -66s-32.667 -26.167 -56 -25.5l-565 6l1 -366h653c14 0 26.667 -8.5 38 -25.5s20.166 -38.333 26.499 -64
s10 -53.334 11 -83.001s-1.66699 -57.167 -8 -82.5s-16.5 -46.5 -30.5 -63.5s-32.667 -25.167 -56 -24.5c-44 0.666992 -94.167 1 -150.5 1h-177.5c-62 0 -125 -0.166992 -189 -0.5s-125.667 -0.5 -185 -0.5c-50.667 0 -93 2.5 -127 7.5s-61.5 12.833 -82.5 23.5
s-36.667 24.834 -47 42.501s-17.5 39.167 -21.5 64.5s-6 54.833 -6 88.5v115.5l-3 1126v115.5c0 33.667 2 63.167 6 88.5s11.167 46.833 21.5 64.5s26 31.834 47 42.501s48.333 18.5 82 23.5s76.167 7.5 127.5 7.5c59.333 0 121 -0.166992 185 -0.5s127 -0.5 189 -0.5h177.5
c56.333 0 106.5 0.333008 150.5 1c23.333 0 42 -8.5 56 -25.5s24.167 -38.333 30.5 -64s9 -53.667 8 -84s-4.66699 -58.5 -11 -84.5s-15.166 -47.667 -26.499 -65s-24 -26 -38 -26h-653zM464.001 1883c-28 -0.666992 -51.498 4.66797 -70.498 16.001s-33.167 26 -42.5 44
s-14 37.5 -14 58.5s4.5 40.667 13.5 59s22.667 33.666 41 46c18.333 12.333 41.166 18.5 68.499 18.5c24.667 0 45.667 -5.83301 63 -17.5s30.666 -26.334 39.999 -44c9.33301 -17.667 14.333 -36.834 15 -57.501s-3 -40 -11 -58s-20.5 -33.167 -37.5 -45.5
s-38.833 -18.833 -65.5 -19.5zM756.003 1878c-28 -0.666992 -51.4971 4.83301 -70.4971 16.5s-33.333 26.334 -43 44.001s-14.667 37.167 -15 58.5s4 41 13 59s22.667 33.167 41 45.5s41.166 18.5 68.499 18.5c25.333 0 46.666 -5.83301 63.999 -17.5
s30.666 -26.334 39.999 -44c9.33301 -17.667 14.333 -36.834 15 -57.501s-3 -40 -11 -58s-20.5 -33.167 -37.5 -45.5s-38.5 -18.833 -64.5 -19.5z" />
    <glyph glyph-name="Igrave" unicode="&#xcc;" horiz-adv-x="1165" 
d="M140 -10c-14 0 -26.667 8.66699 -38 26s-20.166 39 -26.499 65s-10 54 -11 84s1.66699 58 8 84s16.5 47.5 30.5 64.5s32.667 25.5 56 25.5l241 -1v166.5v185.5c0 64 0.166992 128.667 0.5 194s0.5 129.333 0.5 192v180.5v159.5l-278 2c-12.667 0 -23.5 8.5 -32.5 25.5
s-16 38.167 -21 63.5s-7.83301 52.666 -8.5 81.999s1 56.666 5 81.999s10.167 46.333 18.5 63s19.5 25 33.5 25l912 3c14 0 26.667 -8.66699 38 -26s20.166 -39 26.499 -65s10 -54 11 -84s-1.66699 -58 -8 -84s-16.5 -47.5 -30.5 -64.5s-32.667 -25.5 -56 -25.5l-263 1
l5 -1078l296 -2c12.667 0 23.5 -8.5 32.5 -25.5s16 -38.167 21 -63.5s7.83301 -52.666 8.5 -81.999s-1 -56.666 -5 -81.999s-10.333 -46.333 -19 -63s-19.667 -25 -33 -25zM727 1922c4.66699 -6 5.16797 -14.001 1.50098 -24.001s-9.83398 -20.167 -18.501 -30.5
s-19 -20.166 -31 -29.499s-24.333 -16.5 -37 -21.5s-24.667 -7 -36 -6s-20.333 6.5 -27 16.5l-146 193c-4 5.33301 -3.83301 12.333 0.5 21s11 17.834 20 27.5c9 9.66699 19.333 19 31 28s23.167 16.333 34.5 22s21.833 9.16699 31.5 10.5s16.5 -1 20.5 -7z" />
    <glyph glyph-name="Iacute" unicode="&#xcd;" horiz-adv-x="1165" 
d="M140 -10c-14 0 -26.667 8.66699 -38 26s-20.166 39 -26.499 65s-10 54 -11 84s1.66699 58 8 84s16.5 47.5 30.5 64.5s32.667 25.5 56 25.5l241 -1v166.5v185.5c0 64 0.166992 128.667 0.5 194s0.5 129.333 0.5 192v180.5v159.5l-278 2c-12.667 0 -23.5 8.5 -32.5 25.5
s-16 38.167 -21 63.5s-7.83301 52.666 -8.5 81.999s1 56.666 5 81.999s10.167 46.333 18.5 63s19.5 25 33.5 25l912 3c14 0 26.667 -8.66699 38 -26s20.166 -39 26.499 -65s10 -54 11 -84s-1.66699 -58 -8 -84s-16.5 -47.5 -30.5 -64.5s-32.667 -25.5 -56 -25.5l-263 1
l5 -1078l296 -2c12.667 0 23.5 -8.5 32.5 -25.5s16 -38.167 21 -63.5s7.83301 -52.666 8.5 -81.999s-1 -56.666 -5 -81.999s-10.333 -46.333 -19 -63s-19.667 -25 -33 -25zM594 2131c4 6 10.834 8.33496 20.501 7.00195s20.167 -4.83301 31.5 -10.5s22.833 -13 34.5 -22
s22 -18.333 31 -28s15.5 -18.834 19.5 -27.501s4.33301 -15.667 1 -21l-146 -193c-7.33301 -10 -16.5 -15.5 -27.5 -16.5s-22.833 1 -35.5 6s-25 12.167 -37 21.5s-22.333 19.166 -31 29.499s-14.834 20.5 -18.501 30.5s-3.16699 18 1.5 24z" />
    <glyph glyph-name="Icircumflex" unicode="&#xce;" horiz-adv-x="1165" 
d="M140 -10c-14 0 -26.667 8.66699 -38 26s-20.166 39 -26.499 65s-10 54 -11 84s1.66699 58 8 84s16.5 47.5 30.5 64.5s32.667 25.5 56 25.5l241 -1v166.5v185.5c0 64 0.166992 128.667 0.5 194s0.5 129.333 0.5 192v180.5v159.5l-278 2c-12.667 0 -23.5 8.5 -32.5 25.5
s-16 38.167 -21 63.5s-7.83301 52.666 -8.5 81.999s1 56.666 5 81.999s10.167 46.333 18.5 63s19.5 25 33.5 25l912 3c14 0 26.667 -8.66699 38 -26s20.166 -39 26.499 -65s10 -54 11 -84s-1.66699 -58 -8 -84s-16.5 -47.5 -30.5 -64.5s-32.667 -25.5 -56 -25.5l-263 1
l5 -1078l296 -2c12.667 0 23.5 -8.5 32.5 -25.5s16 -38.167 21 -63.5s7.83301 -52.666 8.5 -81.999s-1 -56.666 -5 -81.999s-10.333 -46.333 -19 -63s-19.667 -25 -33 -25zM581 1954l-38.001 -83.998c-3.33301 -6.66699 -10.333 -10.5 -21 -11.5
s-23.167 -0.166992 -37.5 2.5s-29 7 -44 13s-28.5 12.667 -40.5 20s-21.5 14.666 -28.5 21.999s-8.83301 14.333 -5.5 21l109 240c4 8 15.333 14 34 18s38.667 6 60 6s41.5 -1.83301 60.5 -5.5s30.5 -9.5 34.5 -17.5l133 -235c3.33301 -6 1.83301 -13 -4.5 -21
s-15.166 -15.833 -26.499 -23.5s-24.333 -14.834 -39 -21.501s-29 -11.834 -43 -15.501s-26.5 -5.16699 -37.5 -4.5s-18.167 4.33398 -21.5 11.001z" />
    <glyph glyph-name="Idieresis" unicode="&#xcf;" horiz-adv-x="1165" 
d="M140 -10c-14 0 -26.667 8.66699 -38 26s-20.166 39 -26.499 65s-10 54 -11 84s1.66699 58 8 84s16.5 47.5 30.5 64.5s32.667 25.5 56 25.5l241 -1v166.5v185.5c0 64 0.166992 128.667 0.5 194s0.5 129.333 0.5 192v180.5v159.5l-278 2c-12.667 0 -23.5 8.5 -32.5 25.5
s-16 38.167 -21 63.5s-7.83301 52.666 -8.5 81.999s1 56.666 5 81.999s10.167 46.333 18.5 63s19.5 25 33.5 25l912 3c14 0 26.667 -8.66699 38 -26s20.166 -39 26.499 -65s10 -54 11 -84s-1.66699 -58 -8 -84s-16.5 -47.5 -30.5 -64.5s-32.667 -25.5 -56 -25.5l-263 1
l5 -1078l296 -2c12.667 0 23.5 -8.5 32.5 -25.5s16 -38.167 21 -63.5s7.83301 -52.666 8.5 -81.999s-1 -56.666 -5 -81.999s-10.333 -46.333 -19 -63s-19.667 -25 -33 -25zM442 1883c-28 -0.666992 -51.498 4.66895 -70.498 16.002s-33.167 26 -42.5 44s-14 37.5 -14 58.5
s4.5 40.667 13.5 59s22.667 33.666 41 46c18.333 12.333 41.166 18.5 68.499 18.5c24.667 0 45.667 -5.83301 63 -17.5s30.666 -26.334 39.999 -44.001s14.333 -36.834 15 -57.501s-3 -40 -11 -58s-20.5 -33.167 -37.5 -45.5s-38.833 -18.833 -65.5 -19.5zM734.002 1878
c-28 -0.666992 -51.4971 4.83301 -70.4971 16.5s-33.333 26.334 -43 44.001s-14.667 37.167 -15 58.5s4 41 13 59s22.667 33.167 41 45.5s41.166 18.5 68.499 18.5c25.333 0 46.666 -5.83301 63.999 -17.5s30.666 -26.334 39.999 -44
c9.33301 -17.667 14.333 -36.834 15 -57.501s-3 -40 -11 -58s-20.5 -33.167 -37.5 -45.5s-38.5 -18.833 -64.5 -19.5z" />
    <glyph glyph-name="Eth" unicode="&#xd0;" horiz-adv-x="1404" 
d="M81 1063c0 66 0.164062 129.499 0.49707 190.499s0.666016 117 0.999023 168s0.666016 96.167 0.999023 135.5s0.5 70 0.5 92c0 15.333 5.5 30 16.5 44s28.5 26.167 52.5 36.5s54.833 18 92.5 23s82.834 6.16699 135.501 3.5c83.333 -4.66699 164 -15.834 242 -33.501
s151.5 -42.5 220.5 -74.5s132.333 -71.167 190 -117.5s107.667 -100.666 150 -162.999s75.833 -132.5 100.5 -210.5s38.334 -164.667 41.001 -260c2 -81.333 -5.33301 -160.666 -22 -237.999s-42.667 -150.166 -78 -218.499s-79.666 -131 -132.999 -188
s-115.666 -106 -186.999 -147s-151.333 -72.5 -240 -94.5s-185.667 -32.333 -291 -31c-44.667 0.666992 -85.167 3.66699 -121.5 9s-67.5 14.5 -93.5 27.5s-46 30.667 -60 53s-21 50.833 -21 85.5v139.5c0 51.667 0.166992 106.667 0.5 165l1 181.5
c0.333008 62.667 0.5 126 0.5 190h-48c-12 0 -22.167 5.83301 -30.5 17.5s-14.833 26 -19.5 43s-7.16699 35.5 -7.5 55.5s1.33398 38.667 5.00098 56s9.5 31.666 17.5 42.999s18.333 17 31 17h53zM1015 824.999c1.33301 81.333 -8.50195 156.167 -29.502 224.5
s-55.333 128 -103 179s-110 92.167 -187 123.5s-170.833 51 -281.5 59l2 -346l210 2c13.333 0 25.166 -5.83301 35.499 -17.5s18.5 -26.334 24.5 -44.001s9.5 -36.667 10.5 -57s-1.5 -39.166 -7.5 -56.499s-15.5 -31.833 -28.5 -43.5s-30.5 -17.5 -52.5 -17.5h-191l4 -549
c88.667 6 169.334 24.167 242.001 54.5s134.834 69.833 186.501 118.5s91.834 104.5 120.501 167.5s43.667 130.5 45 202.5z" />
    <glyph glyph-name="Ntilde" unicode="&#xd1;" horiz-adv-x="1615" 
d="M1545 41c0 -13.333 -6.49902 -25.833 -19.499 -37.5s-30 -21.667 -51 -30s-44.333 -14.5 -70 -18.5s-50.667 -5.33301 -75 -4s-46.833 5.66602 -67.5 12.999s-36.334 18.333 -47.001 33l-71.5 99.5l-114 161.5l-143.5 204.5l-159.5 229l-163 234.5l-154.5 221l7 -1112
c0 -14 -8.66699 -26.667 -26 -38s-39.166 -20.166 -65.499 -26.499s-55 -10 -86 -11s-59.667 1.66699 -86 8s-48.166 16.5 -65.499 30.5s-26 32.667 -26 56l6 1666c0 8.66699 7 17.167 21 25.5s31.667 15.833 53 22.5s45 12 71 16s51.167 5.83301 75.5 5.5
s46.166 -3.16602 65.499 -8.49902s33.333 -14 42 -26l797 -1116c0 75.333 0.166992 152.666 0.5 231.999s0.5 157 0.5 233v217.5c0 69 0.166992 131.167 0.5 186.5s0.666016 102 0.999023 140s0.833008 64 1.5 78c0 12.667 8.5 23.667 25.5 33s38 16.5 63 21.5s52 8 81 9
s56 -0.166992 81 -3.5s45.833 -9.33301 62.5 -18s25 -19.667 25 -33zM661.001 1909c-4 -8 -10.6719 -12.3291 -20.0049 -12.9961s-19.5 1.16602 -30.5 5.49902s-22.167 10.666 -33.5 18.999s-21.166 17.666 -29.499 27.999s-14 21.166 -17 32.499s-1.5 22.333 4.5 33
c26 46 52.667 79.333 80 100s55.333 32.167 84 34.5s58 -2.16699 88 -13.5s60.333 -26 91 -44c24 -14 43.333 -22.5 58 -25.5s27.334 -2.16699 38.001 2.5s20 12.5 28 23.5l28 38.5c8 11.333 18 18.666 30 22c12 3.33301 24.667 4 38 2s26.5 -6.16699 39.5 -12.5
s24 -14 33 -23s15.333 -19 19 -30s3.16699 -21.833 -1.5 -32.5c-18 -38.667 -40 -71.167 -66 -97.5s-54.167 -45.166 -84.5 -56.499s-62.166 -14.833 -95.499 -10.5s-66.666 17.833 -99.999 40.5c-19.333 13.333 -37.333 24.666 -54 33.999s-32.167 14.333 -46.5 15
s-28.166 -4.5 -41.499 -15.5s-26.333 -29.833 -39 -56.5z" />
    <glyph glyph-name="Ograve" unicode="&#xd2;" horiz-adv-x="1717" 
d="M893 -61c-110 -1.33301 -208.836 15.001 -296.503 49.001s-164.167 80.5 -229.5 139.5s-119.666 128 -162.999 207s-75.666 163.167 -96.999 252.5s-31.833 181 -31.5 275s11.5 185.667 33.5 275s54.667 173.666 98 252.999s97.5 148.833 162.5 208.5
s140.333 106.667 226 141s181.834 51.5 288.501 51.5c102 0 193.667 -17.333 275 -52s152.5 -81.5 213.5 -140.5s111.667 -128 152 -207s70.666 -162.667 90.999 -251s30.5 -179.333 30.5 -273s-10.167 -184.834 -30.5 -273.501s-50.666 -172.5 -90.999 -251.5
s-90.5 -148.167 -150.5 -207.5s-130.167 -106.666 -210.5 -141.999s-170.5 -53.333 -270.5 -54zM839.997 1433c-73.333 -4.66699 -137.501 -24.668 -192.501 -60.001s-100.833 -80.166 -137.5 -134.499s-64 -115.666 -82 -183.999s-26.667 -137.666 -26 -207.999
s10.834 -139 30.501 -206s48.834 -126.833 87.501 -179.5s87 -95 145 -127s125.667 -48.333 203 -49c56 -0.666992 106.833 10 152.5 32s85.667 51.667 120 89s63.166 81.166 86.499 131.499s40.833 103.666 52.5 159.999s17.5 114 17.5 173s-5.83301 116.333 -17.5 172
s-29.5 108 -53.5 157s-54.333 91.333 -91 127s-79.5 63.167 -128.5 82.5s-104.5 27.333 -166.5 24zM1003 1922c4.66699 -6 5.16797 -14.001 1.50098 -24.001s-9.83398 -20.167 -18.501 -30.5s-19 -20.166 -31 -29.499s-24.333 -16.5 -37 -21.5s-24.667 -7 -36 -6
s-20.333 6.5 -27 16.5l-146 193c-4 5.33301 -3.83301 12.333 0.5 21s11 17.834 20 27.5c9 9.66699 19.333 19 31 28s23.167 16.333 34.5 22s21.833 9.16699 31.5 10.5s16.5 -1 20.5 -7z" />
    <glyph glyph-name="Oacute" unicode="&#xd3;" horiz-adv-x="1717" 
d="M893 -61c-110 -1.33301 -208.836 15.001 -296.503 49.001s-164.167 80.5 -229.5 139.5s-119.666 128 -162.999 207s-75.666 163.167 -96.999 252.5s-31.833 181 -31.5 275s11.5 185.667 33.5 275s54.667 173.666 98 252.999s97.5 148.833 162.5 208.5
s140.333 106.667 226 141s181.834 51.5 288.501 51.5c102 0 193.667 -17.333 275 -52s152.5 -81.5 213.5 -140.5s111.667 -128 152 -207s70.666 -162.667 90.999 -251s30.5 -179.333 30.5 -273s-10.167 -184.834 -30.5 -273.501s-50.666 -172.5 -90.999 -251.5
s-90.5 -148.167 -150.5 -207.5s-130.167 -106.666 -210.5 -141.999s-170.5 -53.333 -270.5 -54zM839.997 1433c-73.333 -4.66699 -137.501 -24.668 -192.501 -60.001s-100.833 -80.166 -137.5 -134.499s-64 -115.666 -82 -183.999s-26.667 -137.666 -26 -207.999
s10.834 -139 30.501 -206s48.834 -126.833 87.501 -179.5s87 -95 145 -127s125.667 -48.333 203 -49c56 -0.666992 106.833 10 152.5 32s85.667 51.667 120 89s63.166 81.166 86.499 131.499s40.833 103.666 52.5 159.999s17.5 114 17.5 173s-5.83301 116.333 -17.5 172
s-29.5 108 -53.5 157s-54.333 91.333 -91 127s-79.5 63.167 -128.5 82.5s-104.5 27.333 -166.5 24zM869.996 2131c4 6 10.834 8.33496 20.501 7.00195s20.167 -4.83301 31.5 -10.5s22.833 -13 34.5 -22s22 -18.333 31 -28s15.5 -18.834 19.5 -27.501s4.33301 -15.667 1 -21
l-146 -193c-7.33301 -10 -16.5 -15.5 -27.5 -16.5s-22.833 1 -35.5 6s-25 12.167 -37 21.5s-22.333 19.166 -31 29.499s-14.834 20.5 -18.501 30.5s-3.16699 18 1.5 24z" />
    <glyph glyph-name="Ocircumflex" unicode="&#xd4;" horiz-adv-x="1717" 
d="M893 -61c-110 -1.33301 -208.836 15.001 -296.503 49.001s-164.167 80.5 -229.5 139.5s-119.666 128 -162.999 207s-75.666 163.167 -96.999 252.5s-31.833 181 -31.5 275s11.5 185.667 33.5 275s54.667 173.666 98 252.999s97.5 148.833 162.5 208.5
s140.333 106.667 226 141s181.834 51.5 288.501 51.5c102 0 193.667 -17.333 275 -52s152.5 -81.5 213.5 -140.5s111.667 -128 152 -207s70.666 -162.667 90.999 -251s30.5 -179.333 30.5 -273s-10.167 -184.834 -30.5 -273.501s-50.666 -172.5 -90.999 -251.5
s-90.5 -148.167 -150.5 -207.5s-130.167 -106.666 -210.5 -141.999s-170.5 -53.333 -270.5 -54zM839.997 1433c-73.333 -4.66699 -137.501 -24.668 -192.501 -60.001s-100.833 -80.166 -137.5 -134.499s-64 -115.666 -82 -183.999s-26.667 -137.666 -26 -207.999
s10.834 -139 30.501 -206s48.834 -126.833 87.501 -179.5s87 -95 145 -127s125.667 -48.333 203 -49c56 -0.666992 106.833 10 152.5 32s85.667 51.667 120 89s63.166 81.166 86.499 131.499s40.833 103.666 52.5 159.999s17.5 114 17.5 173s-5.83301 116.333 -17.5 172
s-29.5 108 -53.5 157s-54.333 91.333 -91 127s-79.5 63.167 -128.5 82.5s-104.5 27.333 -166.5 24zM856.996 1954l-38.001 -83.998c-3.33301 -6.66699 -10.333 -10.5 -21 -11.5s-23.167 -0.166992 -37.5 2.5s-29 7 -44 13s-28.5 12.667 -40.5 20s-21.5 14.666 -28.5 21.999
s-8.83301 14.333 -5.5 21l109 240c4 8 15.333 14 34 18s38.667 6 60 6s41.5 -1.83301 60.5 -5.5s30.5 -9.5 34.5 -17.5l133 -235c3.33301 -6 1.83301 -13 -4.5 -21s-15.166 -15.833 -26.499 -23.5s-24.333 -14.834 -39 -21.501s-29 -11.834 -43 -15.501
s-26.5 -5.16699 -37.5 -4.5s-18.167 4.33398 -21.5 11.001z" />
    <glyph glyph-name="Otilde" unicode="&#xd5;" horiz-adv-x="1717" 
d="M893 -61c-110 -1.33301 -208.836 15.001 -296.503 49.001s-164.167 80.5 -229.5 139.5s-119.666 128 -162.999 207s-75.666 163.167 -96.999 252.5s-31.833 181 -31.5 275s11.5 185.667 33.5 275s54.667 173.666 98 252.999s97.5 148.833 162.5 208.5
s140.333 106.667 226 141s181.834 51.5 288.501 51.5c102 0 193.667 -17.333 275 -52s152.5 -81.5 213.5 -140.5s111.667 -128 152 -207s70.666 -162.667 90.999 -251s30.5 -179.333 30.5 -273s-10.167 -184.834 -30.5 -273.501s-50.666 -172.5 -90.999 -251.5
s-90.5 -148.167 -150.5 -207.5s-130.167 -106.666 -210.5 -141.999s-170.5 -53.333 -270.5 -54zM839.997 1433c-73.333 -4.66699 -137.501 -24.668 -192.501 -60.001s-100.833 -80.166 -137.5 -134.499s-64 -115.666 -82 -183.999s-26.667 -137.666 -26 -207.999
s10.834 -139 30.501 -206s48.834 -126.833 87.501 -179.5s87 -95 145 -127s125.667 -48.333 203 -49c56 -0.666992 106.833 10 152.5 32s85.667 51.667 120 89s63.166 81.166 86.499 131.499s40.833 103.666 52.5 159.999s17.5 114 17.5 173s-5.83301 116.333 -17.5 172
s-29.5 108 -53.5 157s-54.333 91.333 -91 127s-79.5 63.167 -128.5 82.5s-104.5 27.333 -166.5 24zM659.996 1909c-4 -8 -10.6719 -12.3291 -20.0049 -12.9961s-19.5 1.16602 -30.5 5.49902s-22.167 10.666 -33.5 18.999s-21.166 17.666 -29.499 27.999
s-14 21.166 -17 32.499s-1.5 22.333 4.5 33c26 46 52.667 79.333 80 100s55.333 32.167 84 34.5s58 -2.16699 88 -13.5s60.333 -26 91 -44c24 -14 43.333 -22.5 58 -25.5s27.334 -2.16699 38.001 2.5s20 12.5 28 23.5l28 38.5c8 11.333 18 18.666 30 22
c12 3.33301 24.667 4 38 2s26.5 -6.16699 39.5 -12.5s24 -14 33 -23s15.333 -19 19 -30s3.16699 -21.833 -1.5 -32.5c-18 -38.667 -40 -71.167 -66 -97.5s-54.167 -45.166 -84.5 -56.499s-62.166 -14.833 -95.499 -10.5s-66.666 17.833 -99.999 40.5
c-19.333 13.333 -37.333 24.666 -54 33.999s-32.167 14.333 -46.5 15s-28.166 -4.5 -41.499 -15.5s-26.333 -29.833 -39 -56.5z" />
    <glyph glyph-name="Odieresis" unicode="&#xd6;" horiz-adv-x="1717" 
d="M893 -61c-110 -1.33301 -208.836 15.001 -296.503 49.001s-164.167 80.5 -229.5 139.5s-119.666 128 -162.999 207s-75.666 163.167 -96.999 252.5s-31.833 181 -31.5 275s11.5 185.667 33.5 275s54.667 173.666 98 252.999s97.5 148.833 162.5 208.5
s140.333 106.667 226 141s181.834 51.5 288.501 51.5c102 0 193.667 -17.333 275 -52s152.5 -81.5 213.5 -140.5s111.667 -128 152 -207s70.666 -162.667 90.999 -251s30.5 -179.333 30.5 -273s-10.167 -184.834 -30.5 -273.501s-50.666 -172.5 -90.999 -251.5
s-90.5 -148.167 -150.5 -207.5s-130.167 -106.666 -210.5 -141.999s-170.5 -53.333 -270.5 -54zM839.997 1433c-73.333 -4.66699 -137.501 -24.668 -192.501 -60.001s-100.833 -80.166 -137.5 -134.499s-64 -115.666 -82 -183.999s-26.667 -137.666 -26 -207.999
s10.834 -139 30.501 -206s48.834 -126.833 87.501 -179.5s87 -95 145 -127s125.667 -48.333 203 -49c56 -0.666992 106.833 10 152.5 32s85.667 51.667 120 89s63.166 81.166 86.499 131.499s40.833 103.666 52.5 159.999s17.5 114 17.5 173s-5.83301 116.333 -17.5 172
s-29.5 108 -53.5 157s-54.333 91.333 -91 127s-79.5 63.167 -128.5 82.5s-104.5 27.333 -166.5 24zM717.996 1883c-28 -0.666992 -51.498 4.66895 -70.498 16.002s-33.167 26 -42.5 44s-14 37.5 -14 58.5s4.5 40.667 13.5 59s22.667 33.666 41 46
c18.333 12.333 41.166 18.5 68.499 18.5c24.667 0 45.667 -5.83301 63 -17.5s30.666 -26.334 39.999 -44.001s14.333 -36.834 15 -57.501s-3 -40 -11 -58s-20.5 -33.167 -37.5 -45.5s-38.833 -18.833 -65.5 -19.5zM1010 1878c-28 -0.666992 -51.4971 4.83301 -70.4971 16.5
s-33.333 26.334 -43 44.001s-14.667 37.167 -15 58.5s4 41 13 59s22.667 33.167 41 45.5s41.166 18.5 68.499 18.5c25.333 0 46.666 -5.83301 63.999 -17.5s30.666 -26.334 39.999 -44c9.33301 -17.667 14.333 -36.834 15 -57.501s-3 -40 -11 -58s-20.5 -33.167 -37.5 -45.5
s-38.5 -18.833 -64.5 -19.5z" />
    <glyph glyph-name="multiply" unicode="&#xd7;" horiz-adv-x="987" 
d="M503 609l-91.9941 -100.991c-8.66699 -9.33301 -22.334 -11.5 -41.001 -6.5s-38.834 14.167 -60.501 27.5s-43.667 29.666 -66 48.999s-41.333 39 -57 59s-26.834 38.833 -33.501 56.5s-5.33398 31.5 3.99902 41.5l96 106l-101 95
c-10.667 9.33301 -14.167 24.166 -10.5 44.499s12.167 42.166 25.5 65.499s30 46.166 50 68.499s41.167 40.833 63.5 55.5s44.5 23.334 66.5 26.001s41.333 -4 58 -20l79 -76l100 111c9.33301 10.667 24.166 14.167 44.499 10.5s42.166 -11.834 65.499 -24.501
s46.5 -28.834 69.5 -48.501s42 -40.5 57 -62.5s24 -44 27 -66s-3.5 -41.667 -19.5 -59l-92 -100l115 -109c9.33301 -8.66699 11.5 -22.334 6.5 -41.001s-14.5 -38.834 -28.5 -60.501s-30.833 -43.334 -50.5 -65.001s-39.5 -40.334 -59.5 -56.001s-39 -26.667 -57 -33
s-32 -4.83301 -42 4.5z" />
    <glyph glyph-name="Oslash" unicode="&#xd8;" horiz-adv-x="1717" 
d="M1328 1637c67.333 -55.333 123.998 -121.997 169.998 -199.997s81.167 -161.833 105.5 -251.5s38 -182.5 41 -278.5s-4.66699 -190 -23 -282s-47.333 -179.333 -87 -262s-89.834 -155.167 -150.501 -217.5s-132 -112.166 -214 -149.499s-174.333 -56.333 -277 -57
c-26.667 0 -52 1 -76 3l-2 -7c-4 -13.333 -15.667 -22.833 -35 -28.5s-42 -7.83398 -68 -6.50098s-53.5 5.66602 -82.5 12.999s-55.333 17.333 -79 30s-42.5 27.5 -56.5 44.5s-19.333 36.167 -16 57.5c-65.333 39.333 -122.666 87.5 -171.999 144.5
s-90.833 119.833 -124.5 188.5s-59.167 141.5 -76.5 218.5s-26.833 155 -28.5 234s4.33301 157.667 18 236s35.334 153.166 65.001 224.499s67 137.5 112 198.5s97.667 113.833 158 158.5s128.5 79.667 204.5 105s159.333 38 250 38c23.333 0 46.333 -1.16699 69 -3.5
s44.667 -5.5 66 -9.5c7.33301 10 20.833 16.167 40.5 18.5s42 2.16602 67 -0.500977s51 -7.83398 78 -15.501s51.167 -16.667 72.5 -27s38.333 -21.666 51 -33.999s17.334 -24.833 14.001 -37.5zM839.998 1433c-59.333 -4 -112.834 -18.166 -160.501 -42.499
s-89.167 -55.833 -124.5 -94.5s-64.666 -83 -87.999 -133s-40.333 -102.833 -51 -158.5s-15.334 -112.5 -14.001 -170.5s9 -114.167 23 -168.5s34.333 -105.166 61 -152.499s59.667 -88.333 99 -123l324 1041c-11.333 1.33301 -22.666 2.16602 -33.999 2.49902
s-23 0.166016 -35 -0.500977zM921.997 289.004c60.667 8.66699 114.167 30.498 160.5 65.498s85.166 78.833 116.499 131.5s55.333 111.334 72 176.001s25.334 130.667 26.001 198s-6.33301 133.333 -21 198s-37.667 123.334 -69 176.001z" />
    <glyph glyph-name="Ugrave" unicode="&#xd9;" horiz-adv-x="1369" 
d="M681 -20c-69.333 0 -132.001 8.99805 -188.001 26.998s-105.667 42.833 -149 74.5s-80.833 69.334 -112.5 113.001s-58 91.334 -79 143.001s-36.833 106.334 -47.5 164.001s-17 116.834 -19 177.501l-4.5 147.5c-1.66699 55.667 -3.16699 114.5 -4.5 176.5
s-2.5 125 -3.5 189s-1.83301 126 -2.5 186s-0.833984 115.833 -0.500977 167.5s1.5 95.834 3.5 132.501c0.666992 19.333 9.5 35.333 26.5 48s37.833 22 62.5 28s51.334 9 80.001 9s55.167 -3.33301 79.5 -10s44.333 -16.167 60 -28.5s23.167 -27.833 22.5 -46.5
c-1.33301 -30.667 -2.5 -67 -3.5 -109s-1.66699 -87.333 -2 -136l-1 -152.5c-0.333008 -53 -0.333008 -105.833 0 -158.5l1 -153.5c0.333008 -49.667 0.833008 -95.834 1.5 -138.501s1.33398 -80.334 2.00098 -113.001s1.66699 -58.334 3 -77.001
c3.33301 -54.667 13.666 -103 30.999 -145s38.833 -77.167 64.5 -105.5s54.167 -49.833 85.5 -64.5s62.666 -22 93.999 -22c32 0 63.667 7.33301 95 22s60 36.167 86 64.5s47.667 63.5 65 105.5s27.666 90.333 30.999 145c1.33301 18.667 2.33301 44.334 3 77.001
s1.33398 70.334 2.00098 113.001s1.16699 88.834 1.5 138.501s0.5 100.834 0.5 153.501s-0.166992 105.5 -0.5 158.5l-1 152.5c-0.333008 48.667 -1 94 -2 136s-2.16699 78.333 -3.5 109c-0.666992 18.667 6.83301 34.167 22.5 46.5s35.667 21.833 60 28.5
s50.833 10 79.5 10s55.334 -3 80.001 -9s45.5 -15.333 62.5 -28s25.833 -28.667 26.5 -48c1.33301 -36.667 2.33301 -80.834 3 -132.501s0.833984 -107.5 0.500977 -167.5s-1 -122 -2 -186s-2.16699 -127 -3.5 -189s-2.83301 -120.833 -4.5 -176.5l-4.5 -147.5
c-2 -60 -8.33301 -119.167 -19 -177.5s-26.5 -113.333 -47.5 -165s-47.167 -99.334 -78.5 -143.001s-68.833 -81.334 -112.5 -113.001s-93.667 -56.334 -150 -74.001s-119.5 -26.5 -189.5 -26.5zM828.999 1922c4.66699 -6 5.16797 -14.001 1.50098 -24.001
s-9.83398 -20.167 -18.501 -30.5s-19 -20.166 -31 -29.499s-24.333 -16.5 -37 -21.5s-24.667 -7 -36 -6s-20.333 6.5 -27 16.5l-146 193c-4 5.33301 -3.83301 12.333 0.5 21s11 17.834 20 27.5c9 9.66699 19.333 19 31 28s23.167 16.333 34.5 22s21.833 9.16699 31.5 10.5
s16.5 -1 20.5 -7z" />
    <glyph glyph-name="Uacute" unicode="&#xda;" horiz-adv-x="1369" 
d="M681 -20c-69.333 0 -132.001 8.99805 -188.001 26.998s-105.667 42.833 -149 74.5s-80.833 69.334 -112.5 113.001s-58 91.334 -79 143.001s-36.833 106.334 -47.5 164.001s-17 116.834 -19 177.501l-4.5 147.5c-1.66699 55.667 -3.16699 114.5 -4.5 176.5
s-2.5 125 -3.5 189s-1.83301 126 -2.5 186s-0.833984 115.833 -0.500977 167.5s1.5 95.834 3.5 132.501c0.666992 19.333 9.5 35.333 26.5 48s37.833 22 62.5 28s51.334 9 80.001 9s55.167 -3.33301 79.5 -10s44.333 -16.167 60 -28.5s23.167 -27.833 22.5 -46.5
c-1.33301 -30.667 -2.5 -67 -3.5 -109s-1.66699 -87.333 -2 -136l-1 -152.5c-0.333008 -53 -0.333008 -105.833 0 -158.5l1 -153.5c0.333008 -49.667 0.833008 -95.834 1.5 -138.501s1.33398 -80.334 2.00098 -113.001s1.66699 -58.334 3 -77.001
c3.33301 -54.667 13.666 -103 30.999 -145s38.833 -77.167 64.5 -105.5s54.167 -49.833 85.5 -64.5s62.666 -22 93.999 -22c32 0 63.667 7.33301 95 22s60 36.167 86 64.5s47.667 63.5 65 105.5s27.666 90.333 30.999 145c1.33301 18.667 2.33301 44.334 3 77.001
s1.33398 70.334 2.00098 113.001s1.16699 88.834 1.5 138.501s0.5 100.834 0.5 153.501s-0.166992 105.5 -0.5 158.5l-1 152.5c-0.333008 48.667 -1 94 -2 136s-2.16699 78.333 -3.5 109c-0.666992 18.667 6.83301 34.167 22.5 46.5s35.667 21.833 60 28.5
s50.833 10 79.5 10s55.334 -3 80.001 -9s45.5 -15.333 62.5 -28s25.833 -28.667 26.5 -48c1.33301 -36.667 2.33301 -80.834 3 -132.501s0.833984 -107.5 0.500977 -167.5s-1 -122 -2 -186s-2.16699 -127 -3.5 -189s-2.83301 -120.833 -4.5 -176.5l-4.5 -147.5
c-2 -60 -8.33301 -119.167 -19 -177.5s-26.5 -113.333 -47.5 -165s-47.167 -99.334 -78.5 -143.001s-68.833 -81.334 -112.5 -113.001s-93.667 -56.334 -150 -74.001s-119.5 -26.5 -189.5 -26.5zM695.999 2131c4 6 10.834 8.33496 20.501 7.00195
s20.167 -4.83301 31.5 -10.5s22.833 -13 34.5 -22s22 -18.333 31 -28s15.5 -18.834 19.5 -27.501s4.33301 -15.667 1 -21l-146 -193c-7.33301 -10 -16.5 -15.5 -27.5 -16.5s-22.833 1 -35.5 6s-25 12.167 -37 21.5s-22.333 19.166 -31 29.499s-14.834 20.5 -18.501 30.5
s-3.16699 18 1.5 24z" />
    <glyph glyph-name="Ucircumflex" unicode="&#xdb;" horiz-adv-x="1369" 
d="M681 -20c-69.333 0 -132.001 8.99805 -188.001 26.998s-105.667 42.833 -149 74.5s-80.833 69.334 -112.5 113.001s-58 91.334 -79 143.001s-36.833 106.334 -47.5 164.001s-17 116.834 -19 177.501l-4.5 147.5c-1.66699 55.667 -3.16699 114.5 -4.5 176.5
s-2.5 125 -3.5 189s-1.83301 126 -2.5 186s-0.833984 115.833 -0.500977 167.5s1.5 95.834 3.5 132.501c0.666992 19.333 9.5 35.333 26.5 48s37.833 22 62.5 28s51.334 9 80.001 9s55.167 -3.33301 79.5 -10s44.333 -16.167 60 -28.5s23.167 -27.833 22.5 -46.5
c-1.33301 -30.667 -2.5 -67 -3.5 -109s-1.66699 -87.333 -2 -136l-1 -152.5c-0.333008 -53 -0.333008 -105.833 0 -158.5l1 -153.5c0.333008 -49.667 0.833008 -95.834 1.5 -138.501s1.33398 -80.334 2.00098 -113.001s1.66699 -58.334 3 -77.001
c3.33301 -54.667 13.666 -103 30.999 -145s38.833 -77.167 64.5 -105.5s54.167 -49.833 85.5 -64.5s62.666 -22 93.999 -22c32 0 63.667 7.33301 95 22s60 36.167 86 64.5s47.667 63.5 65 105.5s27.666 90.333 30.999 145c1.33301 18.667 2.33301 44.334 3 77.001
s1.33398 70.334 2.00098 113.001s1.16699 88.834 1.5 138.501s0.5 100.834 0.5 153.501s-0.166992 105.5 -0.5 158.5l-1 152.5c-0.333008 48.667 -1 94 -2 136s-2.16699 78.333 -3.5 109c-0.666992 18.667 6.83301 34.167 22.5 46.5s35.667 21.833 60 28.5
s50.833 10 79.5 10s55.334 -3 80.001 -9s45.5 -15.333 62.5 -28s25.833 -28.667 26.5 -48c1.33301 -36.667 2.33301 -80.834 3 -132.501s0.833984 -107.5 0.500977 -167.5s-1 -122 -2 -186s-2.16699 -127 -3.5 -189s-2.83301 -120.833 -4.5 -176.5l-4.5 -147.5
c-2 -60 -8.33301 -119.167 -19 -177.5s-26.5 -113.333 -47.5 -165s-47.167 -99.334 -78.5 -143.001s-68.833 -81.334 -112.5 -113.001s-93.667 -56.334 -150 -74.001s-119.5 -26.5 -189.5 -26.5zM682.999 1954l-38.001 -83.998c-3.33301 -6.66699 -10.333 -10.5 -21 -11.5
s-23.167 -0.166992 -37.5 2.5s-29 7 -44 13s-28.5 12.667 -40.5 20s-21.5 14.666 -28.5 21.999s-8.83301 14.333 -5.5 21l109 240c4 8 15.333 14 34 18s38.667 6 60 6s41.5 -1.83301 60.5 -5.5s30.5 -9.5 34.5 -17.5l133 -235c3.33301 -6 1.83301 -13 -4.5 -21
s-15.166 -15.833 -26.499 -23.5s-24.333 -14.834 -39 -21.501s-29 -11.834 -43 -15.501s-26.5 -5.16699 -37.5 -4.5s-18.167 4.33398 -21.5 11.001z" />
    <glyph glyph-name="Udieresis" unicode="&#xdc;" horiz-adv-x="1369" 
d="M681 -20c-69.333 0 -132.001 8.99805 -188.001 26.998s-105.667 42.833 -149 74.5s-80.833 69.334 -112.5 113.001s-58 91.334 -79 143.001s-36.833 106.334 -47.5 164.001s-17 116.834 -19 177.501l-4.5 147.5c-1.66699 55.667 -3.16699 114.5 -4.5 176.5
s-2.5 125 -3.5 189s-1.83301 126 -2.5 186s-0.833984 115.833 -0.500977 167.5s1.5 95.834 3.5 132.501c0.666992 19.333 9.5 35.333 26.5 48s37.833 22 62.5 28s51.334 9 80.001 9s55.167 -3.33301 79.5 -10s44.333 -16.167 60 -28.5s23.167 -27.833 22.5 -46.5
c-1.33301 -30.667 -2.5 -67 -3.5 -109s-1.66699 -87.333 -2 -136l-1 -152.5c-0.333008 -53 -0.333008 -105.833 0 -158.5l1 -153.5c0.333008 -49.667 0.833008 -95.834 1.5 -138.501s1.33398 -80.334 2.00098 -113.001s1.66699 -58.334 3 -77.001
c3.33301 -54.667 13.666 -103 30.999 -145s38.833 -77.167 64.5 -105.5s54.167 -49.833 85.5 -64.5s62.666 -22 93.999 -22c32 0 63.667 7.33301 95 22s60 36.167 86 64.5s47.667 63.5 65 105.5s27.666 90.333 30.999 145c1.33301 18.667 2.33301 44.334 3 77.001
s1.33398 70.334 2.00098 113.001s1.16699 88.834 1.5 138.501s0.5 100.834 0.5 153.501s-0.166992 105.5 -0.5 158.5l-1 152.5c-0.333008 48.667 -1 94 -2 136s-2.16699 78.333 -3.5 109c-0.666992 18.667 6.83301 34.167 22.5 46.5s35.667 21.833 60 28.5
s50.833 10 79.5 10s55.334 -3 80.001 -9s45.5 -15.333 62.5 -28s25.833 -28.667 26.5 -48c1.33301 -36.667 2.33301 -80.834 3 -132.501s0.833984 -107.5 0.500977 -167.5s-1 -122 -2 -186s-2.16699 -127 -3.5 -189s-2.83301 -120.833 -4.5 -176.5l-4.5 -147.5
c-2 -60 -8.33301 -119.167 -19 -177.5s-26.5 -113.333 -47.5 -165s-47.167 -99.334 -78.5 -143.001s-68.833 -81.334 -112.5 -113.001s-93.667 -56.334 -150 -74.001s-119.5 -26.5 -189.5 -26.5zM543.999 1883c-28 -0.666992 -51.498 4.66895 -70.498 16.002
s-33.167 26 -42.5 44s-14 37.5 -14 58.5s4.5 40.667 13.5 59s22.667 33.666 41 46c18.333 12.333 41.166 18.5 68.499 18.5c24.667 0 45.667 -5.83301 63 -17.5s30.666 -26.334 39.999 -44.001s14.333 -36.834 15 -57.501s-3 -40 -11 -58s-20.5 -33.167 -37.5 -45.5
s-38.833 -18.833 -65.5 -19.5zM836.001 1878c-28 -0.666992 -51.4971 4.83301 -70.4971 16.5s-33.333 26.334 -43 44.001s-14.667 37.167 -15 58.5s4 41 13 59s22.667 33.167 41 45.5s41.166 18.5 68.499 18.5c25.333 0 46.666 -5.83301 63.999 -17.5
s30.666 -26.334 39.999 -44c9.33301 -17.667 14.333 -36.834 15 -57.501s-3 -40 -11 -58s-20.5 -33.167 -37.5 -45.5s-38.5 -18.833 -64.5 -19.5z" />
    <glyph glyph-name="Yacute" unicode="&#xdd;" horiz-adv-x="1444" 
d="M723 1152l356.001 598.001c6.66699 12 19.667 18.5 39 19.5s41.333 -1.5 66 -7.5s50 -14.667 76 -26s49.167 -23.833 69.5 -37.5s35.833 -27.5 46.5 -41.5s13 -26.667 7 -38l-480 -867l2 -740c0 -14 -8.83301 -26.667 -26.5 -38s-39.667 -20.166 -66 -26.499
s-54.833 -10 -85.5 -11s-59.167 1.66699 -85.5 8s-48.333 16.5 -66 30.5s-26.167 32.667 -25.5 56l10 724l-495 870c-4.66699 8 -4.5 17.167 0.5 27.5s13.333 20.666 25 30.999s26 20.5 43 30.5s35 19.167 54 27.5s38.167 15.333 57.5 21s37.333 9.5 54 11.5
s31.167 1.66699 43.5 -1s21.166 -8.33398 26.499 -17.001zM733.001 2131c4 6 10.834 8.33398 20.501 7.00098s20.167 -4.83301 31.5 -10.5s22.833 -13 34.5 -22s22 -18.333 31 -28s15.5 -18.834 19.5 -27.5c4 -8.66699 4.33301 -15.667 1 -21l-146 -193
c-7.33301 -10 -16.5 -15.5 -27.5 -16.5s-22.833 1 -35.5 6s-25 12.167 -37 21.5s-22.333 19.166 -31 29.499s-14.834 20.5 -18.501 30.5s-3.16699 18 1.5 24z" />
    <glyph glyph-name="Thorn" unicode="&#xde;" horiz-adv-x="1787" 
d="M742 1341c77.333 -0.666992 147.17 -13.834 209.503 -39.501s116.833 -60.167 163.5 -103.5s85.667 -93.666 117 -150.999s54.833 -118.333 70.5 -183s23.5 -131.167 23.5 -199.5s-7.83301 -134.666 -23.5 -198.999s-39.167 -125.166 -70.5 -182.499
s-70.666 -107.5 -117.999 -150.5s-102.5 -77.167 -165.5 -102.5s-134.167 -38 -213.5 -38c-62.667 0 -120.334 7.33301 -173.001 22s-101 34.667 -145 60l-11 -442c0 -14 -8.33301 -24.833 -25 -32.5s-37.334 -12.834 -62.001 -15.501s-51.5 -3 -80.5 -1s-55.833 6 -80.5 12
s-45.5 13.833 -62.5 23.5s-25.5 20.834 -25.5 33.501c-0.666992 13.333 -1 39.666 -1 78.999s0.166992 88.166 0.5 146.499s0.666016 124.5 0.999023 198.5s0.833008 152.167 1.5 234.5l2 254l2 257c0.666992 84.333 1.16699 165.5 1.5 243.5s0.666016 149.333 0.999023 214
s0.5 120.667 0.5 168v106c0 23.333 8.66699 42 26 56s39.166 24.167 65.499 30.5s54.833 9 85.5 8s59.334 -4.66699 86.001 -11s48.667 -15.166 66 -26.499s26 -24 26 -38l-9 -306c44 24 92.167 42.667 144.5 56s109.833 19.666 172.5 18.999zM696.004 331
c49.333 -2.66699 92.6699 5 130.003 23s68.666 42.667 93.999 74s44.666 67.5 57.999 108.5s20.666 83 21.999 126s-3.66699 85.167 -15 126.5s-28.833 78.333 -52.5 111s-53.667 58.834 -90 78.501s-78.833 29.5 -127.5 29.5c-46 0 -86.5 -8.33301 -121.5 -25
s-64.667 -38.667 -89 -66s-43.5 -58.833 -57.5 -94.5s-22.667 -72.834 -26 -111.501v-72c2.66699 -38 10.5 -75 23.5 -111s31 -68.167 54 -96.5s50.833 -51.5 83.5 -69.5s70.667 -28.333 114 -31z" />
    <glyph glyph-name="germandbls" unicode="&#xdf;" horiz-adv-x="1392" 
d="M391 -108c0 -17.333 -7.31934 -31.501 -21.9863 -42.501s-32.834 -18.833 -54.501 -23.5s-45.167 -6.33398 -70.5 -5.00098s-48.833 6 -70.5 14s-39.834 19 -54.501 33s-21.667 31 -21 51l7 1264c1.33301 84.667 9.83301 159.334 25.5 224.001s36.834 120.5 63.501 167.5
s58.167 86 94.5 117s76.166 55 119.499 72s89.333 27.833 138 32.5s98.667 4.66699 150 0c82 -8 158.167 -23.333 228.5 -46s131 -54.667 182 -96s90.667 -93.333 119 -156s41.166 -138.334 38.499 -227.001c-2.66699 -83.333 -21 -154.5 -55 -213.5
s-78 -108.167 -132 -147.5c31.333 -20.667 61.166 -43.667 89.499 -69s53 -53.666 74 -84.999s37.5 -65.666 49.5 -102.999s17.667 -78 17 -122c-1.33301 -86.667 -17.166 -161.167 -47.499 -223.5s-69 -114.5 -116 -156.5s-99.667 -75 -158 -99
s-116.833 -41.5 -175.5 -52.5s-114.334 -16.833 -167.001 -17.5s-97 1.66602 -133 6.99902c-16 2 -29 11.333 -39 28s-17.333 36.667 -22 60s-6.83398 48.166 -6.50098 74.499s3.33301 50.333 9 72s13.5 39.167 23.5 52.5s22.667 18.666 38 15.999
c26 -4.66699 55.167 -6.66699 87.5 -6s65.166 4.16699 98.499 10.5s65.666 16 96.999 29s58.666 29.333 81.999 49s41.5 43 54.5 70s18.167 58.167 15.5 93.5c-4 42.667 -17.5 76.834 -40.5 102.501s-53.333 46 -91 61s-81.334 26 -131.001 33s-102.834 12.5 -159.501 16.5
c-10.667 0.666992 -20.834 8.33398 -30.501 23.001s-17.5 32.834 -23.5 54.501s-10 45.334 -12 71.001s-1.33301 49.834 2 72.501s10 42.167 20 58.5s24 26.166 42 29.499c28.667 5.33301 59.167 10.666 91.5 15.999s64.166 11.333 95.499 18s61.333 14.834 90 24.501
s53.667 21.5 75 35.5s37.833 31.167 49.5 51.5s16.834 44.5 15.501 72.5c-2 28 -9.83301 54.833 -23.5 80.5s-31.667 48.5 -54 68.5s-47.833 36.5 -76.5 49.5s-58.667 21.167 -90 24.5c-46.667 5.33301 -86.334 2.5 -119.001 -8.5s-59.834 -27.5 -81.501 -49.5
s-38.5 -48.167 -50.5 -78.5s-21.167 -62.5 -27.5 -96.5s-10.5 -68.167 -12.5 -102.5s-3.33301 -66.5 -4 -96.5c-2.66699 -60 -4.83398 -124.667 -6.50098 -194s-3 -140.333 -4 -213s-1.5 -145.334 -1.5 -218.001v-209.5c0 -67 0.166992 -129.833 0.5 -188.5
s0.5 -110 0.5 -154z" />
    <glyph glyph-name="agrave" unicode="&#xe0;" horiz-adv-x="1400" 
d="M1321 40c0 -14 -8.66113 -26.9951 -25.9941 -38.9951s-39.333 -21.667 -66 -29s-55.334 -12.166 -86.001 -14.499s-59.167 -0.833008 -85.5 4.5s-48.333 14.666 -66 27.999s-26.167 31.666 -25.5 54.999v19c-82.667 -54.667 -172.334 -82.667 -269.001 -84
c-68.667 -0.666992 -131.334 7.66602 -188.001 24.999s-107.667 41.5 -153 72.5s-84.833 67.667 -118.5 110s-61.834 88.166 -84.501 137.499s-40.167 101 -52.5 155s-19.5 108.333 -21.5 163c-2 58 2.16699 116 12.5 174s26.666 113.333 48.999 166s51 101.667 86 147
s76.167 84.666 123.5 117.999s100.666 59.333 159.999 78s124.666 28 195.999 28c52 -0.666992 100.333 -6.5 145 -17.5s86.334 -26.833 125.001 -47.5c0 5.33301 0.166992 10.666 0.5 15.999s0.5 9.66602 0.5 12.999c0 12.667 8.5 23.334 25.5 32.001s38 15.167 63 19.5
s52 6.5 81 6.5s56 -2.16699 81 -6.5s45.833 -11 62.5 -20s25 -20.167 25 -33.5zM667.006 1015c-40 -1.33301 -76.1631 -11.168 -108.496 -29.501s-59.833 -43.5 -82.5 -75.5s-39.834 -69.667 -51.501 -113s-16.5 -90.333 -14.5 -141c0.666992 -23.333 3.5 -48 8.5 -74
s12.333 -51.667 22 -77s21.5 -49.5 35.5 -72.5s30.5 -43.333 49.5 -61s40.5 -31.834 64.5 -42.501s50.667 -16 80 -16c48.667 0 91.667 11 129 33s68.666 50.833 93.999 86.5s44.666 75.834 57.999 120.501s20 89.334 20 134.001c0 42.667 -6.66699 84.167 -20 124.5
s-33 76 -59 107s-57.833 55.5 -95.5 73.5s-80.834 25.667 -129.501 23zM844.01 1539c4.66699 -6 5.16797 -14.002 1.50098 -24.002s-9.83398 -20.167 -18.501 -30.5s-19 -20.166 -31 -29.499s-24.333 -16.5 -37 -21.5s-24.667 -7 -36 -6s-20.333 6.5 -27 16.5l-146 193
c-4 5.33301 -3.83301 12.333 0.5 21s11 17.834 20 27.501s19.333 19 31 28s23.167 16.333 34.5 22s21.833 9.16699 31.5 10.5s16.5 -1 20.5 -7z" />
    <glyph glyph-name="aacute" unicode="&#xe1;" horiz-adv-x="1400" 
d="M1321 40c0 -14 -8.66113 -26.9951 -25.9941 -38.9951s-39.333 -21.667 -66 -29s-55.334 -12.166 -86.001 -14.499s-59.167 -0.833008 -85.5 4.5s-48.333 14.666 -66 27.999s-26.167 31.666 -25.5 54.999v19c-82.667 -54.667 -172.334 -82.667 -269.001 -84
c-68.667 -0.666992 -131.334 7.66602 -188.001 24.999s-107.667 41.5 -153 72.5s-84.833 67.667 -118.5 110s-61.834 88.166 -84.501 137.499s-40.167 101 -52.5 155s-19.5 108.333 -21.5 163c-2 58 2.16699 116 12.5 174s26.666 113.333 48.999 166s51 101.667 86 147
s76.167 84.666 123.5 117.999s100.666 59.333 159.999 78s124.666 28 195.999 28c52 -0.666992 100.333 -6.5 145 -17.5s86.334 -26.833 125.001 -47.5c0 5.33301 0.166992 10.666 0.5 15.999s0.5 9.66602 0.5 12.999c0 12.667 8.5 23.334 25.5 32.001s38 15.167 63 19.5
s52 6.5 81 6.5s56 -2.16699 81 -6.5s45.833 -11 62.5 -20s25 -20.167 25 -33.5zM667.006 1015c-40 -1.33301 -76.1631 -11.168 -108.496 -29.501s-59.833 -43.5 -82.5 -75.5s-39.834 -69.667 -51.501 -113s-16.5 -90.333 -14.5 -141c0.666992 -23.333 3.5 -48 8.5 -74
s12.333 -51.667 22 -77s21.5 -49.5 35.5 -72.5s30.5 -43.333 49.5 -61s40.5 -31.834 64.5 -42.501s50.667 -16 80 -16c48.667 0 91.667 11 129 33s68.666 50.833 93.999 86.5s44.666 75.834 57.999 120.501s20 89.334 20 134.001c0 42.667 -6.66699 84.167 -20 124.5
s-33 76 -59 107s-57.833 55.5 -95.5 73.5s-80.834 25.667 -129.501 23zM711.01 1748c4 6 10.834 8.33496 20.501 7.00195s20.167 -4.83301 31.5 -10.5s22.833 -13 34.5 -22s22 -18.333 31 -28s15.5 -18.834 19.5 -27.501s4.33301 -15.667 1 -21l-146 -193
c-7.33301 -10 -16.5 -15.5 -27.5 -16.5s-22.833 1 -35.5 6s-25 12.167 -37 21.5s-22.333 19.166 -31 29.499s-14.834 20.5 -18.501 30.5s-3.16699 18 1.5 24z" />
    <glyph glyph-name="acircumflex" unicode="&#xe2;" horiz-adv-x="1400" 
d="M1321 40c0 -14 -8.66113 -26.9951 -25.9941 -38.9951s-39.333 -21.667 -66 -29s-55.334 -12.166 -86.001 -14.499s-59.167 -0.833008 -85.5 4.5s-48.333 14.666 -66 27.999s-26.167 31.666 -25.5 54.999v19c-82.667 -54.667 -172.334 -82.667 -269.001 -84
c-68.667 -0.666992 -131.334 7.66602 -188.001 24.999s-107.667 41.5 -153 72.5s-84.833 67.667 -118.5 110s-61.834 88.166 -84.501 137.499s-40.167 101 -52.5 155s-19.5 108.333 -21.5 163c-2 58 2.16699 116 12.5 174s26.666 113.333 48.999 166s51 101.667 86 147
s76.167 84.666 123.5 117.999s100.666 59.333 159.999 78s124.666 28 195.999 28c52 -0.666992 100.333 -6.5 145 -17.5s86.334 -26.833 125.001 -47.5c0 5.33301 0.166992 10.666 0.5 15.999s0.5 9.66602 0.5 12.999c0 12.667 8.5 23.334 25.5 32.001s38 15.167 63 19.5
s52 6.5 81 6.5s56 -2.16699 81 -6.5s45.833 -11 62.5 -20s25 -20.167 25 -33.5zM667.006 1015c-40 -1.33301 -76.1631 -11.168 -108.496 -29.501s-59.833 -43.5 -82.5 -75.5s-39.834 -69.667 -51.501 -113s-16.5 -90.333 -14.5 -141c0.666992 -23.333 3.5 -48 8.5 -74
s12.333 -51.667 22 -77s21.5 -49.5 35.5 -72.5s30.5 -43.333 49.5 -61s40.5 -31.834 64.5 -42.501s50.667 -16 80 -16c48.667 0 91.667 11 129 33s68.666 50.833 93.999 86.5s44.666 75.834 57.999 120.501s20 89.334 20 134.001c0 42.667 -6.66699 84.167 -20 124.5
s-33 76 -59 107s-57.833 55.5 -95.5 73.5s-80.834 25.667 -129.501 23zM698.01 1571l-38.001 -83.998c-3.33301 -6.66699 -10.333 -10.5 -21 -11.5s-23.167 -0.166992 -37.5 2.5s-29 7 -44 13s-28.5 12.667 -40.5 20s-21.5 14.666 -28.5 21.999s-8.83301 14.333 -5.5 21
l109 240c4 8 15.333 14 34 18s38.667 6 60 6s41.5 -1.83301 60.5 -5.5s30.5 -9.5 34.5 -17.5l133 -235c3.33301 -6 1.83301 -13 -4.5 -21s-15.166 -15.833 -26.499 -23.5s-24.333 -14.834 -39 -21.501s-29 -11.834 -43 -15.501s-26.5 -5.16699 -37.5 -4.5
s-18.167 4.33398 -21.5 11.001z" />
    <glyph glyph-name="atilde" unicode="&#xe3;" horiz-adv-x="1400" 
d="M1321 40c0 -14 -8.66113 -26.9951 -25.9941 -38.9951s-39.333 -21.667 -66 -29s-55.334 -12.166 -86.001 -14.499s-59.167 -0.833008 -85.5 4.5s-48.333 14.666 -66 27.999s-26.167 31.666 -25.5 54.999v19c-82.667 -54.667 -172.334 -82.667 -269.001 -84
c-68.667 -0.666992 -131.334 7.66602 -188.001 24.999s-107.667 41.5 -153 72.5s-84.833 67.667 -118.5 110s-61.834 88.166 -84.501 137.499s-40.167 101 -52.5 155s-19.5 108.333 -21.5 163c-2 58 2.16699 116 12.5 174s26.666 113.333 48.999 166s51 101.667 86 147
s76.167 84.666 123.5 117.999s100.666 59.333 159.999 78s124.666 28 195.999 28c52 -0.666992 100.333 -6.5 145 -17.5s86.334 -26.833 125.001 -47.5c0 5.33301 0.166992 10.666 0.5 15.999s0.5 9.66602 0.5 12.999c0 12.667 8.5 23.334 25.5 32.001s38 15.167 63 19.5
s52 6.5 81 6.5s56 -2.16699 81 -6.5s45.833 -11 62.5 -20s25 -20.167 25 -33.5zM667.006 1015c-40 -1.33301 -76.1631 -11.168 -108.496 -29.501s-59.833 -43.5 -82.5 -75.5s-39.834 -69.667 -51.501 -113s-16.5 -90.333 -14.5 -141c0.666992 -23.333 3.5 -48 8.5 -74
s12.333 -51.667 22 -77s21.5 -49.5 35.5 -72.5s30.5 -43.333 49.5 -61s40.5 -31.834 64.5 -42.501s50.667 -16 80 -16c48.667 0 91.667 11 129 33s68.666 50.833 93.999 86.5s44.666 75.834 57.999 120.501s20 89.334 20 134.001c0 42.667 -6.66699 84.167 -20 124.5
s-33 76 -59 107s-57.833 55.5 -95.5 73.5s-80.834 25.667 -129.501 23zM502.01 1526c-4 -8 -10.6719 -12.3281 -20.0049 -12.9951s-19.5 1.16602 -30.5 5.49902s-22.167 10.666 -33.5 18.999s-21.166 17.666 -29.499 27.999s-14 21.166 -17 32.499s-1.5 22.333 4.5 33
c26 46 52.667 79.333 80 100s55.333 32.167 84 34.5s58 -2.16699 88 -13.5s60.333 -26 91 -44c24 -14 43.333 -22.5 58 -25.5s27.334 -2.16699 38.001 2.5s20 12.5 28 23.5l28 38.5c8 11.333 18 18.666 30 21.999s24.667 4 38 2s26.5 -6.16699 39.5 -12.5s24 -14 33 -23
s15.333 -19 19 -30s3.16699 -21.833 -1.5 -32.5c-18 -38.667 -40 -71.167 -66 -97.5s-54.167 -45.166 -84.5 -56.499s-62.166 -14.833 -95.499 -10.5s-66.666 17.833 -99.999 40.5c-19.333 13.333 -37.333 24.666 -54 33.999s-32.167 14.333 -46.5 15
s-28.166 -4.5 -41.499 -15.5s-26.333 -29.833 -39 -56.5z" />
    <glyph glyph-name="adieresis" unicode="&#xe4;" horiz-adv-x="1400" 
d="M1321 40c0 -14 -8.66113 -26.9951 -25.9941 -38.9951s-39.333 -21.667 -66 -29s-55.334 -12.166 -86.001 -14.499s-59.167 -0.833008 -85.5 4.5s-48.333 14.666 -66 27.999s-26.167 31.666 -25.5 54.999v19c-82.667 -54.667 -172.334 -82.667 -269.001 -84
c-68.667 -0.666992 -131.334 7.66602 -188.001 24.999s-107.667 41.5 -153 72.5s-84.833 67.667 -118.5 110s-61.834 88.166 -84.501 137.499s-40.167 101 -52.5 155s-19.5 108.333 -21.5 163c-2 58 2.16699 116 12.5 174s26.666 113.333 48.999 166s51 101.667 86 147
s76.167 84.666 123.5 117.999s100.666 59.333 159.999 78s124.666 28 195.999 28c52 -0.666992 100.333 -6.5 145 -17.5s86.334 -26.833 125.001 -47.5c0 5.33301 0.166992 10.666 0.5 15.999s0.5 9.66602 0.5 12.999c0 12.667 8.5 23.334 25.5 32.001s38 15.167 63 19.5
s52 6.5 81 6.5s56 -2.16699 81 -6.5s45.833 -11 62.5 -20s25 -20.167 25 -33.5zM667.006 1015c-40 -1.33301 -76.1631 -11.168 -108.496 -29.501s-59.833 -43.5 -82.5 -75.5s-39.834 -69.667 -51.501 -113s-16.5 -90.333 -14.5 -141c0.666992 -23.333 3.5 -48 8.5 -74
s12.333 -51.667 22 -77s21.5 -49.5 35.5 -72.5s30.5 -43.333 49.5 -61s40.5 -31.834 64.5 -42.501s50.667 -16 80 -16c48.667 0 91.667 11 129 33s68.666 50.833 93.999 86.5s44.666 75.834 57.999 120.501s20 89.334 20 134.001c0 42.667 -6.66699 84.167 -20 124.5
s-33 76 -59 107s-57.833 55.5 -95.5 73.5s-80.834 25.667 -129.501 23zM559.01 1500c-28 -0.666992 -51.498 4.66992 -70.498 16.0029s-33.167 26 -42.5 44s-14 37.5 -14 58.5s4.5 40.667 13.5 59s22.667 33.666 41 45.999s41.166 18.5 68.499 18.5
c24.667 0 45.667 -5.83301 63 -17.5s30.666 -26.334 39.999 -44.001s14.333 -36.834 15 -57.501s-3 -40 -11 -58s-20.5 -33.167 -37.5 -45.5s-38.833 -18.833 -65.5 -19.5zM851.012 1495.01c-28 -0.666992 -51.4971 4.83398 -70.4971 16.501s-33.333 26.334 -43 44.001
s-14.667 37.167 -15 58.5s4 41 13 59s22.667 33.167 41 45.5s41.166 18.5 68.499 18.5c25.333 0 46.666 -5.83301 63.999 -17.5s30.666 -26.334 39.999 -44.001s14.333 -36.834 15 -57.501s-3 -40 -11 -58s-20.5 -33.167 -37.5 -45.5s-38.5 -18.833 -64.5 -19.5z" />
    <glyph glyph-name="aring" unicode="&#xe5;" horiz-adv-x="1400" 
d="M1321 40c0 -14 -8.66113 -26.9951 -25.9941 -38.9951s-39.333 -21.667 -66 -29s-55.334 -12.166 -86.001 -14.499s-59.167 -0.833008 -85.5 4.5s-48.333 14.666 -66 27.999s-26.167 31.666 -25.5 54.999v19c-82.667 -54.667 -172.334 -82.667 -269.001 -84
c-68.667 -0.666992 -131.334 7.66602 -188.001 24.999s-107.667 41.5 -153 72.5s-84.833 67.667 -118.5 110s-61.834 88.166 -84.501 137.499s-40.167 101 -52.5 155s-19.5 108.333 -21.5 163c-2 58 2.16699 116 12.5 174s26.666 113.333 48.999 166s51 101.667 86 147
s76.167 84.666 123.5 117.999s100.666 59.333 159.999 78s124.666 28 195.999 28c52 -0.666992 100.333 -6.5 145 -17.5s86.334 -26.833 125.001 -47.5c0 5.33301 0.166992 10.666 0.5 15.999s0.5 9.66602 0.5 12.999c0 12.667 8.5 23.334 25.5 32.001s38 15.167 63 19.5
s52 6.5 81 6.5s56 -2.16699 81 -6.5s45.833 -11 62.5 -20s25 -20.167 25 -33.5zM667.006 1015c-40 -1.33301 -76.1631 -11.168 -108.496 -29.501s-59.833 -43.5 -82.5 -75.5s-39.834 -69.667 -51.501 -113s-16.5 -90.333 -14.5 -141c0.666992 -23.333 3.5 -48 8.5 -74
s12.333 -51.667 22 -77s21.5 -49.5 35.5 -72.5s30.5 -43.333 49.5 -61s40.5 -31.834 64.5 -42.501s50.667 -16 80 -16c48.667 0 91.667 11 129 33s68.666 50.833 93.999 86.5s44.666 75.834 57.999 120.501s20 89.334 20 134.001c0 42.667 -6.66699 84.167 -20 124.5
s-33 76 -59 107s-57.833 55.5 -95.5 73.5s-80.834 25.667 -129.501 23zM709.01 1447c-46 -1.33301 -84.1699 7.16406 -114.503 25.4971s-53.333 41.5 -69 69.5s-23.667 58.667 -24 92s6.83398 64.333 21.501 93s36.834 52.667 66.501 72s66.834 29 111.501 29
c40.667 0 75 -9.16699 103 -27.5s49.5 -41.5 64.5 -69.5s23 -58.167 24 -90.5s-5 -62.666 -18 -90.999s-33.167 -52.166 -60.5 -71.499s-62.333 -29.666 -105 -30.999zM702.007 1599c14.667 0 25.501 4.33105 32.501 12.998s10.333 18 10 28s-4.33301 19.167 -12 27.5
s-18.834 12.5 -33.501 12.5c-15.333 0 -26.833 -4.33301 -34.5 -13s-11.5 -18.167 -11.5 -28.5s4.16699 -19.666 12.5 -27.999s20.5 -12.166 36.5 -11.499z" />
    <glyph glyph-name="ae" unicode="&#xe6;" horiz-adv-x="2121" 
d="M1771 438c9.33301 10.667 23.6729 15.002 43.0059 13.002s40.166 -8.16699 62.499 -18.5s44.666 -23.666 66.999 -39.999s41.166 -33.5 56.499 -51.5s25.666 -35.667 30.999 -53s2.33301 -32.333 -9 -45c-44 -48 -91.5 -89.5 -142.5 -124.5s-103.667 -63.5 -158 -85.5
s-109.666 -37.667 -165.999 -47s-111.833 -12.333 -166.5 -9c-53.333 3.33301 -105 11.666 -155 24.999s-97.333 32.666 -142 57.999c-34.667 -25.333 -69 -46.166 -103 -62.499s-66.667 -29.166 -98 -38.499s-60.666 -15.833 -87.999 -19.5s-52 -5.5 -74 -5.5
c-68.667 -0.666992 -131.334 7.66602 -188.001 24.999s-107.667 41.5 -153 72.5s-84.833 67.667 -118.5 110s-61.834 88.166 -84.501 137.499s-40.167 101 -52.5 155s-19.5 108.333 -21.5 163c-2 58 2.16699 116 12.5 174s26.666 113.5 48.999 166.5s51 102.167 86 147.5
s76.167 84.666 123.5 117.999s100.666 59.333 159.999 78s124.666 27.667 195.999 27c20.667 0 43.667 -1.83301 69 -5.5s51.5 -9 78.5 -16s53.833 -15.833 80.5 -26.5s51.667 -23 75 -37c53.333 40.667 114 73 182 97s144.667 36.667 230 38
c95.333 1.33301 178.166 -14.667 248.499 -48s129.666 -78 177.999 -134s86 -120 113 -192s44.5 -146.333 52.5 -223c2.66699 -25.333 2.5 -51.333 -0.5 -78s-9 -51.167 -18 -73.5s-21 -40.666 -36 -54.999s-33.167 -21.833 -54.5 -22.5
c-28.667 -0.666992 -63.167 -1.16699 -103.5 -1.5s-84.166 -0.333008 -131.499 0s-97.166 0.666016 -149.499 0.999023s-104.666 0.833008 -156.999 1.5s-103.833 1.16699 -154.5 1.5s-97.667 0.833008 -141 1.5c10.667 -44 26.667 -82.5 48 -115.5s46 -60.833 74 -83.5
s59 -39.667 93 -51s69.667 -17.333 107 -18c59.333 -0.666992 119.5 13 180.5 41s117.5 71 169.5 129zM702.007 267.002c28 -0.666992 54.168 2.83496 78.501 10.502s46.833 18.5 67.5 32.5c-25.333 48.667 -44.5 102.167 -57.5 160.5s-18.833 121.833 -17.5 190.5
c1.33301 95.333 20 188 56 278c-19.333 9.33301 -39.5 17 -60.5 23s-44.167 8.33301 -69.5 7c-40 -1.33301 -76.167 -11.333 -108.5 -30s-59.833 -43.834 -82.5 -75.501s-39.834 -69.167 -51.501 -112.5s-16.5 -90.333 -14.5 -141c0.666992 -23.333 3.5 -48 8.5 -74
s12.333 -51.667 22 -77s21.5 -49.5 35.5 -72.5s30.5 -43.333 49.5 -61s40.5 -31.834 64.5 -42.501s50.667 -16 80 -16zM1409.01 1028c-56.667 -2.66699 -107.332 -18.1689 -151.999 -46.502s-81.334 -64.5 -110.001 -108.5l536 2c-10 22.667 -22.5 43.834 -37.5 63.501
s-33.5 36.334 -55.5 50.001s-47.833 24 -77.5 31s-64.167 9.83301 -103.5 8.5z" />
    <glyph glyph-name="ccedilla" unicode="&#xe7;" horiz-adv-x="1314" 
d="M581 -308c-18.667 12 -29.3281 26.668 -31.9951 44.001s-1 33.166 5 47.499s14.667 25.333 26 33s21.666 8.5 30.999 2.5c13.333 -9.33301 29.666 -18 48.999 -26s38.666 -13 57.999 -15s37.166 0.166992 53.499 6.5s28.5 19.5 36.5 39.5c4 10 1.66699 18.667 -7 26
s-21.5 13.666 -38.5 18.999s-36.833 9.33301 -59.5 12s-46 4.66699 -70 6c-5.33301 0 -10.5 0.666992 -15.5 2s-9.33301 4.16602 -13 8.49902s-6.5 10.833 -8.5 19.5s-2.66699 20.334 -2 35.001l2 65c-74 10.667 -140 31.834 -198 63.501s-108.167 70.667 -150.5 117
s-77 98.5 -104 156.5s-46.167 118.667 -57.5 182s-15 127.666 -11 192.999s15.5 128.5 34.5 189.5s45.667 118.333 80 172s76.166 100.334 125.499 140.001s106.166 71 170.499 94s136.166 34.5 215.499 34.5c58 0 113.333 -7.16699 166 -21.5s101.167 -34.833 145.5 -61.5
s83.333 -59.167 117 -97.5s60.5 -81.5 80.5 -129.5c6.66699 -16 4.83398 -32.5 -5.49902 -49.5s-25.333 -33 -45 -48s-42.334 -28.333 -68.001 -40s-50.667 -20.167 -75 -25.5s-46.333 -6.83301 -66 -4.5s-33.167 10.166 -40.5 23.499c-22 39.333 -53 69.5 -93 90.5
s-91.667 29.167 -155 24.5c-46 -3.33301 -86.5 -15.666 -121.5 -36.999s-64 -48.166 -87 -80.499s-40.167 -68.666 -51.5 -108.999s-16.833 -81.166 -16.5 -122.499s6.83301 -81.5 19.5 -120.5s31.167 -73.833 55.5 -104.5s54.833 -55.5 91.5 -74.5s79.667 -28.5 129 -28.5
c26.667 0 53.334 4.5 80.001 13.5s52 20.667 76 35s46 30.333 66 48s37 35.167 51 52.5c12.667 16 29.5 24.333 50.5 25s43 -4 66 -14s45.667 -23.833 68 -41.5s41.333 -36.5 57 -56.5s26.5 -39.667 32.5 -59s4.33301 -36 -5 -50c-25.333 -36 -55.333 -70.5 -90 -103.5
s-73 -62.5 -115 -88.5s-87.167 -47.333 -135.5 -64s-98.5 -26.334 -150.5 -29.001c-1.33301 -14 1 -25 7 -33c71.333 -4 127.333 -20.333 168 -49s60.667 -66.334 60 -113.001c-0.666992 -26 -7.66699 -48.833 -21 -68.5s-30.833 -36.334 -52.5 -50.001
s-46.167 -24 -73.5 -31s-55.166 -11 -83.499 -12s-56 1.5 -83 7.5s-51.167 15.333 -72.5 28v2v0z" />
    <glyph glyph-name="egrave" unicode="&#xe8;" horiz-adv-x="1422" 
d="M1072 438c9.33301 10.667 23.668 14.999 43.001 12.999s40.166 -8.16699 62.499 -18.5s44.666 -23.666 66.999 -39.999s41.166 -33.5 56.499 -51.5s25.666 -35.667 30.999 -53s2.33301 -32.333 -9 -45c-44 -48 -91.5 -89.5 -142.5 -124.5s-103.667 -63.5 -158 -85.5
s-109.666 -37.667 -165.999 -47s-111.833 -12.333 -166.5 -9c-82.667 4 -161.667 22 -237 54s-141.333 76.833 -198 134.5s-101.5 128 -134.5 211s-48.5 177.833 -46.5 284.5c0.666992 56.667 7.66699 113.167 21 169.5s32.833 110 58.5 161s57.334 98.667 95.001 143
s81.5 82.833 131.5 115.5s106.167 58.5 168.5 77.5s130.833 29.167 205.5 30.5c95.333 1.33301 178.166 -14.667 248.499 -48s129.666 -78 177.999 -134s86 -120 113 -192s44.5 -146.333 52.5 -223c2.66699 -25.333 2.5 -51.333 -0.5 -78s-9 -51.167 -18 -73.5
s-21 -40.666 -36 -54.999s-33.167 -21.833 -54.5 -22.5c-28.667 -0.666992 -63.167 -1.16699 -103.5 -1.5s-84.166 -0.333008 -131.499 0s-97.166 0.666016 -149.499 0.999023s-104.666 0.833008 -156.999 1.5s-103.833 1.16699 -154.5 1.5s-97.667 0.833008 -141 1.5
c10.667 -44 26.667 -82.5 48 -115.5s46 -60.833 74 -83.5s59 -39.667 93 -51s69.667 -17.333 107 -18c59.333 -0.666992 119.5 13 180.5 41s117.5 71 169.5 129zM710.002 1028c-56.667 -2.66699 -107.332 -18.1689 -151.999 -46.502s-81.334 -64.5 -110.001 -108.5l536 2
c-10 22.667 -22.5 43.834 -37.5 63.501s-33.5 36.334 -55.5 50.001s-47.833 24 -77.5 31s-64.167 9.83301 -103.5 8.5zM855.004 1539c4.66699 -6 5.16797 -14.002 1.50098 -24.002s-9.83398 -20.167 -18.501 -30.5s-19 -20.166 -31 -29.499s-24.333 -16.5 -37 -21.5
s-24.667 -7 -36 -6s-20.333 6.5 -27 16.5l-146 193c-4 5.33301 -3.83301 12.333 0.5 21s11 17.834 20 27.501s19.333 19 31 28s23.167 16.333 34.5 22s21.833 9.16699 31.5 10.5s16.5 -1 20.5 -7z" />
    <glyph glyph-name="eacute" unicode="&#xe9;" horiz-adv-x="1422" 
d="M1072 438c9.33301 10.667 23.668 14.999 43.001 12.999s40.166 -8.16699 62.499 -18.5s44.666 -23.666 66.999 -39.999s41.166 -33.5 56.499 -51.5s25.666 -35.667 30.999 -53s2.33301 -32.333 -9 -45c-44 -48 -91.5 -89.5 -142.5 -124.5s-103.667 -63.5 -158 -85.5
s-109.666 -37.667 -165.999 -47s-111.833 -12.333 -166.5 -9c-82.667 4 -161.667 22 -237 54s-141.333 76.833 -198 134.5s-101.5 128 -134.5 211s-48.5 177.833 -46.5 284.5c0.666992 56.667 7.66699 113.167 21 169.5s32.833 110 58.5 161s57.334 98.667 95.001 143
s81.5 82.833 131.5 115.5s106.167 58.5 168.5 77.5s130.833 29.167 205.5 30.5c95.333 1.33301 178.166 -14.667 248.499 -48s129.666 -78 177.999 -134s86 -120 113 -192s44.5 -146.333 52.5 -223c2.66699 -25.333 2.5 -51.333 -0.5 -78s-9 -51.167 -18 -73.5
s-21 -40.666 -36 -54.999s-33.167 -21.833 -54.5 -22.5c-28.667 -0.666992 -63.167 -1.16699 -103.5 -1.5s-84.166 -0.333008 -131.499 0s-97.166 0.666016 -149.499 0.999023s-104.666 0.833008 -156.999 1.5s-103.833 1.16699 -154.5 1.5s-97.667 0.833008 -141 1.5
c10.667 -44 26.667 -82.5 48 -115.5s46 -60.833 74 -83.5s59 -39.667 93 -51s69.667 -17.333 107 -18c59.333 -0.666992 119.5 13 180.5 41s117.5 71 169.5 129zM710.002 1028c-56.667 -2.66699 -107.332 -18.1689 -151.999 -46.502s-81.334 -64.5 -110.001 -108.5l536 2
c-10 22.667 -22.5 43.834 -37.5 63.501s-33.5 36.334 -55.5 50.001s-47.833 24 -77.5 31s-64.167 9.83301 -103.5 8.5zM722.004 1748c4 6 10.834 8.33496 20.501 7.00195s20.167 -4.83301 31.5 -10.5s22.833 -13 34.5 -22s22 -18.333 31 -28s15.5 -18.834 19.5 -27.501
s4.33301 -15.667 1 -21l-146 -193c-7.33301 -10 -16.5 -15.5 -27.5 -16.5s-22.833 1 -35.5 6s-25 12.167 -37 21.5s-22.333 19.166 -31 29.499s-14.834 20.5 -18.501 30.5s-3.16699 18 1.5 24z" />
    <glyph glyph-name="ecircumflex" unicode="&#xea;" horiz-adv-x="1422" 
d="M1072 438c9.33301 10.667 23.668 14.999 43.001 12.999s40.166 -8.16699 62.499 -18.5s44.666 -23.666 66.999 -39.999s41.166 -33.5 56.499 -51.5s25.666 -35.667 30.999 -53s2.33301 -32.333 -9 -45c-44 -48 -91.5 -89.5 -142.5 -124.5s-103.667 -63.5 -158 -85.5
s-109.666 -37.667 -165.999 -47s-111.833 -12.333 -166.5 -9c-82.667 4 -161.667 22 -237 54s-141.333 76.833 -198 134.5s-101.5 128 -134.5 211s-48.5 177.833 -46.5 284.5c0.666992 56.667 7.66699 113.167 21 169.5s32.833 110 58.5 161s57.334 98.667 95.001 143
s81.5 82.833 131.5 115.5s106.167 58.5 168.5 77.5s130.833 29.167 205.5 30.5c95.333 1.33301 178.166 -14.667 248.499 -48s129.666 -78 177.999 -134s86 -120 113 -192s44.5 -146.333 52.5 -223c2.66699 -25.333 2.5 -51.333 -0.5 -78s-9 -51.167 -18 -73.5
s-21 -40.666 -36 -54.999s-33.167 -21.833 -54.5 -22.5c-28.667 -0.666992 -63.167 -1.16699 -103.5 -1.5s-84.166 -0.333008 -131.499 0s-97.166 0.666016 -149.499 0.999023s-104.666 0.833008 -156.999 1.5s-103.833 1.16699 -154.5 1.5s-97.667 0.833008 -141 1.5
c10.667 -44 26.667 -82.5 48 -115.5s46 -60.833 74 -83.5s59 -39.667 93 -51s69.667 -17.333 107 -18c59.333 -0.666992 119.5 13 180.5 41s117.5 71 169.5 129zM710.002 1028c-56.667 -2.66699 -107.332 -18.1689 -151.999 -46.502s-81.334 -64.5 -110.001 -108.5l536 2
c-10 22.667 -22.5 43.834 -37.5 63.501s-33.5 36.334 -55.5 50.001s-47.833 24 -77.5 31s-64.167 9.83301 -103.5 8.5zM709.004 1571l-38.001 -83.998c-3.33301 -6.66699 -10.333 -10.5 -21 -11.5s-23.167 -0.166992 -37.5 2.5s-29 7 -44 13s-28.5 12.667 -40.5 20
s-21.5 14.666 -28.5 21.999s-8.83301 14.333 -5.5 21l109 240c4 8 15.333 14 34 18s38.667 6 60 6s41.5 -1.83301 60.5 -5.5s30.5 -9.5 34.5 -17.5l133 -235c3.33301 -6 1.83301 -13 -4.5 -21s-15.166 -15.833 -26.499 -23.5s-24.333 -14.834 -39 -21.501
s-29 -11.834 -43 -15.501s-26.5 -5.16699 -37.5 -4.5s-18.167 4.33398 -21.5 11.001z" />
    <glyph glyph-name="edieresis" unicode="&#xeb;" horiz-adv-x="1422" 
d="M1072 438c9.33301 10.667 23.668 14.999 43.001 12.999s40.166 -8.16699 62.499 -18.5s44.666 -23.666 66.999 -39.999s41.166 -33.5 56.499 -51.5s25.666 -35.667 30.999 -53s2.33301 -32.333 -9 -45c-44 -48 -91.5 -89.5 -142.5 -124.5s-103.667 -63.5 -158 -85.5
s-109.666 -37.667 -165.999 -47s-111.833 -12.333 -166.5 -9c-82.667 4 -161.667 22 -237 54s-141.333 76.833 -198 134.5s-101.5 128 -134.5 211s-48.5 177.833 -46.5 284.5c0.666992 56.667 7.66699 113.167 21 169.5s32.833 110 58.5 161s57.334 98.667 95.001 143
s81.5 82.833 131.5 115.5s106.167 58.5 168.5 77.5s130.833 29.167 205.5 30.5c95.333 1.33301 178.166 -14.667 248.499 -48s129.666 -78 177.999 -134s86 -120 113 -192s44.5 -146.333 52.5 -223c2.66699 -25.333 2.5 -51.333 -0.5 -78s-9 -51.167 -18 -73.5
s-21 -40.666 -36 -54.999s-33.167 -21.833 -54.5 -22.5c-28.667 -0.666992 -63.167 -1.16699 -103.5 -1.5s-84.166 -0.333008 -131.499 0s-97.166 0.666016 -149.499 0.999023s-104.666 0.833008 -156.999 1.5s-103.833 1.16699 -154.5 1.5s-97.667 0.833008 -141 1.5
c10.667 -44 26.667 -82.5 48 -115.5s46 -60.833 74 -83.5s59 -39.667 93 -51s69.667 -17.333 107 -18c59.333 -0.666992 119.5 13 180.5 41s117.5 71 169.5 129zM710.002 1028c-56.667 -2.66699 -107.332 -18.1689 -151.999 -46.502s-81.334 -64.5 -110.001 -108.5l536 2
c-10 22.667 -22.5 43.834 -37.5 63.501s-33.5 36.334 -55.5 50.001s-47.833 24 -77.5 31s-64.167 9.83301 -103.5 8.5zM570.004 1500c-28 -0.666992 -51.498 4.66992 -70.498 16.0029s-33.167 26 -42.5 44s-14 37.5 -14 58.5s4.5 40.667 13.5 59s22.667 33.666 41 45.999
s41.166 18.5 68.499 18.5c24.667 0 45.667 -5.83301 63 -17.5s30.666 -26.334 39.999 -44.001s14.333 -36.834 15 -57.501s-3 -40 -11 -58s-20.5 -33.167 -37.5 -45.5s-38.833 -18.833 -65.5 -19.5zM862.006 1495c-28 -0.666992 -51.4971 4.83398 -70.4971 16.501
s-33.333 26.334 -43 44.001s-14.667 37.167 -15 58.5s4 41 13 59s22.667 33.167 41 45.5s41.166 18.5 68.499 18.5c25.333 0 46.666 -5.83301 63.999 -17.5s30.666 -26.334 39.999 -44.001s14.333 -36.834 15 -57.501s-3 -40 -11 -58s-20.5 -33.167 -37.5 -45.5
s-38.5 -18.833 -64.5 -19.5z" />
    <glyph glyph-name="igrave" unicode="&#xec;" horiz-adv-x="512" 
d="M433 35c0 -14 -8.83301 -26.668 -26.5 -38.001s-39.667 -20.166 -66 -26.499s-54.833 -10 -85.5 -11s-59.167 1.66699 -85.5 8s-48.333 16.5 -66 30.5s-26.167 32.667 -25.5 56l14 1179c0 12.667 8.5 23.667 25.5 33s38 16.5 63 21.5s52 8 81 9s56 -0.166992 81 -3.5
s45.833 -9.33301 62.5 -18s25 -19.667 25 -33zM400 1539c4.66699 -6 5.16797 -14.002 1.50098 -24.002s-9.83398 -20.167 -18.501 -30.5s-19 -20.166 -31 -29.499s-24.333 -16.5 -37 -21.5s-24.667 -7 -36 -6s-20.333 6.5 -27 16.5l-146 193
c-4 5.33301 -3.83301 12.333 0.5 21s11 17.834 20 27.501s19.333 19 31 28s23.167 16.333 34.5 22s21.833 9.16699 31.5 10.5s16.5 -1 20.5 -7z" />
    <glyph glyph-name="iacute" unicode="&#xed;" horiz-adv-x="512" 
d="M433 35c0 -14 -8.83301 -26.668 -26.5 -38.001s-39.667 -20.166 -66 -26.499s-54.833 -10 -85.5 -11s-59.167 1.66699 -85.5 8s-48.333 16.5 -66 30.5s-26.167 32.667 -25.5 56l14 1179c0 12.667 8.5 23.667 25.5 33s38 16.5 63 21.5s52 8 81 9s56 -0.166992 81 -3.5
s45.833 -9.33301 62.5 -18s25 -19.667 25 -33zM267 1748c4 6 10.834 8.33496 20.501 7.00195s20.167 -4.83301 31.5 -10.5s22.833 -13 34.5 -22s22 -18.333 31 -28s15.5 -18.834 19.5 -27.501s4.33301 -15.667 1 -21l-146 -193c-7.33301 -10 -16.5 -15.5 -27.5 -16.5
s-22.833 1 -35.5 6s-25 12.167 -37 21.5s-22.333 19.166 -31 29.499s-14.834 20.5 -18.501 30.5s-3.16699 18 1.5 24z" />
    <glyph glyph-name="icircumflex" unicode="&#xee;" horiz-adv-x="512" 
d="M433 35c0 -14 -8.83301 -26.668 -26.5 -38.001s-39.667 -20.166 -66 -26.499s-54.833 -10 -85.5 -11s-59.167 1.66699 -85.5 8s-48.333 16.5 -66 30.5s-26.167 32.667 -25.5 56l14 1179c0 12.667 8.5 23.667 25.5 33s38 16.5 63 21.5s52 8 81 9s56 -0.166992 81 -3.5
s45.833 -9.33301 62.5 -18s25 -19.667 25 -33zM256 1571l-38.001 -83.998c-3.33301 -6.66699 -10.333 -10.5 -21 -11.5s-23.167 -0.166992 -37.5 2.5s-29 7 -44 13s-28.5 12.667 -40.5 20s-21.5 14.666 -28.5 21.999s-8.83301 14.333 -5.5 21l109 240c4 8 15.333 14 34 18
s38.667 6 60 6s41.5 -1.83301 60.5 -5.5s30.5 -9.5 34.5 -17.5l133 -235c3.33301 -6 1.83301 -13 -4.5 -21s-15.166 -15.833 -26.499 -23.5s-24.333 -14.834 -39 -21.501s-29 -11.834 -43 -15.501s-26.5 -5.16699 -37.5 -4.5s-18.167 4.33398 -21.5 11.001z" />
    <glyph glyph-name="idieresis" unicode="&#xef;" horiz-adv-x="512" 
d="M433 35c0 -14 -8.83301 -26.668 -26.5 -38.001s-39.667 -20.166 -66 -26.499s-54.833 -10 -85.5 -11s-59.167 1.66699 -85.5 8s-48.333 16.5 -66 30.5s-26.167 32.667 -25.5 56l14 1179c0 12.667 8.5 23.667 25.5 33s38 16.5 63 21.5s52 8 81 9s56 -0.166992 81 -3.5
s45.833 -9.33301 62.5 -18s25 -19.667 25 -33zM117 1500c-28 -0.666992 -51.498 4.66992 -70.498 16.0029s-33.167 26 -42.5 44s-14 37.5 -14 58.5s4.5 40.667 13.5 59s22.667 33.666 41 45.999s41.166 18.5 68.499 18.5c24.667 0 45.667 -5.83301 63 -17.5
s30.666 -26.334 39.999 -44.001s14.333 -36.834 15 -57.501s-3 -40 -11 -58s-20.5 -33.167 -37.5 -45.5s-38.833 -18.833 -65.5 -19.5zM409.002 1495c-28 -0.666992 -51.4971 4.83398 -70.4971 16.501s-33.333 26.334 -43 44.001s-14.667 37.167 -15 58.5s4 41 13 59
s22.667 33.167 41 45.5s41.166 18.5 68.499 18.5c25.333 0 46.666 -5.83301 63.999 -17.5s30.666 -26.334 39.999 -44.001s14.333 -36.834 15 -57.501s-3 -40 -11 -58s-20.5 -33.167 -37.5 -45.5s-38.5 -18.833 -64.5 -19.5z" />
    <glyph glyph-name="eth" unicode="&#xf0;" horiz-adv-x="1388" 
d="M622 1477c-50.667 15.333 -102.001 25 -154.001 29s-102.667 4.33301 -152 1c-16 -1.33301 -30.167 4.5 -42.5 17.5s-21.833 29.667 -28.5 50s-10 42.5 -10 66.5s3.83301 46.5 11.5 67.5s19.834 39 36.501 54s38.334 23.5 65.001 25.5
c104 7.33301 201.167 1.5 291.5 -17.5s172.833 -48.833 247.5 -89.5l95 73c9.33301 7.33301 20.5 10 33.5 8s25.833 -6.83301 38.5 -14.5s24.167 -17.834 34.5 -30.501s17.666 -26 21.999 -40s4.66602 -28.333 0.999023 -43s-13.167 -27.667 -28.5 -39l-36 -28
c62.667 -57.333 114.167 -122.333 154.5 -195s68.166 -150.667 83.499 -234c15.333 -82.667 23.833 -168.834 25.5 -258.501s-4.83301 -177.667 -19.5 -264s-38.167 -168.333 -70.5 -246s-74.5 -146 -126.5 -205s-114.5 -106 -187.5 -141s-157.833 -52.833 -254.5 -53.5
c-72 -0.666992 -142 11.333 -210 36s-128.5 62 -181.5 112s-96.167 113.333 -129.5 190s-51 166.667 -53 270c-1.33301 56.667 6.16699 110.5 22.5 161.5s39.333 97.833 69 140.5s65 80.5 106 113.5s85.333 59.5 133 79.5s98 32.833 151 38.5s106.333 2.66699 160 -9
s106.667 -32.667 159 -63s102.166 -71.833 149.499 -124.5c0.666992 52 -4.16602 100.833 -14.499 146.5s-25.5 88 -45.5 127s-44 74.667 -72 107s-58.667 61.166 -92 86.499l-122 -93c-8.66699 -6 -18.667 -7.66699 -30 -5s-22.666 8.33398 -33.999 17.001
s-22.166 19.167 -32.499 31.5s-18.333 24.833 -24 37.5s-8.5 24.834 -8.5 36.501s4.66699 20.834 14 27.501zM377.999 528c2.66699 -33.333 13.334 -65.835 32.001 -97.502s42.334 -59.5 71.001 -83.5s61.167 -43.167 97.5 -57.5s73.833 -21.166 112.5 -20.499
c43.333 0.666992 81.5 9 114.5 25s60.5 36.667 82.5 62s38.833 54 50.5 86s18.167 64.667 19.5 98c-24.667 66.667 -56.834 119.5 -96.501 158.5s-81.667 66.333 -126 82s-88.833 20.5 -133.5 14.5s-84.334 -20.5 -119.001 -43.5s-62 -53.667 -82 -92
s-27.667 -82.166 -23 -131.499z" />
    <glyph glyph-name="ntilde" unicode="&#xf1;" horiz-adv-x="1284" 
d="M424 1193c10.667 5.33301 21.3379 10.334 32.0049 15.001l33 14c110.667 44.667 208 68 292 70s155.5 -18.333 214.5 -61s105.333 -108.667 139 -198s55.167 -203.333 64.5 -342c6.66699 -95.333 10.334 -195.5 11.001 -300.5s-1.66602 -220.5 -6.99902 -346.5
c-0.666992 -19.333 -9.5 -35.333 -26.5 -48s-37.833 -22 -62.5 -28s-51.334 -9 -80.001 -9s-55.167 3.33301 -79.5 10s-44.333 16.167 -60 28.5s-23.167 27.833 -22.5 46.5c5.33301 124 9.66602 235.333 12.999 334s2.66602 185.334 -2.00098 260.001
c-4 64.667 -11.833 119.667 -23.5 165s-29.834 80.166 -54.501 104.499s-56.834 37.333 -96.501 39s-89.5 -9.16602 -149.5 -32.499c-50.667 -19.333 -94.667 -43.333 -132 -72l5 -807c0 -14 -8.66699 -26.667 -26 -38s-39.333 -20.166 -66 -26.499s-55.334 -10 -86.001 -11
s-59.167 1.66699 -85.5 8s-48.333 16.5 -66 30.5s-26.167 32.667 -25.5 56c0.666992 28.667 1 66.667 1 114s0.166992 99.833 0.5 157.5s0.5 119.167 0.5 184.5s0.166992 130.666 0.5 195.999s0.5 129.166 0.5 191.499s0.166992 119.166 0.5 170.499
s0.666016 95.833 0.999023 133.5s0.833008 64.5 1.5 80.5c0 12.667 8.5 23.5 25.5 32.5s38 16.167 63 21.5s52 8.5 81 9.5s56 -0.166992 81 -3.5s45.833 -9.33301 62.5 -18s25 -19.667 25 -33zM444.004 1526c-4 -8 -10.6719 -12.3281 -20.0049 -12.9951
s-19.5 1.16602 -30.5 5.49902s-22.167 10.666 -33.5 18.999s-21.166 17.666 -29.499 27.999s-14 21.166 -17 32.499s-1.5 22.333 4.5 33c26 46 52.667 79.333 80 100s55.333 32.167 84 34.5s58 -2.16699 88 -13.5s60.333 -26 91 -44c24 -14 43.333 -22.5 58 -25.5
s27.334 -2.16699 38.001 2.5s20 12.5 28 23.5l28 38.5c8 11.333 18 18.666 30 21.999s24.667 4 38 2s26.5 -6.16699 39.5 -12.5s24 -14 33 -23s15.333 -19 19 -30s3.16699 -21.833 -1.5 -32.5c-18 -38.667 -40 -71.167 -66 -97.5s-54.167 -45.166 -84.5 -56.499
s-62.166 -14.833 -95.499 -10.5s-66.666 17.833 -99.999 40.5c-19.333 13.333 -37.333 24.666 -54 33.999s-32.167 14.333 -46.5 15s-28.166 -4.5 -41.499 -15.5s-26.333 -29.833 -39 -56.5z" />
    <glyph glyph-name="ograve" unicode="&#xf2;" horiz-adv-x="1376" 
d="M713 5c-85.333 -0.666992 -162.001 11.3291 -230.001 35.9961s-127.5 58.5 -178.5 101.5s-93.333 93.333 -127 151s-58.667 118.834 -75 183.501s-24.5 131.334 -24.5 200.001s8.66699 135.5 26 200.5s42.833 126.5 76.5 184.5s75.667 108.667 126 152
s108.833 77.5 175.5 102.5s141.334 37.5 224.001 37.5c79.333 0 150.5 -12.667 213.5 -38s118.167 -59.5 165.5 -102.5s86.666 -93.167 117.999 -150.5s54.833 -118.166 70.5 -182.499s23.5 -130.666 23.5 -198.999s-7.83301 -134.833 -23.5 -199.5
s-39.167 -125.667 -70.5 -183s-70.333 -107.666 -117 -150.999s-101.167 -77.833 -163.5 -103.5s-132.166 -38.834 -209.499 -39.501zM666.999 1015c-46.667 -2.66699 -87.3369 -14.333 -122.004 -35s-63.5 -47.167 -86.5 -79.5s-40.167 -68.5 -51.5 -108.5
s-16.833 -80.833 -16.5 -122.5s6.83301 -82.334 19.5 -122.001s31.167 -75 55.5 -106s54.833 -56 91.5 -75s79.667 -28.5 129 -28.5c48.667 0 91.167 9.83301 127.5 29.5s66.333 45.834 90 78.501s41.167 69.667 52.5 111s16.333 83.5 15 126.5s-8.66602 85 -21.999 126
s-32.666 77.167 -57.999 108.5s-56.666 56 -93.999 74s-80.666 25.667 -129.999 23zM831.996 1539c4.66699 -6 5.16797 -14.002 1.50098 -24.002s-9.83398 -20.167 -18.501 -30.5s-19 -20.166 -31 -29.499s-24.333 -16.5 -37 -21.5s-24.667 -7 -36 -6s-20.333 6.5 -27 16.5
l-146 193c-4 5.33301 -3.83301 12.333 0.5 21s11 17.834 20 27.501s19.333 19 31 28s23.167 16.333 34.5 22s21.833 9.16699 31.5 10.5s16.5 -1 20.5 -7z" />
    <glyph glyph-name="oacute" unicode="&#xf3;" horiz-adv-x="1376" 
d="M713 5c-85.333 -0.666992 -162.001 11.3291 -230.001 35.9961s-127.5 58.5 -178.5 101.5s-93.333 93.333 -127 151s-58.667 118.834 -75 183.501s-24.5 131.334 -24.5 200.001s8.66699 135.5 26 200.5s42.833 126.5 76.5 184.5s75.667 108.667 126 152
s108.833 77.5 175.5 102.5s141.334 37.5 224.001 37.5c79.333 0 150.5 -12.667 213.5 -38s118.167 -59.5 165.5 -102.5s86.666 -93.167 117.999 -150.5s54.833 -118.166 70.5 -182.499s23.5 -130.666 23.5 -198.999s-7.83301 -134.833 -23.5 -199.5
s-39.167 -125.667 -70.5 -183s-70.333 -107.666 -117 -150.999s-101.167 -77.833 -163.5 -103.5s-132.166 -38.834 -209.499 -39.501zM666.999 1015c-46.667 -2.66699 -87.3369 -14.333 -122.004 -35s-63.5 -47.167 -86.5 -79.5s-40.167 -68.5 -51.5 -108.5
s-16.833 -80.833 -16.5 -122.5s6.83301 -82.334 19.5 -122.001s31.167 -75 55.5 -106s54.833 -56 91.5 -75s79.667 -28.5 129 -28.5c48.667 0 91.167 9.83301 127.5 29.5s66.333 45.834 90 78.501s41.167 69.667 52.5 111s16.333 83.5 15 126.5s-8.66602 85 -21.999 126
s-32.666 77.167 -57.999 108.5s-56.666 56 -93.999 74s-80.666 25.667 -129.999 23zM698.996 1748c4 6 10.834 8.33496 20.501 7.00195s20.167 -4.83301 31.5 -10.5s22.833 -13 34.5 -22s22 -18.333 31 -28s15.5 -18.834 19.5 -27.501s4.33301 -15.667 1 -21l-146 -193
c-7.33301 -10 -16.5 -15.5 -27.5 -16.5s-22.833 1 -35.5 6s-25 12.167 -37 21.5s-22.333 19.166 -31 29.499s-14.834 20.5 -18.501 30.5s-3.16699 18 1.5 24z" />
    </font>
</defs>
</svg>
